<?xml version="1.0" encoding="utf-8"?>
<!-- Generator: Adobe Illustrator 22.1.0, SVG Export Plug-In . SVG Version: 6.00 Build 0)  -->
<svg version="1.1" id="Layer_1" xmlns="http://www.w3.org/2000/svg" xmlns:xlink="http://www.w3.org/1999/xlink" x="0px" y="0px"
	 viewBox="0 0 900 350" style="enable-background:new 0 0 900 350;" xml:space="preserve">
<style type="text/css">
	.st0{clip-path:url(#SVGID_2_);}
	.st1{opacity:0.1;fill:#A4DDB1;}
	.st2{opacity:0.3;}
	.st3{fill:none;stroke:#A4DDB1;stroke-width:4.5829;stroke-miterlimit:10;}
	.st4{fill:none;stroke:#A4DDB1;stroke-width:3.9379;stroke-miterlimit:10;}
	.st5{fill:#A4DDB1;}
	.st6{fill:none;stroke:#60944D;stroke-width:6.2205;stroke-miterlimit:10;}
	.st7{fill:#60944D;}
	.st8{fill:#F8EBC0;}
	.st9{opacity:0.8;fill:#60944D;}
	.st10{fill:#FFFFFF;stroke:#60944D;stroke-width:4.147;stroke-miterlimit:10;}
	.st11{fill:#E5D4A5;}
	.st12{fill:#D66E00;}
	.st13{fill:#DDC992;}
	.st14{fill:#FF6D2C;}
	.st15{fill:#FF9429;}
	.st16{fill:#FFD127;}
	.st17{fill:none;stroke:#A4DDB1;stroke-width:9.3308;stroke-miterlimit:10;}
	.st18{clip-path:url(#SVGID_4_);}
	.st19{opacity:0.2;fill:none;stroke:#A4DDB1;stroke-width:13.4779;stroke-miterlimit:10;}
	.st20{clip-path:url(#SVGID_6_);fill:#136D29;}
	.st21{clip-path:url(#SVGID_6_);fill:none;stroke:#F8EBC0;stroke-width:2.0735;stroke-miterlimit:10;}
	.st22{clip-path:url(#SVGID_8_);fill:#D66E00;}
	.st23{clip-path:url(#SVGID_8_);}
	.st24{fill:none;stroke:#964C0B;stroke-width:1.1096;stroke-miterlimit:10;}
	.st25{fill:#FFFFFF;}
	.st26{fill:url(#SVGID_9_);}
	.st27{fill:url(#SVGID_10_);}
	.st28{fill:url(#SVGID_11_);}
	.st29{fill:#15BA43;}
	.st30{fill:#FFD4B1;}
	.st31{fill:#136D29;}
	.st32{fill:#F7CA4B;}
	.st33{fill:none;stroke:#F2A019;stroke-width:2.8174;stroke-miterlimit:10;}
	.st34{opacity:0.5;fill:url(#SVGID_12_);}
	.st35{opacity:0.5;fill:url(#SVGID_13_);}
	.st36{fill:#F8EBC0;stroke:#D66E00;stroke-width:4.147;stroke-miterlimit:10;}
	.st37{fill:url(#SVGID_14_);}
	.st38{fill:url(#SVGID_15_);}
	.st39{fill:url(#SVGID_16_);}
	.st40{fill:url(#SVGID_17_);}
	.st41{fill:url(#SVGID_18_);}
	.st42{fill:url(#SVGID_19_);}
	.st43{fill:url(#SVGID_20_);}
	.st44{fill:url(#SVGID_21_);}
	.st45{fill:url(#SVGID_22_);}
</style>
<g>
	<defs>
		<rect id="SVGID_1_" width="900" height="350"/>
	</defs>
	<clipPath id="SVGID_2_">
		<use xlink:href="#SVGID_1_"  style="overflow:visible;"/>
	</clipPath>
	<g class="st0">
		<rect x="-9.5" y="-16.5" class="st1" width="509.7" height="329"/>
		<g class="st2">
			<line class="st3" x1="517.6" y1="-12.2" x2="517.6" y2="305.1"/>
			<line class="st3" x1="476.3" y1="-12.2" x2="476.3" y2="305.1"/>
			<line class="st3" x1="435" y1="-12.2" x2="435" y2="305.1"/>
			<line class="st3" x1="393.7" y1="-12.2" x2="393.7" y2="305.1"/>
			<line class="st3" x1="352.4" y1="-12.2" x2="352.4" y2="305.1"/>
			<line class="st3" x1="311.1" y1="-12.2" x2="311.1" y2="305.1"/>
			<line class="st3" x1="269.8" y1="-12.2" x2="269.8" y2="305.1"/>
			<line class="st3" x1="228.5" y1="-12.2" x2="228.5" y2="305.1"/>
			<line class="st3" x1="187.2" y1="-12.2" x2="187.2" y2="305.1"/>
			<line class="st3" x1="145.9" y1="-12.2" x2="145.9" y2="305.1"/>
			<line class="st3" x1="104.6" y1="-12.2" x2="104.6" y2="305.1"/>
			<line class="st3" x1="63.2" y1="-12.2" x2="63.2" y2="305.1"/>
			<line class="st3" x1="21.9" y1="-12.2" x2="21.9" y2="305.1"/>
			<line class="st3" x1="-19.4" y1="-12.2" x2="-19.4" y2="305.1"/>
			<line class="st4" x1="389.2" y1="59.7" x2="570.9" y2="59.7"/>
			<line class="st4" x1="573.6" y1="104.9" x2="-34.6" y2="104.9"/>
			<line class="st4" x1="573.6" y1="60.9" x2="-34.6" y2="60.9"/>
			<line class="st4" x1="573.6" y1="16.8" x2="-34.6" y2="16.8"/>
			<line class="st4" x1="573.6" y1="233.7" x2="-34.6" y2="233.7"/>
			<line class="st4" x1="573.6" y1="271.7" x2="-34.6" y2="271.7"/>
			<line class="st4" x1="573.6" y1="189.7" x2="-34.6" y2="189.7"/>
			<line class="st4" x1="573.6" y1="145.6" x2="-34.6" y2="145.6"/>
		</g>
		<path class="st5" d="M204.3,179.7l14.3,14.8l0,0c-2.8,2.9-7.4,2.9-10.2,0l-7.1-7.4L204.3,179.7z"/>
		<path class="st6" d="M202,232.9c0,0-1,25.3,9.2,38C222.6,285,252,254,252,254"/>
		<path class="st7" d="M122.4,209.2L122.4,209.2c-8.4,0-15.3-6.8-15.3-15.3v-41.1c0-8.4,6.8-15.3,15.3-15.3h0
			c8.4,0,15.3,6.8,15.3,15.3v41.1C137.7,202.3,130.9,209.2,122.4,209.2z"/>
		<path class="st8" d="M285.9,269.7c-42.9,0-52.3-20.8-52.3-37.7v-14.6h104.6V232C338.2,248.9,328.8,269.7,285.9,269.7z"/>
		<rect x="253.7" y="260.9" class="st8" width="64.3" height="34.6"/>
		<path class="st7" d="M344.6,302.6H227.2c-2.2,0-3.9-1.8-3.9-3.9v-0.1c0-2.2,1.8-3.9,3.9-3.9h117.4c2.2,0,3.9,1.8,3.9,3.9v0.1
			C348.5,300.8,346.7,302.6,344.6,302.6z"/>
		<path class="st8" d="M271.3,79h29.2c20.1,0,36.4,16.3,36.4,36.4v65.7c0,9.2-7.5,16.7-16.7,16.7h-68.7c-9.2,0-16.7-7.5-16.7-16.7
			v-65.7C234.9,95.4,251.2,79,271.3,79z"/>
		<rect x="246.4" y="193.5" class="st7" width="78.9" height="8.9"/>
		<path class="st9" d="M242.6,203.9h84c0,0,17.2,10.6,10.3,21.3c-6.9,10.6-35.2,14.2-47.2,14.2c-12,0-40.2-3.8-48.9-9.8
			C222.8,217.2,242.6,203.9,242.6,203.9z"/>
		<path class="st7" d="M192.3,178.6h-8.8c-0.8,0-1.4,0.7-1.4,1.5V193c0,0.8,0.6,1.5,1.4,1.5h7.4c0.8,0,1.4,0.7,1.4,1.5v26.5
			c0,4.9,3.9,9,8.7,9h0c4.8,0,8.7-4,8.7-9v-27.9v-7.7c0-4.5-3.5-8.1-7.8-8.1H192.3z"/>
		<ellipse class="st5" cx="182.1" cy="186.5" rx="4.1" ry="7.9"/>
		<rect x="196.4" y="228.2" class="st5" width="10.2" height="7.4"/>
		<path class="st5" d="M190.3,215.5c0,0.6,4.8,1.1,10.7,1.1c5.9,0,10.7-0.5,10.7-1.1v-12.7c0,0.6-4.8,1.1-10.7,1.1
			c-5.9,0-10.7-0.5-10.7-1.1V215.5z"/>
		<path class="st8" d="M181.1,85.6v-7.1H62.9v7.4c-9.9,2.8-15.9,6.2-15.9,10c0,8.9,33.2,16.2,74.3,16.3c-47.3-0.1-60-16.3-56.4-20
			c4.6-4.8,109.2-4.2,115.2,0c4.2,2.9-10.2,20-57.9,20c0.1,0,0.2,0,0.3,0c41.7,0,75.4-7.3,75.4-16.3
			C197.9,91.9,191.6,88.4,181.1,85.6z"/>
		<path class="st8" d="M47,148.6c0,9,33.8,16.3,75.4,16.3s75.4-7.3,75.4-16.3V95.8c0,9-33.8,16.3-75.4,16.3S47,104.9,47,95.8V148.6z
			"/>
		<rect x="47.5" y="-34.4" class="st10" width="149.9" height="100.2"/>
		<path class="st7" d="M242.6,201.4h84c0,0,17.2,10.6,10.3,21.3c-6.9,10.6-35.2,14.2-47.2,14.2c-12,0-40.2-3.8-48.9-9.8
			C222.8,214.7,242.6,201.4,242.6,201.4z"/>
		<path class="st11" d="M257.7,205.9h54.6c0,0,11.1,6.9,6.7,13.8s-22.9,9.2-30.7,9.2c-7.8,0-26.1-2.4-31.8-6.3
			C244.9,214.5,257.7,205.9,257.7,205.9z"/>
		<path class="st11" d="M72.3,86.9h101.6c0,0,20.7,7.9,12.4,15.8s-42.5,10.5-57,10.5s-48.6-2.8-59.1-7.2
			C48.4,96.8,72.3,86.9,72.3,86.9z"/>
		<g>
			<path class="st12" d="M400.8,193.4h-35.6c-2,0-3.6-1.6-3.6-3.6v-0.1c0-2,1.6-3.6,3.6-3.6h35.6c2,0,3.6,1.6,3.6,3.6v0.1
				C404.4,191.7,402.8,193.4,400.8,193.4z"/>
			<ellipse class="st13" cx="366.7" cy="209.2" rx="10.2" ry="12.7"/>
			<path class="st8" d="M400.3,221.8c5.6,0,10.2-5.7,10.2-12.7c0-7-4.6-12.7-10.2-12.7h-33.6c5.6,0,10.2,5.7,10.2,12.7
				c0,7-4.6,12.7-10.2,12.7H400.3z"/>
			<path class="st8" d="M410.5,209.2h-33.6c0,0-3.1,28.5-6.1,35.8c-3.1,7.4,31.6,0,31.6,0L410.5,209.2z"/>
			<ellipse class="st12" cx="366.2" cy="208.6" rx="3.6" ry="3.7"/>
		</g>
		<g>
			<rect x="373.7" y="1.5" class="st8" width="98.9" height="67.5"/>
			<rect x="373.7" y="76.3" class="st8" width="98.9" height="66.4"/>
			<path class="st12" d="M361-13v167.6h124.4V-13H361z M472,140h-98.6V76.6H472V140z M472,64.7h-98.6V1.2H472V64.7z"/>
			<g>
				<path class="st14" d="M448.6,141.7h-51c-2.5,0-4.6-2.1-4.6-4.6v-6.6c0-2.5,2.1-4.6,4.6-4.6h51c2.5,0,4.6,2.1,4.6,4.6v6.6
					C453.2,139.6,451.2,141.7,448.6,141.7z"/>
				<path class="st15" d="M448.6,125.9h-51c-2.5,0-4.6-2.1-4.6-4.6v-6.6c0-2.5,2.1-4.6,4.6-4.6h51c2.5,0,4.6,2.1,4.6,4.6v6.6
					C453.2,123.8,451.2,125.9,448.6,125.9z"/>
				<path class="st16" d="M448.6,110.1h-51c-2.5,0-4.6-2.1-4.6-4.6v-6.6c0-2.5,2.1-4.6,4.6-4.6h51c2.5,0,4.6,2.1,4.6,4.6v6.6
					C453.2,108,451.2,110.1,448.6,110.1z"/>
			</g>
			<g>
				<path class="st14" d="M448.6,65.8h-51c-2.5,0-4.6-2.1-4.6-4.6v-6.6c0-2.5,2.1-4.6,4.6-4.6h51c2.5,0,4.6,2.1,4.6,4.6v6.6
					C453.2,63.7,451.2,65.8,448.6,65.8z"/>
				<path class="st15" d="M448.6,50h-51c-2.5,0-4.6-2.1-4.6-4.6v-6.6c0-2.5,2.1-4.6,4.6-4.6h51c2.5,0,4.6,2.1,4.6,4.6v6.6
					C453.2,47.9,451.2,50,448.6,50z"/>
				<path class="st16" d="M448.6,34.2h-51c-2.5,0-4.6-2.1-4.6-4.6v-6.6c0-2.5,2.1-4.6,4.6-4.6h51c2.5,0,4.6,2.1,4.6,4.6v6.6
					C453.2,32.1,451.2,34.2,448.6,34.2z"/>
			</g>
		</g>
		<path class="st17" d="M126.6,84.8c0,0,0-16.9,0-24.2c0-13.2,0-15.8-9.2-15.8s-10.2,1.6-10.2,10"/>
		<path class="st7" d="M110.3,83.2H99.1v-3.9c0-3.1,2.5-5.6,5.6-5.6h0c3.1,0,5.6,2.5,5.6,5.6V83.2z"/>
		<path class="st7" d="M154.6,83.7h-11.2v-3.9c0-3.1,2.5-5.6,5.6-5.6h0c3.1,0,5.6,2.5,5.6,5.6V83.7z"/>
		<ellipse class="st7" cx="126.1" cy="98.5" rx="5.1" ry="5.3"/>
		<g>
			<defs>
				<rect id="SVGID_3_" x="47.6" y="-34.4" width="149.9" height="100.2"/>
			</defs>
			<clipPath id="SVGID_4_">
				<use xlink:href="#SVGID_3_"  style="overflow:visible;"/>
			</clipPath>
			<g class="st18">
				<line class="st19" x1="34.3" y1="26.8" x2="126.1" y2="-56.5"/>
				<line class="st19" x1="56.7" y1="66.8" x2="187.2" y2="-56.5"/>
				<line class="st19" x1="82.2" y1="71.1" x2="212.7" y2="-52.3"/>
				<line class="st19" x1="139.3" y1="80.5" x2="269.8" y2="-42.8"/>
			</g>
		</g>
		<g>
			<defs>
				<rect id="SVGID_5_" x="-16.7" y="302" width="621.9" height="56.9"/>
			</defs>
			<clipPath id="SVGID_6_">
				<use xlink:href="#SVGID_5_"  style="overflow:visible;"/>
			</clipPath>
			<rect x="-16.7" y="302" class="st20" width="621.9" height="56.9"/>
			<line class="st21" x1="61.3" y1="282.5" x2="-9.5" y2="362.1"/>
			<line class="st21" x1="134.7" y1="282.5" x2="63.9" y2="362.1"/>
			<line class="st21" x1="208.1" y1="282.5" x2="137.3" y2="362.1"/>
			<line class="st21" x1="281.5" y1="282.5" x2="210.7" y2="362.1"/>
			<line class="st21" x1="354.9" y1="282.5" x2="284.1" y2="362.1"/>
			<line class="st21" x1="428.3" y1="282.5" x2="357.5" y2="362.1"/>
			<line class="st21" x1="501.7" y1="282.5" x2="430.9" y2="362.1"/>
			<line class="st21" x1="575.1" y1="282.5" x2="504.3" y2="362.1"/>
			<line class="st21" x1="648.5" y1="282.5" x2="577.7" y2="362.1"/>
		</g>
		<rect x="485.9" y="-16.5" class="st8" width="422.1" height="286.8"/>
		<g>
			<defs>
				<polygon id="SVGID_7_" points="908,361 415.6,361 489.7,270.3 908,270.3 				"/>
			</defs>
			<clipPath id="SVGID_8_">
				<use xlink:href="#SVGID_7_"  style="overflow:visible;"/>
			</clipPath>
			<polygon class="st22" points="908,361 415.6,361 489.7,270.3 908,270.3 			"/>
			<g class="st23">
				<line class="st24" x1="413.9" y1="299.4" x2="923.6" y2="299.4"/>
				<line class="st24" x1="413.9" y1="328.9" x2="923.6" y2="328.9"/>
				<g>
					<line class="st24" x1="525.7" y1="334.1" x2="509.5" y2="350.5"/>
					<line class="st24" x1="589.3" y1="334.1" x2="573.1" y2="350.5"/>
					<line class="st24" x1="652.9" y1="334.1" x2="636.8" y2="350.5"/>
					<line class="st24" x1="716.6" y1="334.1" x2="700.4" y2="350.5"/>
					<line class="st24" x1="780.2" y1="334.1" x2="764" y2="350.5"/>
					<line class="st24" x1="843.8" y1="334.1" x2="827.7" y2="350.5"/>
					<line class="st24" x1="907.5" y1="334.1" x2="891.3" y2="350.5"/>
				</g>
				<g>
					<line class="st24" x1="558" y1="278.2" x2="541.8" y2="294.6"/>
					<line class="st24" x1="621.6" y1="278.2" x2="605.5" y2="294.6"/>
					<line class="st24" x1="685.3" y1="278.2" x2="669.1" y2="294.6"/>
					<line class="st24" x1="748.9" y1="278.2" x2="732.7" y2="294.6"/>
					<line class="st24" x1="812.5" y1="278.2" x2="796.4" y2="294.6"/>
					<line class="st24" x1="876.2" y1="278.2" x2="860" y2="294.6"/>
				</g>
				<g>
					<line class="st24" x1="510" y1="305.6" x2="493.8" y2="322"/>
					<line class="st24" x1="573.6" y1="305.6" x2="557.5" y2="322"/>
					<line class="st24" x1="637.3" y1="305.6" x2="621.1" y2="322"/>
					<line class="st24" x1="700.9" y1="305.6" x2="684.7" y2="322"/>
					<line class="st24" x1="764.6" y1="305.6" x2="748.4" y2="322"/>
					<line class="st24" x1="828.2" y1="305.6" x2="812" y2="322"/>
					<line class="st24" x1="891.8" y1="305.6" x2="875.7" y2="322"/>
				</g>
			</g>
		</g>
		<path class="st25" d="M678.6,283.9c0,0-5-7.8-17.8-8.2c-12.8-0.3-20.4,14.6-9.9,26c10.5,11.4,26.2,0.5,26.2,0.5
			s26.8,7.2,24.7-10.4C699.2,270.1,678.6,283.9,678.6,283.9z"/>
		<path class="st25" d="M828.5,250.3c1.4,14.2,9,14.2,21.9,14.5s20.4-14.6,9.9-26C849.7,227.4,826.4,230.3,828.5,250.3z"/>
		<linearGradient id="SVGID_9_" gradientUnits="userSpaceOnUse" x1="412.8555" y1="278.5915" x2="599.0556" y2="278.5915">
			<stop  offset="1.241987e-03" style="stop-color:#FFFFFF"/>
			<stop  offset="1" style="stop-color:#FFFFFF;stop-opacity:0.6"/>
		</linearGradient>
		<path class="st26" d="M524.4,260.1c0,0-13.8-28.1-56.5-34.1s-73.6,40.9-42.3,83.3c31.1,42.1,87.3,11.7,87.3,11.7
			s86.6,34.4,86.1-25.3C598.4,202.9,524.4,260.1,524.4,260.1z"/>
		
			<linearGradient id="SVGID_10_" gradientUnits="userSpaceOnUse" x1="18.0038" y1="270.8991" x2="138.5884" y2="270.8991" gradientTransform="matrix(0.9429 0.333 -0.333 0.9429 521.4862 -93.9914)">
			<stop  offset="1.241987e-03" style="stop-color:#FFFFFF"/>
			<stop  offset="1" style="stop-color:#FFFFFF;stop-opacity:0.6"/>
		</linearGradient>
		<path class="st27" d="M572.8,163.8c-3-19.4-20.7-32.5-39.4-29.4c-4.3,0.7-8.3,2.2-11.8,4.4c-9.5-4.3-20.3-6-31.3-4.1
			c-30.5,5.1-51.2,34.8-46.2,66.3s33.7,52.9,64.1,47.8c24.3-4.1,42.4-23.9,46.2-47.7C567.4,194.4,575.2,179.5,572.8,163.8z"/>
		
			<linearGradient id="SVGID_11_" gradientUnits="userSpaceOnUse" x1="-826.3097" y1="984.5125" x2="-604.3154" y2="984.5125" gradientTransform="matrix(0.2846 0.9586 -0.9586 0.2846 1725.3754 517.0797)">
			<stop  offset="1.241987e-03" style="stop-color:#FFFFFF"/>
			<stop  offset="1" style="stop-color:#FFFFFF;stop-opacity:0.6"/>
		</linearGradient>
		<path class="st28" d="M682.4,187.9c23.9-24.9,23.8-65.2-0.3-89.9c-5.5-5.7-11.8-10-18.6-13.1c-4-18.8-13-36.7-27.2-51.3
			C597.1-6.6,533.7-6.4,494.7,34.2s-38.8,106.1,0.5,146.4c31.3,32.2,78.1,38.5,115.5,19.1C633.9,212,663,208.1,682.4,187.9z"/>
		<path class="st29" d="M680.3-11.4c0,0,27.4-14.2,49.7-8s31.1-7.6,31.1-7.6s6.6,35.1-2,41.3c-8.6,6.2-32.6,16-42.9,15.1
			S680.3-11.4,680.3-11.4z"/>
		<g>
			<g>
				<path class="st30" d="M650.3,238.7c0,0-3.4,14.2-6,17.7c-2.6,3.5-5.1,9.8-5.1,9.8s18,5.3,33.4,4.4s17.2-2.7,12-5.3
					s-12.9-9.8-16.3-14.2c-3.4-4.4-4.3-7.1-4.3-9.8C664,238.7,650.3,238.7,650.3,238.7z"/>
				<path class="st31" d="M639.2,266.2c0,0-3.4-1.8-2.6,2.7s0.9,4.4,18,5.3c17.2,0.9,29.2,0.9,35.2,0c6-0.9,6-1.8,5.1-3.5
					s2.4-3.8-7-2.8C678.6,268.8,639.2,266.2,639.2,266.2z"/>
			</g>
			<path class="st29" d="M725.5,87.9c0,0-29.1-36.9-56.1-12.7c-23.4,21.1-12.3,41-16.5,58.8c-4.3,17.7-14.6,41.7-9.4,67.4
				s5.1,41.7,5.1,41.7l16.3,0.9c0,0,15.4-13.3,21.4-26.6c6-13.3,53.5-41.1,48.3-66.2C727.8,117.5,725.5,87.9,725.5,87.9z"/>
		</g>
		<g>
			<g>
				<path class="st30" d="M755.5,240.4c0,0,2.4,14.4,1.5,18.7c-1,4.3-0.9,11.1-0.9,11.1s18.5-2.7,32.3-10s14.6-9.6,8.9-9.9
					s-15.6-3.5-20.5-6.1c-4.9-2.6-6.7-4.7-7.8-7.1C768,234.6,755.5,240.4,755.5,240.4z"/>
				<path class="st31" d="M756.1,270.2c0,0-3.8-0.2-1.3,3.5c2.5,3.7,2.5,3.7,18.5-2.7s27-11.5,32.1-14.8c5.1-3.3,4.8-4.1,3.3-5.4
					s0.7-4.5-7.5,0.4C793.2,256,756.1,270.2,756.1,270.2z"/>
			</g>
			<path class="st29" d="M764.9,71c0,0-41.1-21.5-56.2,12c-13.1,29.1,4.9,42.6,8,60.6c3.1,18,3.1,44.2,17.9,65.5
				c14.8,21.3,21.1,35.9,21.1,35.9l15.2-6c0,0,8.9-18.6,9.1-33.3c0.2-14.7-2.2-58-16.8-78.8C743.7,99,764.9,71,764.9,71z"/>
		</g>
		<path class="st31" d="M658,8.1c0,0-1.7,36.4,12,51.4c13.7,15.1-11.1,140.1-11.1,140.1s74.6,11.5,96.9,4.4s35.2-18.6,35.2-18.6
			s-12.9-64.7-17.2-84.3c-4.3-19.5-10.3-56.8-10.3-56.8s3.5-58.7,1.7-69.3s-6.9,5.5-6.9,5.5s-5.3,20-24,20.4
			c-18.7,0.4-25.7-6.2-27.4-23.9C705.2-40.7,658,8.1,658,8.1z"/>
		<path class="st32" d="M740,214.5c0,0-19,44.7-28.8,50.2c-9.9,5.5-19,10.2,5.3,11.8c24.3,1.6,72,1.6,90.3,0s28.1-4.7,28.8-25.9
			c0.8-21.2,0-37.6,0-37.6L740,214.5z"/>
		<g>
			<path class="st33" d="M745.9,244c0,0-12.2,27-28.5,33.7"/>
			<path class="st33" d="M772.4,244c0,0-12.2,27-28.5,33.7"/>
			<path class="st33" d="M798.9,244c0,0-12.2,27-28.5,33.7"/>
			<path class="st33" d="M825.4,244c0,0-12.2,27-28.5,33.7"/>
		</g>
		<linearGradient id="SVGID_12_" gradientUnits="userSpaceOnUse" x1="584.1635" y1="242.7255" x2="657.2207" y2="242.7255">
			<stop  offset="1.241987e-03" style="stop-color:#FFFFFF"/>
			<stop  offset="1" style="stop-color:#FFFFFF;stop-opacity:0.6"/>
		</linearGradient>
		<ellipse class="st34" cx="620.7" cy="242.7" rx="36.5" ry="37.8"/>
		<linearGradient id="SVGID_13_" gradientUnits="userSpaceOnUse" x1="499.9645" y1="207.5411" x2="591.6876" y2="207.5411">
			<stop  offset="1.241987e-03" style="stop-color:#FFFFFF"/>
			<stop  offset="1" style="stop-color:#FFFFFF;stop-opacity:0.6"/>
		</linearGradient>
		<ellipse class="st35" cx="545.8" cy="207.5" rx="45.8" ry="47.4"/>
		<path class="st8" d="M13.9,303.5c0,3.8,19.4,6.9,43.3,6.9s43.3-3.1,43.3-6.9v-77c0,3.8-19.4,6.9-43.3,6.9s-43.3-3.1-43.3-6.9
			V303.5z"/>
		<ellipse class="st36" cx="57.3" cy="226.6" rx="43.3" ry="6.9"/>
		<polygon class="st32" points="93.4,270.3 73.1,272.4 73.1,229.2 93.4,227.1 		"/>
		<polygon class="st7" points="43,229.9 43,289.3 77.1,289.3 77.1,229.2 		"/>
		
			<radialGradient id="SVGID_14_" cx="226.3571" cy="296.5413" r="12.065" fx="232.6195" fy="306.8538" gradientTransform="matrix(1.0195 0 0 1.0543 -8.5022 -8.0192)" gradientUnits="userSpaceOnUse">
			<stop  offset="0" style="stop-color:#FFFFFF"/>
			<stop  offset="1" style="stop-color:#FFFFFF"/>
		</radialGradient>
		<path class="st37" d="M210.5,292.1c0,0.6,0.3,0.8,0.6,1.1c1.9,2.3,3.8,4.6,5.7,6.9c0.6,0.7,1,1.5,0.6,2.6c-0.4,1-1.3,0.8-2,0.9
			c-1.7,0.2-3.5,0.4-5.3,0.5c1.7,0.5,3.3,0.7,5,0.8c0.9,0.1,1.9,0.1,2.4,1.2c0.5,1.2-0.4,1.9-1,2.6c-2.1,2.7-4.3,5.3-6.7,8.2
			c1-0.2,1.4-0.8,1.9-1.2c2.1-1.9,4.3-3.8,6.4-5.7c0.7-0.6,1.5-1.3,2.6-0.8c1,0.5,0.8,1.5,0.9,2.3c0.2,1.6,0.2,3.2,0.7,4.8
			c0.3-1.9,0.5-3.8,0.7-5.7c0.2-1.6,1.3-2.1,2.5-1.1c1.1,0.9,2.2,1.8,3.3,2.8c1.8,1.6,3.6,3.2,5.7,5.1c-0.3-1.2-0.9-1.8-1.4-2.4
			c-1.8-2.2-3.7-4.4-5.5-6.6c-1.4-1.8-0.9-3,1.3-3.2c1.8-0.2,3.5-0.3,5.3-0.5c-1.7-0.6-3.5-0.7-5.2-0.9c-0.8-0.1-1.6-0.1-1.9-1.1
			c-0.4-0.9,0.1-1.6,0.6-2.2c1.3-1.6,2.6-3.2,3.9-4.8c0.8-1,1.7-1.9,2.4-3.1c-0.7,0-1,0.5-1.4,0.8c-2.1,1.8-4.2,3.7-6.4,5.5
			c-1.7,1.4-2.9,0.8-3.2-1.5c-0.3-1.7-0.1-3.5-0.7-5.2c-0.3,1.8-0.4,3.6-0.6,5.3c-0.2,2-1.6,2.6-3.1,1.4c-1.4-1.1-2.8-2.4-4.2-3.5
			C213.1,294.2,212.1,292.8,210.5,292.1z"/>
		
			<radialGradient id="SVGID_15_" cx="178.1384" cy="96.0008" r="8.0274" fx="182.305" fy="102.8622" gradientTransform="matrix(1.0195 0 0 1.0543 -8.5022 -8.0192)" gradientUnits="userSpaceOnUse">
			<stop  offset="0" style="stop-color:#FFFFFF"/>
			<stop  offset="1" style="stop-color:#FFFFFF"/>
		</radialGradient>
		<path class="st38" d="M165.3,84.9c0,0.4,0.2,0.6,0.4,0.8c1.3,1.5,2.5,3.1,3.8,4.6c0.4,0.5,0.7,1,0.4,1.7c-0.2,0.7-0.8,0.6-1.3,0.6
			c-1.2,0.1-2.3,0.2-3.5,0.3c1.1,0.3,2.2,0.5,3.3,0.6c0.6,0.1,1.3,0,1.6,0.8c0.4,0.8-0.3,1.2-0.6,1.7c-1.4,1.8-2.9,3.5-4.5,5.5
			c0.7-0.2,1-0.5,1.3-0.8c1.4-1.3,2.8-2.5,4.3-3.8c0.5-0.4,1-0.9,1.7-0.5c0.7,0.3,0.5,1,0.6,1.5c0.1,1.1,0.1,2.2,0.5,3.2
			c0.2-1.3,0.3-2.5,0.5-3.8c0.1-1,0.9-1.4,1.7-0.8c0.8,0.6,1.5,1.2,2.2,1.8c1.2,1.1,2.4,2.1,3.8,3.4c-0.2-0.8-0.6-1.2-0.9-1.6
			c-1.2-1.5-2.5-2.9-3.6-4.4c-1-1.2-0.6-2,0.9-2.2c1.2-0.1,2.4-0.2,3.5-0.3c-1.2-0.4-2.3-0.5-3.5-0.6c-0.5-0.1-1-0.1-1.3-0.7
			c-0.3-0.6,0.1-1,0.4-1.5c0.9-1.1,1.7-2.1,2.6-3.2c0.5-0.7,1.2-1.3,1.6-2.1c-0.5,0-0.7,0.3-0.9,0.5c-1.4,1.2-2.8,2.5-4.2,3.6
			c-1.1,0.9-1.9,0.5-2.1-1c-0.2-1.2-0.1-2.3-0.5-3.5c-0.2,1.2-0.3,2.4-0.4,3.6c-0.1,1.3-1,1.7-2.1,1c-1-0.7-1.8-1.6-2.8-2.4
			C167,86.2,166.4,85.3,165.3,84.9z"/>
		
			<radialGradient id="SVGID_16_" cx="824.1384" cy="264.0008" r="8.0274" fx="828.305" fy="270.8622" gradientTransform="matrix(1.0195 0 0 1.0543 -8.5022 -8.0192)" gradientUnits="userSpaceOnUse">
			<stop  offset="0" style="stop-color:#FFFFFF"/>
			<stop  offset="1" style="stop-color:#FFFFFF"/>
		</radialGradient>
		<path class="st39" d="M823.9,262c0,0.4,0.2,0.6,0.4,0.8c1.3,1.5,2.5,3.1,3.8,4.6c0.4,0.5,0.7,1,0.4,1.7c-0.2,0.7-0.8,0.6-1.3,0.6
			c-1.2,0.1-2.3,0.2-3.5,0.3c1.1,0.3,2.2,0.5,3.3,0.6c0.6,0.1,1.3,0,1.6,0.8c0.4,0.8-0.3,1.2-0.6,1.7c-1.4,1.8-2.9,3.5-4.5,5.5
			c0.7-0.2,1-0.5,1.3-0.8c1.4-1.3,2.8-2.5,4.3-3.8c0.5-0.4,1-0.9,1.7-0.5c0.7,0.3,0.5,1,0.6,1.5c0.1,1.1,0.1,2.2,0.5,3.2
			c0.2-1.3,0.3-2.5,0.5-3.8c0.1-1,0.9-1.4,1.7-0.8c0.8,0.6,1.5,1.2,2.2,1.8c1.2,1.1,2.4,2.1,3.8,3.4c-0.2-0.8-0.6-1.2-0.9-1.6
			c-1.2-1.5-2.5-2.9-3.6-4.4c-1-1.2-0.6-2,0.9-2.2c1.2-0.1,2.4-0.2,3.5-0.3c-1.2-0.4-2.3-0.5-3.5-0.6c-0.5-0.1-1-0.1-1.3-0.7
			c-0.3-0.6,0.1-1,0.4-1.5c0.9-1.1,1.7-2.1,2.6-3.2c0.5-0.7,1.2-1.3,1.6-2.1c-0.5,0-0.7,0.3-0.9,0.5c-1.4,1.2-2.8,2.5-4.2,3.6
			c-1.1,0.9-1.9,0.5-2.1-1c-0.2-1.2-0.1-2.3-0.5-3.5c-0.2,1.2-0.3,2.4-0.4,3.6c-0.1,1.3-1,1.7-2.1,1c-1-0.7-1.8-1.6-2.8-2.4
			C825.6,263.4,824.9,262.5,823.9,262z"/>
		
			<radialGradient id="SVGID_17_" cx="687.9056" cy="313.2938" r="8.0274" fx="692.0722" fy="320.1552" gradientTransform="matrix(1.0195 0 0 1.0543 -8.5022 -8.0192)" gradientUnits="userSpaceOnUse">
			<stop  offset="0" style="stop-color:#FFFFFF"/>
			<stop  offset="1" style="stop-color:#FFFFFF"/>
		</radialGradient>
		<path class="st40" d="M685,314c0,0.4,0.2,0.6,0.4,0.8c1.3,1.5,2.5,3.1,3.8,4.6c0.4,0.5,0.7,1,0.4,1.7c-0.2,0.7-0.8,0.6-1.3,0.6
			c-1.2,0.1-2.3,0.2-3.5,0.3c1.1,0.3,2.2,0.5,3.3,0.6c0.6,0.1,1.3,0,1.6,0.8c0.4,0.8-0.3,1.2-0.6,1.7c-1.4,1.8-2.9,3.5-4.5,5.5
			c0.7-0.2,1-0.5,1.3-0.8c1.4-1.3,2.8-2.5,4.3-3.8c0.5-0.4,1-0.9,1.7-0.5c0.7,0.3,0.5,1,0.6,1.5c0.1,1.1,0.1,2.2,0.5,3.2
			c0.2-1.3,0.3-2.5,0.5-3.8c0.1-1,0.9-1.4,1.7-0.8c0.8,0.6,1.5,1.2,2.2,1.8c1.2,1.1,2.4,2.1,3.8,3.4c-0.2-0.8-0.6-1.2-0.9-1.6
			c-1.2-1.5-2.5-2.9-3.6-4.4c-1-1.2-0.6-2,0.9-2.2c1.2-0.1,2.4-0.2,3.5-0.3c-1.2-0.4-2.3-0.5-3.5-0.6c-0.5-0.1-1-0.1-1.3-0.7
			c-0.3-0.6,0.1-1,0.4-1.5c0.9-1.1,1.7-2.1,2.6-3.2c0.5-0.7,1.2-1.2,1.6-2.1c-0.5,0-0.7,0.3-0.9,0.5c-1.4,1.2-2.8,2.5-4.2,3.6
			c-1.1,0.9-1.9,0.5-2.1-1c-0.2-1.2-0.1-2.3-0.5-3.5c-0.2,1.2-0.3,2.4-0.4,3.6c-0.1,1.3-1,1.7-2.1,1c-1-0.7-1.8-1.6-2.8-2.4
			C686.7,315.3,686,314.4,685,314z"/>
		
			<radialGradient id="SVGID_18_" cx="865.9056" cy="152.2938" r="8.0274" fx="870.0722" fy="159.1552" gradientTransform="matrix(1.0195 0 0 1.0543 -8.5022 -8.0192)" gradientUnits="userSpaceOnUse">
			<stop  offset="0" style="stop-color:#FFFFFF"/>
			<stop  offset="1" style="stop-color:#FFFFFF"/>
		</radialGradient>
		<path class="st41" d="M866.5,144.2c0,0.4,0.2,0.6,0.4,0.8c1.3,1.5,2.5,3.1,3.8,4.6c0.4,0.5,0.7,1,0.4,1.7
			c-0.2,0.7-0.8,0.6-1.3,0.6c-1.2,0.1-2.3,0.2-3.5,0.3c1.1,0.3,2.2,0.5,3.3,0.6c0.6,0.1,1.3,0,1.6,0.8c0.4,0.8-0.3,1.2-0.6,1.7
			c-1.4,1.8-2.9,3.5-4.5,5.5c0.7-0.2,1-0.5,1.3-0.8c1.4-1.3,2.8-2.5,4.3-3.8c0.5-0.4,1-0.9,1.7-0.5c0.7,0.3,0.5,1,0.6,1.5
			c0.1,1.1,0.1,2.2,0.5,3.2c0.2-1.3,0.3-2.5,0.5-3.8c0.1-1,0.9-1.4,1.7-0.8c0.8,0.6,1.5,1.2,2.2,1.8c1.2,1.1,2.4,2.1,3.8,3.4
			c-0.2-0.8-0.6-1.2-0.9-1.6c-1.2-1.5-2.5-2.9-3.6-4.4c-1-1.2-0.6-2,0.9-2.2c1.2-0.1,2.4-0.2,3.5-0.3c-1.2-0.4-2.3-0.5-3.5-0.6
			c-0.5-0.1-1-0.1-1.3-0.7c-0.3-0.6,0.1-1,0.4-1.5c0.9-1.1,1.7-2.1,2.6-3.2c0.5-0.7,1.2-1.2,1.6-2.1c-0.5,0-0.7,0.3-0.9,0.5
			c-1.4,1.2-2.8,2.5-4.2,3.6c-1.1,0.9-1.9,0.5-2.1-1c-0.2-1.2-0.1-2.3-0.5-3.5c-0.2,1.2-0.3,2.4-0.4,3.6c-0.1,1.3-1,1.7-2.1,1
			c-1-0.7-1.8-1.6-2.8-2.4C868.2,145.6,867.5,144.7,866.5,144.2z"/>
		
			<radialGradient id="SVGID_19_" cx="334.2291" cy="203.5135" r="8.0274" fx="338.3958" fy="210.3748" gradientTransform="matrix(1.0195 0 0 1.0543 -8.5022 -8.0192)" gradientUnits="userSpaceOnUse">
			<stop  offset="0" style="stop-color:#FFFFFF"/>
			<stop  offset="1" style="stop-color:#FFFFFF"/>
		</radialGradient>
		<path class="st42" d="M324.4,198.2c0,0.4,0.2,0.6,0.4,0.8c1.3,1.5,2.5,3.1,3.8,4.6c0.4,0.5,0.7,1,0.4,1.7
			c-0.2,0.7-0.8,0.6-1.3,0.6c-1.2,0.1-2.3,0.2-3.5,0.3c1.1,0.3,2.2,0.5,3.3,0.6c0.6,0.1,1.3,0,1.6,0.8c0.4,0.8-0.3,1.2-0.6,1.7
			c-1.4,1.8-2.9,3.5-4.5,5.5c0.7-0.2,1-0.5,1.3-0.8c1.4-1.3,2.8-2.5,4.3-3.8c0.5-0.4,1-0.9,1.7-0.5c0.7,0.3,0.5,1,0.6,1.5
			c0.1,1.1,0.1,2.2,0.5,3.2c0.2-1.3,0.3-2.5,0.5-3.8c0.1-1,0.9-1.4,1.7-0.8c0.8,0.6,1.5,1.2,2.2,1.8c1.2,1.1,2.4,2.1,3.8,3.4
			c-0.2-0.8-0.6-1.2-0.9-1.6c-1.2-1.5-2.5-2.9-3.6-4.4c-1-1.2-0.6-2,0.9-2.2c1.2-0.1,2.4-0.2,3.5-0.3c-1.2-0.4-2.3-0.5-3.5-0.6
			c-0.5-0.1-1-0.1-1.3-0.7c-0.3-0.6,0.1-1,0.4-1.5c0.9-1.1,1.7-2.1,2.6-3.2c0.5-0.7,1.2-1.3,1.6-2.1c-0.5,0-0.7,0.3-0.9,0.5
			c-1.4,1.2-2.8,2.5-4.2,3.6c-1.1,0.9-1.9,0.5-2.1-1c-0.2-1.2-0.1-2.3-0.5-3.5c-0.2,1.2-0.3,2.4-0.4,3.6c-0.1,1.3-1,1.7-2.1,1
			c-1-0.7-1.8-1.6-2.8-2.4C326.2,199.6,325.5,198.7,324.4,198.2z"/>
		
			<radialGradient id="SVGID_20_" cx="50.2291" cy="266.5135" r="8.0274" fx="54.3957" fy="273.3748" gradientTransform="matrix(1.0195 0 0 1.0543 -8.5022 -8.0192)" gradientUnits="userSpaceOnUse">
			<stop  offset="0" style="stop-color:#FFFFFF"/>
			<stop  offset="1" style="stop-color:#FFFFFF"/>
		</radialGradient>
		<path class="st43" d="M34.9,264.6c0,0.4,0.2,0.6,0.4,0.8c1.3,1.5,2.5,3.1,3.8,4.6c0.4,0.5,0.7,1,0.4,1.7c-0.2,0.7-0.8,0.6-1.3,0.6
			c-1.2,0.1-2.3,0.2-3.5,0.3c1.1,0.3,2.2,0.5,3.3,0.6c0.6,0.1,1.3,0,1.6,0.8c0.4,0.8-0.3,1.2-0.6,1.7c-1.4,1.8-2.9,3.5-4.5,5.5
			c0.7-0.2,1-0.5,1.3-0.8c1.4-1.3,2.8-2.5,4.3-3.8c0.5-0.4,1-0.9,1.7-0.5c0.7,0.3,0.5,1,0.6,1.5c0.1,1.1,0.1,2.2,0.5,3.2
			c0.2-1.3,0.3-2.5,0.5-3.8c0.1-1,0.9-1.4,1.7-0.8c0.8,0.6,1.5,1.2,2.2,1.8c1.2,1.1,2.4,2.1,3.8,3.4c-0.2-0.8-0.6-1.2-0.9-1.6
			c-1.2-1.5-2.5-2.9-3.6-4.4c-1-1.2-0.6-2,0.9-2.2c1.2-0.1,2.4-0.2,3.5-0.3c-1.2-0.4-2.3-0.5-3.5-0.6c-0.5-0.1-1-0.1-1.3-0.7
			c-0.3-0.6,0.1-1,0.4-1.5c0.9-1.1,1.7-2.1,2.6-3.2c0.5-0.7,1.2-1.2,1.6-2.1c-0.5,0-0.7,0.3-0.9,0.5c-1.4,1.2-2.8,2.5-4.2,3.6
			c-1.1,0.9-1.9,0.5-2.1-1c-0.2-1.2-0.1-2.3-0.5-3.5c-0.2,1.2-0.3,2.4-0.4,3.6c-0.1,1.3-1,1.7-2.1,1c-1-0.7-1.8-1.6-2.8-2.4
			C36.6,266,36,265.1,34.9,264.6z"/>
		
			<radialGradient id="SVGID_21_" cx="371.4192" cy="141.7391" r="8.0274" fx="375.5858" fy="148.6005" gradientTransform="matrix(1.0195 0 0 1.0543 -8.5022 -8.0192)" gradientUnits="userSpaceOnUse">
			<stop  offset="0" style="stop-color:#FFFFFF"/>
			<stop  offset="1" style="stop-color:#FFFFFF"/>
		</radialGradient>
		<path class="st44" d="M362.4,133.1c0,0.4,0.2,0.6,0.4,0.8c1.3,1.5,2.5,3.1,3.8,4.6c0.4,0.5,0.7,1,0.4,1.7
			c-0.2,0.7-0.8,0.6-1.3,0.6c-1.2,0.1-2.3,0.2-3.5,0.3c1.1,0.3,2.2,0.5,3.3,0.6c0.6,0.1,1.3,0,1.6,0.8c0.4,0.8-0.3,1.2-0.6,1.7
			c-1.4,1.8-2.9,3.5-4.5,5.5c0.7-0.2,1-0.5,1.3-0.8c1.4-1.3,2.8-2.5,4.3-3.8c0.5-0.4,1-0.9,1.7-0.5c0.7,0.3,0.5,1,0.6,1.5
			c0.1,1.1,0.1,2.2,0.5,3.2c0.2-1.3,0.3-2.5,0.5-3.8c0.1-1,0.9-1.4,1.7-0.8c0.8,0.6,1.5,1.2,2.2,1.8c1.2,1.1,2.4,2.1,3.8,3.4
			c-0.2-0.8-0.6-1.2-0.9-1.6c-1.2-1.5-2.5-2.9-3.6-4.4c-1-1.2-0.6-2,0.9-2.2c1.2-0.1,2.4-0.2,3.5-0.3c-1.2-0.4-2.3-0.5-3.5-0.6
			c-0.5-0.1-1-0.1-1.3-0.7c-0.3-0.6,0.1-1,0.4-1.5c0.9-1.1,1.7-2.1,2.6-3.2c0.5-0.7,1.2-1.3,1.6-2.1c-0.5,0-0.7,0.3-0.9,0.5
			c-1.4,1.2-2.8,2.5-4.2,3.6c-1.1,0.9-1.9,0.5-2.1-1c-0.2-1.2-0.1-2.3-0.5-3.5c-0.2,1.2-0.3,2.4-0.4,3.6c-0.1,1.3-1,1.7-2.1,1
			c-1-0.7-1.8-1.6-2.8-2.4C364.1,134.5,363.4,133.6,362.4,133.1z"/>
		
			<radialGradient id="SVGID_22_" cx="453.4192" cy="22.7391" r="8.0274" fx="457.5858" fy="29.6005" gradientTransform="matrix(1.0195 0 0 1.0543 -8.5022 -8.0192)" gradientUnits="userSpaceOnUse">
			<stop  offset="0" style="stop-color:#FFFFFF"/>
			<stop  offset="1" style="stop-color:#FFFFFF"/>
		</radialGradient>
		<path class="st45" d="M445.9,7.6c0,0.4,0.2,0.6,0.4,0.8c1.3,1.5,2.5,3.1,3.8,4.6c0.4,0.5,0.7,1,0.4,1.7c-0.2,0.7-0.8,0.6-1.3,0.6
			c-1.2,0.1-2.3,0.2-3.5,0.3c1.1,0.3,2.2,0.5,3.3,0.6c0.6,0.1,1.3,0,1.6,0.8c0.4,0.8-0.3,1.2-0.6,1.7c-1.4,1.8-2.9,3.5-4.5,5.5
			c0.7-0.2,1-0.5,1.3-0.8c1.4-1.3,2.8-2.5,4.3-3.8c0.5-0.4,1-0.9,1.7-0.5c0.7,0.3,0.5,1,0.6,1.5c0.1,1.1,0.1,2.2,0.5,3.2
			c0.2-1.3,0.3-2.5,0.5-3.8c0.1-1,0.9-1.4,1.7-0.8c0.8,0.6,1.5,1.2,2.2,1.8c1.2,1.1,2.4,2.1,3.8,3.4c-0.2-0.8-0.6-1.2-0.9-1.6
			c-1.2-1.5-2.5-2.9-3.6-4.4c-1-1.2-0.6-2,0.9-2.2c1.2-0.1,2.4-0.2,3.5-0.3c-1.2-0.4-2.3-0.5-3.5-0.6c-0.5-0.1-1-0.1-1.3-0.7
			c-0.3-0.6,0.1-1,0.4-1.5c0.9-1.1,1.7-2.1,2.6-3.2c0.5-0.7,1.2-1.3,1.6-2.1c-0.5,0-0.7,0.3-0.9,0.5c-1.4,1.2-2.8,2.5-4.2,3.6
			c-1.1,0.9-1.9,0.5-2.1-1c-0.2-1.2-0.1-2.3-0.5-3.5c-0.2,1.2-0.3,2.4-0.4,3.6c-0.1,1.3-1,1.7-2.1,1c-1-0.7-1.8-1.6-2.8-2.4
			C447.7,9,447,8.1,445.9,7.6z"/>
		<polygon class="st29" points="897.6,-59.1 881.2,-65.9 778.3,200.6 731.1,200.6 731.1,222.9 844.3,222.9 844.3,200.6 797.3,200.6 
					"/>
		<g>
			<path class="st30" d="M710.9,3.7l53.5,32.8c0,0,63.1-16.9,66.6-20.4c3.5-3.5,11.4-16,15.8-16.9c4.4-0.9,7.9,1.8,7,3.5
				s-4.4,7.1,1.8,7.1s18.4,1.8,16.7,9.8c-1.8,8-6.1,23.1-17.5,22.2c-11.4-0.9-6.1-4.4-24.5,3.5s-59.6,22.2-71,21.3
				c-11.4-0.9-63-16.7-73.5-22.1S710.9,3.7,710.9,3.7z"/>
			<path class="st29" d="M667.1,37.4c15.2,12.1,26.3,9.8,26.3,9.8s10.5-13.3,15.8-21.3c5.3-8,7.9-20.4,7.9-20.4L701.3-15
				c0,0-7.4-9.8-28.7-9.8S628.7,6.7,667.1,37.4z"/>
		</g>
	</g>
</g>
</svg>
