<?xml version="1.0" encoding="utf-8"?>
<!-- Generator: Adobe Illustrator 22.1.0, SVG Export Plug-In . SVG Version: 6.00 Build 0)  -->
<svg version="1.1" id="Layer_1" xmlns="http://www.w3.org/2000/svg" xmlns:xlink="http://www.w3.org/1999/xlink" x="0px" y="0px"
	 viewBox="0 0 600 200" style="enable-background:new 0 0 600 200;" xml:space="preserve">
<style type="text/css">
	.st0{clip-path:url(#SVGID_2_);}
	.st1{fill:#FBEEC3;}
	.st2{fill:#60974D;}
	.st3{clip-path:url(#SVGID_4_);fill:none;stroke:#FFFFFF;stroke-width:3.9133;stroke-miterlimit:10;}
	.st4{opacity:0.2;}
	.st5{fill:#FFFFFF;}
	.st6{fill:none;stroke:#000000;stroke-width:2.089;stroke-miterlimit:10;}
	.st7{clip-path:url(#SVGID_6_);}
	.st8{fill:none;stroke:#FFFFFF;stroke-width:1.9222;stroke-miterlimit:10;}
	.st9{clip-path:url(#SVGID_6_);fill:none;stroke:#FFFFFF;stroke-width:1.9222;stroke-miterlimit:10;}
	.st10{fill:#371B0C;}
	.st11{fill:#5B3525;}
	.st12{fill:#C87134;}
	.st13{fill:#7CB362;}
	.st14{fill:#ABD197;}
	.st15{fill:#E27F3B;}
	.st16{fill:#FFB94A;}
	.st17{fill:#FFE2C0;}
	.st18{fill:#F2A922;}
	.st19{opacity:0.6;fill:#C87134;}
	.st20{fill:none;stroke:#DDA166;stroke-width:0.3718;stroke-miterlimit:10;}
	.st21{opacity:0.5;fill:#C87134;}
	.st22{fill:#9A2A00;}
	.st23{opacity:0.6;fill:#FFE2C0;}
	.st24{fill:#FF5E30;}
	.st25{opacity:0.5;fill:#C93C1B;}
	.st26{fill:#FFD427;}
	.st27{fill:#FFEEAB;}
	.st28{clip-path:url(#SVGID_8_);fill:none;stroke:#E2AA20;stroke-width:0.9092;stroke-miterlimit:10;}
	.st29{clip-path:url(#SVGID_10_);fill:none;stroke:#E2AA20;stroke-width:0.9092;stroke-miterlimit:10;}
	.st30{clip-path:url(#SVGID_12_);fill:none;stroke:#E2AA20;stroke-width:0.9092;stroke-miterlimit:10;}
	.st31{fill:#FFAD2E;}
	.st32{opacity:0.3;}
	.st33{clip-path:url(#SVGID_14_);fill:#FFEEAB;}
	.st34{fill:#E29127;}
	.st35{clip-path:url(#SVGID_16_);fill:#FFEEAB;}
	.st36{clip-path:url(#SVGID_18_);fill:#FFEEAB;}
	.st37{fill:#8C8C8C;}
	.st38{clip-path:url(#SVGID_20_);}
	.st39{opacity:0.7;}
	.st40{opacity:0.4;}
	.st41{fill:#CC4415;}
	.st42{fill:none;stroke:#A00808;stroke-width:1.3309;stroke-linecap:round;stroke-linejoin:round;stroke-miterlimit:10;}
	.st43{opacity:0.4;fill:#E2E2E2;}
	.st44{fill:#481000;}
	.st45{opacity:0.2;fill:#FFFFFF;}
	.st46{fill:#E7FFD5;stroke:#096B00;stroke-width:2.3506;stroke-miterlimit:10;}
	.st47{fill:#55843D;}
	.st48{fill:#E7FFD5;stroke:#096B00;stroke-width:1.95;stroke-miterlimit:10;}
	.st49{fill:#CE4F00;}
	.st50{opacity:0.6;fill:#E18200;}
	.st51{fill:none;stroke:#481000;stroke-width:0.9861;stroke-miterlimit:10;}
	.st52{fill:none;stroke:#FFDA6D;stroke-width:2.4283;stroke-linecap:round;stroke-linejoin:round;stroke-miterlimit:10;}
	.st53{fill:#BC8020;}
	.st54{fill:#E7FFD5;stroke:#096B00;stroke-width:1.2851;stroke-miterlimit:10;}
	.st55{fill:#FEF3D8;}
	.st56{fill:#D89739;}
	.st57{fill:none;stroke:#FFB637;stroke-width:2.0135;stroke-linecap:round;stroke-miterlimit:10;}
	.st58{fill:#BC5B1B;}
	.st59{fill:#893A0E;}
</style>
<g>
	<defs>
		<rect id="SVGID_1_" x="-0.5" y="0.5" width="600" height="200"/>
	</defs>
	<clipPath id="SVGID_2_">
		<use xlink:href="#SVGID_1_"  style="overflow:visible;"/>
	</clipPath>
	<g class="st0">
		<rect x="-33.4" y="-29.8" class="st1" width="668.3" height="229.8"/>
		<g>
			
				<rect x="387.1" y="54.7" transform="matrix(-0.8679 -0.4968 0.4968 -0.8679 870.9817 565.4469)" class="st2" width="247.2" height="224.4"/>
			<g>
				<defs>
					
						<rect id="SVGID_3_" x="386.9" y="54.2" transform="matrix(-0.8679 -0.4968 0.4968 -0.8679 870.8757 564.3503)" width="247.2" height="224.4"/>
				</defs>
				<clipPath id="SVGID_4_">
					<use xlink:href="#SVGID_3_"  style="overflow:visible;"/>
				</clipPath>
				<path class="st3" d="M605.8,276.5c0,0-54.9-35.9-78.8-53.1s-67.9-37-93.7-53.7c-25.8-16.6-58.1-34.6-58.1-34.6"/>
				<path class="st3" d="M582.2,323.9c0,0-54.9-35.9-78.8-53.1s-67.9-37-93.7-53.7c-25.8-16.6-58.1-34.6-58.1-34.6"/>
				<path class="st3" d="M407.5,91.4c0,0,32.3,17.9,58.1,34.6s69.7,36.5,93.7,53.7s78.8,53.1,78.8,53.1"/>
				<path class="st3" d="M432.5,42.5c0,0,32.3,17.9,58.1,34.6c25.8,16.6,69.7,36.5,93.7,53.7c23.9,17.1,78.8,53.1,78.8,53.1"/>
			</g>
			<g>
				<path class="st4" d="M523.3,155.4c-1.3-3.9-4.4-6.6-8.1-7.4c0.7-3.7-0.4-7.7-3.5-10.4c-3-2.7-7.1-3.5-10.7-2.4
					c-1.2-3.6-4.2-6.4-8.2-7.3c-4-0.8-7.9,0.6-10.5,3.3c-2.9-2.5-6.9-3.5-10.8-2.2c-3.9,1.3-6.6,4.4-7.4,8.1
					c-3.7-0.7-7.7,0.4-10.4,3.5c-2.7,3-3.5,7.1-2.4,10.7c-3.6,1.2-6.4,4.2-7.3,8.2c-0.8,4,0.6,7.9,3.3,10.5
					c-2.5,2.9-3.5,6.9-2.2,10.8c1.3,3.9,4.4,6.6,8.1,7.4c-0.7,3.7,0.4,7.7,3.5,10.4c3,2.7,7.1,3.5,10.7,2.4c1.2,3.6,4.2,6.4,8.2,7.3
					c4,0.8,7.9-0.6,10.5-3.3c2.9,2.5,6.9,3.5,10.8,2.2c3.9-1.3,6.6-4.4,7.4-8.1c3.7,0.7,7.7-0.4,10.4-3.5c2.7-3,3.5-7.1,2.4-10.7
					c3.6-1.2,6.4-4.2,7.3-8.2c0.8-4-0.5-7.9-3.3-10.5C523.6,163.3,524.6,159.2,523.3,155.4z"/>
				<g>
					<path class="st5" d="M517.6,156.2c-1.3-3.9-4.4-6.6-8.1-7.4c0.7-3.7-0.4-7.7-3.5-10.4c-3-2.7-7.1-3.5-10.7-2.4
						c-1.2-3.6-4.2-6.4-8.2-7.3c-4-0.8-7.9,0.6-10.5,3.3c-2.9-2.5-6.9-3.5-10.8-2.2c-3.9,1.3-6.6,4.4-7.4,8.1
						c-3.7-0.7-7.7,0.4-10.4,3.5c-2.7,3-3.5,7.1-2.4,10.7c-3.6,1.2-6.4,4.2-7.3,8.2c-0.8,4,0.6,7.9,3.3,10.5
						c-2.5,2.9-3.5,6.9-2.2,10.8s4.4,6.6,8.1,7.4c-0.7,3.7,0.4,7.7,3.5,10.4c3,2.7,7.1,3.5,10.7,2.4c1.2,3.6,4.2,6.4,8.2,7.3
						c4,0.8,7.9-0.6,10.5-3.3c2.9,2.5,6.9,3.5,10.8,2.2c3.9-1.3,6.6-4.4,7.4-8.1c3.7,0.7,7.7-0.4,10.4-3.5c2.7-3,3.5-7.1,2.4-10.7
						c3.6-1.2,6.4-4.2,7.3-8.2c0.8-4-0.5-7.9-3.3-10.5C517.8,164.1,518.8,160.1,517.6,156.2z"/>
					<g class="st4">
						<path class="st6" d="M469.9,131c0,0-6.9,1.6-4.5,8.9c2.4,7.2,8.7,4,8.7,4"/>
						<path class="st6" d="M487.1,206.8c0,0,6.9-1.6,4.5-8.9c-2.4-7.2-8.7-4-8.7-4"/>
						<path class="st6" d="M473.1,150.9c0,0-6.9,1.6-4.5,8.9c2.4,7.2,8.7,4,8.7,4"/>
						<path class="st6" d="M481,187.9c0,0,6.9-1.6,4.5-8.9c-2.4-7.2-8.7-4-8.7-4"/>
						<path class="st6" d="M461.1,159.1c0,0-3.7,6,3.1,9.5c6.8,3.5,8.9-3.3,8.9-3.3"/>
						<path class="st6" d="M492.9,179.7c0,0,3.7-6-3.1-9.5c-6.8-3.5-8.9,3.3-8.9,3.3"/>
						<path class="st6" d="M458.5,173.4c0,0,1.6,6.9,8.9,4.5c7.2-2.4,4-8.7,4-8.7"/>
						<path class="st6" d="M495.5,165.4c0,0-1.6-6.9-8.9-4.5c-7.2,2.4-4,8.7-4,8.7"/>
						<path class="st6" d="M466.7,185.3c0,0,6,3.7,9.5-3.1c3.5-6.8-3.3-8.9-3.3-8.9"/>
						<path class="st6" d="M487.3,153.5c0,0-6-3.7-9.5,3.1c-3.5,6.8,3.3,8.9,3.3,8.9"/>
						<path class="st6" d="M452.1,140.4c0,0-5.1,4.8,0.5,9.9c5.7,5.1,9.5-0.9,9.5-0.9"/>
						<path class="st6" d="M504.9,197.4c0,0,5.1-4.8-0.5-9.9s-9.5,0.9-9.5,0.9"/>
						<path class="st6" d="M441.4,157.4c0,0-2,6.8,5.4,8.3c7.4,1.6,7.8-5.5,7.8-5.5"/>
						<path class="st6" d="M515.6,180.4c0,0,2-6.8-5.4-8.3c-7.4-1.6-7.8,5.5-7.8,5.5"/>
						<path class="st6" d="M440.6,177.5c0,0,1.6,6.9,8.9,4.5c7.2-2.4,4-8.7,4-8.7"/>
						<path class="st6" d="M516.4,160.3c0,0-1.6-6.9-8.9-4.5c-7.2,2.4-4,8.7-4,8.7"/>
						<path class="st6" d="M450,195.3c0,0,4.8,5.1,9.9-0.5c5.1-5.7-0.9-9.5-0.9-9.5"/>
						<path class="st6" d="M507,142.5c0,0-4.8-5.1-9.9,0.5s0.9,9.5,0.9,9.5"/>
						<path class="st6" d="M467,206c0,0,6.8,2,8.3-5.4c1.6-7.4-5.5-7.8-5.5-7.8"/>
						<path class="st6" d="M490,131.8c0,0-6.8-2-8.3,5.4c-1.6,7.4,5.5,7.8,5.5,7.8"/>
					</g>
				</g>
			</g>
		</g>
		<g>
			
				<rect x="131.7" y="-166.9" transform="matrix(-0.5397 0.8419 -0.8419 -0.5397 342.0926 -300.3777)" class="st2" width="242.8" height="220.4"/>
			<g>
				<defs>
					
						<rect id="SVGID_5_" x="132.7" y="-167.1" transform="matrix(-0.5397 0.8419 -0.8419 -0.5397 343.3654 -301.4843)" width="242.8" height="220.4"/>
				</defs>
				<clipPath id="SVGID_6_">
					<use xlink:href="#SVGID_5_"  style="overflow:visible;"/>
				</clipPath>
				<g class="st7">
					<path class="st8" d="M151.1-108.9c0,0,51.9,37.3,74.5,55s64.6,39,89,56.3s55.1,36.2,55.1,36.2"/>
					<path class="st8" d="M153.7-115.3c0,0,51.9,37.3,74.5,55s64.6,39,89,56.3c24.4,17.3,55.1,36.2,55.1,36.2"/>
					<path class="st8" d="M122.6-59.4c0,0,51.9,37.3,74.5,55s64.6,39,89,56.3c24.4,17.3,55.1,36.2,55.1,36.2"/>
					<path class="st8" d="M125.1-65.8c0,0,51.9,37.3,74.5,55s64.6,39,89,56.3s55.1,36.2,55.1,36.2"/>
				</g>
				<g class="st7">
					<path class="st8" d="M209-195.3c0,0,51.9,37.3,74.5,55c22.6,17.7,64.6,39,89,56.3s55.1,36.2,55.1,36.2"/>
					<path class="st8" d="M211.5-201.8c0,0,51.9,37.3,74.5,55c22.6,17.7,64.6,39,89,56.3s55.1,36.2,55.1,36.2"/>
					<path class="st8" d="M180.5-145.8c0,0,51.9,37.3,74.5,55s64.6,39,89,56.3c24.4,17.3,55.1,36.2,55.1,36.2"/>
					<path class="st8" d="M183-152.2c0,0,51.9,37.3,74.5,55s64.6,39,89,56.3s55.1,36.2,55.1,36.2"/>
				</g>
				<path class="st9" d="M378.4-157.6c0,0-38,52.1-56,74.7s-39.7,64.8-57.3,89.3s-36.8,55.3-36.8,55.3"/>
				<path class="st9" d="M384.9-155.1c0,0-38,52.1-56,74.7c-18,22.6-39.7,64.8-57.3,89.3s-36.8,55.3-36.8,55.3"/>
				<path class="st9" d="M178.3,33.2c0,0,19.2-30.8,36.8-55.3s39.3-66.6,57.3-89.3s56-74.7,56-74.7"/>
				<path class="st9" d="M184.8,35.8c0,0,19.2-30.8,36.8-55.3s39.3-66.6,57.3-89.3c18-22.6,56-74.7,56-74.7"/>
				<path class="st9" d="M128.7,13.6c0,0,19.2-30.8,36.8-55.3s39.3-66.6,57.3-89.3s56-74.7,56-74.7"/>
				<path class="st9" d="M135.3,16.1c0,0,19.2-30.8,36.8-55.3s39.3-66.6,57.3-89.3s56-74.7,56-74.7"/>
			</g>
			<g>
				<path class="st4" d="M305.7,23.5c4-0.9,7-3.8,8.2-7.3c3.6,1.1,7.7,0.3,10.7-2.4c3-2.7,4.2-6.7,3.4-10.4c3.7-0.9,6.8-3.6,8.1-7.5
					c1.2-3.9,0.2-7.9-2.3-10.7c2.8-2.6,4.1-6.5,3.3-10.5s-3.8-7-7.3-8.2c1.1-3.6,0.3-7.7-2.4-10.7c-2.7-3-6.7-4.2-10.4-3.4
					c-0.9-3.7-3.6-6.8-7.5-8.1c-3.9-1.2-7.9-0.2-10.7,2.3c-2.6-2.8-6.5-4.1-10.5-3.3s-7,3.8-8.2,7.3c-3.6-1.1-7.7-0.3-10.7,2.4
					c-3,2.7-4.2,6.7-3.4,10.4c-3.7,0.9-6.8,3.6-8.1,7.5c-1.2,3.9-0.2,7.9,2.3,10.7c-2.8,2.6-4.1,6.5-3.3,10.5c0.9,4,3.8,7,7.3,8.2
					c-1.1,3.6-0.3,7.7,2.4,10.7c2.7,3,6.7,4.2,10.4,3.4c0.9,3.7,3.6,6.8,7.5,8.1c3.9,1.2,7.9,0.2,10.7-2.3
					C297.8,23,301.7,24.3,305.7,23.5z"/>
				<g>
					<path class="st5" d="M305.4,17.6c4-0.9,7-3.8,8.2-7.3c3.6,1.1,7.7,0.3,10.7-2.4c3-2.7,4.2-6.7,3.4-10.4
						c3.7-0.9,6.8-3.6,8.1-7.5c1.2-3.9,0.2-7.9-2.3-10.7c2.8-2.6,4.1-6.5,3.3-10.5s-3.8-7-7.3-8.2c1.1-3.6,0.3-7.7-2.4-10.7
						c-2.7-3-6.7-4.2-10.4-3.4c-0.9-3.7-3.6-6.8-7.5-8.1c-3.9-1.2-7.9-0.2-10.7,2.3c-2.6-2.8-6.5-4.1-10.5-3.3c-4,0.9-7,3.8-8.2,7.3
						c-3.6-1.1-7.7-0.3-10.7,2.4c-3,2.7-4.2,6.7-3.4,10.4c-3.7,0.9-6.8,3.6-8.1,7.5c-1.2,3.9-0.2,7.9,2.3,10.7
						c-2.8,2.6-4.1,6.5-3.3,10.5s3.8,7,7.3,8.2c-1.1,3.6-0.3,7.7,2.4,10.7c2.7,3,6.7,4.2,10.4,3.4c0.9,3.7,3.6,6.8,7.5,8.1
						c3.9,1.2,7.9,0.2,10.7-2.3C297.5,17.1,301.4,18.5,305.4,17.6z"/>
					<g class="st4">
						<path class="st6" d="M335.2-27.3c0,0-0.9-7-8.4-5.4c-7.4,1.6-4.8,8.2-4.8,8.2"/>
						<path class="st6" d="M258.1-17.6c0,0,0.9,7,8.4,5.4s4.8-8.2,4.8-8.2"/>
						<path class="st6" d="M315.1-26.1c0,0-0.9-7-8.4-5.4c-7.4,1.6-4.8,8.2-4.8,8.2"/>
						<path class="st6" d="M277.5-21.9c0,0,0.9,7,8.4,5.4c7.4-1.6,4.8-8.2,4.8-8.2"/>
						<path class="st6" d="M308.1-38.8c0,0-5.6-4.3-9.7,2.1c-4.1,6.4,2.4,9.2,2.4,9.2"/>
						<path class="st6" d="M284.5-9.2c0,0,5.6,4.3,9.7-2.1s-2.4-9.2-2.4-9.2"/>
						<path class="st6" d="M294.2-42.8c0,0-7,0.9-5.4,8.4s8.2,4.8,8.2,4.8"/>
						<path class="st6" d="M298.4-5.2c0,0,7-0.9,5.4-8.4c-1.6-7.4-8.2-4.8-8.2-4.8"/>
						<path class="st6" d="M281.5-35.8c0,0-4.3,5.6,2.1,9.7s9.2-2.4,9.2-2.4"/>
						<path class="st6" d="M311.1-12.2c0,0,4.3-5.6-2.1-9.7s-9.2,2.4-9.2,2.4"/>
						<path class="st6" d="M327.6-45.9c0,0-4.3-5.6-9.9-0.5c-5.6,5.1,0,9.5,0,9.5"/>
						<path class="st6" d="M265.7,1c0,0,4.3,5.6,9.9,0.5c5.6-5.1,0-9.5,0-9.5"/>
						<path class="st6" d="M311.7-58.3c0,0-6.5-2.7-8.8,4.6c-2.3,7.3,4.7,8.3,4.7,8.3"/>
						<path class="st6" d="M281.5,13.3c0,0,6.5,2.7,8.8-4.6c2.3-7.3-4.7-8.3-4.7-8.3"/>
						<path class="st6" d="M291.8-61c0,0-7,0.9-5.4,8.4s8.2,4.8,8.2,4.8"/>
						<path class="st6" d="M301.5,16c0,0,7-0.9,5.4-8.4s-8.2-4.8-8.2-4.8"/>
						<path class="st6" d="M273.2-53.4c0,0-5.6,4.3-0.5,9.9c5.1,5.6,9.5,0,9.5,0"/>
						<path class="st6" d="M320.1,8.5c0,0,5.6-4.3,0.5-9.9c-5.1-5.6-9.5,0-9.5,0"/>
						<path class="st6" d="M260.8-37.6c0,0-2.7,6.5,4.6,8.8s8.3-4.7,8.3-4.7"/>
						<path class="st6" d="M332.4-7.4c0,0,2.7-6.5-4.6-8.8s-8.3,4.7-8.3,4.7"/>
					</g>
				</g>
			</g>
			<g>
				<path class="st4" d="M289,1.9c-1.3-3.9-4.4-6.6-8.1-7.4c0.7-3.7-0.4-7.7-3.5-10.4c-3-2.7-7.1-3.5-10.7-2.4
					c-1.2-3.6-4.2-6.4-8.2-7.3c-4-0.8-7.9,0.6-10.5,3.3c-2.9-2.5-6.9-3.5-10.8-2.2s-6.6,4.4-7.4,8.1c-3.7-0.7-7.7,0.4-10.4,3.5
					c-2.7,3-3.5,7.1-2.4,10.7c-3.6,1.2-6.4,4.2-7.3,8.2c-0.8,4,0.6,7.9,3.3,10.5c-2.5,2.9-3.5,6.9-2.2,10.8c1.3,3.9,4.4,6.6,8.1,7.4
					c-0.7,3.7,0.4,7.7,3.5,10.4c3,2.7,7.1,3.5,10.7,2.4c1.2,3.6,4.2,6.4,8.2,7.3c4,0.8,7.9-0.6,10.5-3.3c2.9,2.5,6.9,3.5,10.8,2.2
					c3.9-1.3,6.6-4.4,7.4-8.1c3.7,0.7,7.7-0.4,10.4-3.5c2.7-3,3.5-7.1,2.4-10.7c3.6-1.2,6.4-4.2,7.3-8.2c0.8-4-0.5-7.9-3.3-10.5
					C289.3,9.8,290.3,5.8,289,1.9z"/>
				<g>
					<path class="st5" d="M283.3,2.8c-1.3-3.9-4.4-6.6-8.1-7.4c0.7-3.7-0.4-7.7-3.5-10.4c-3-2.7-7.1-3.5-10.7-2.4
						c-1.2-3.6-4.2-6.4-8.2-7.3c-4-0.8-7.9,0.6-10.5,3.3c-2.9-2.5-6.9-3.5-10.8-2.2s-6.6,4.4-7.4,8.1c-3.7-0.7-7.7,0.4-10.4,3.5
						c-2.7,3-3.5,7.1-2.4,10.7c-3.6,1.2-6.4,4.2-7.3,8.2c-0.8,4,0.6,7.9,3.3,10.5c-2.5,2.9-3.5,6.9-2.2,10.8
						c1.3,3.9,4.4,6.6,8.1,7.4c-0.7,3.7,0.4,7.7,3.5,10.4c3,2.7,7.1,3.5,10.7,2.4c1.2,3.6,4.2,6.4,8.2,7.3c4,0.8,7.9-0.6,10.5-3.3
						c2.9,2.5,6.9,3.5,10.8,2.2c3.9-1.3,6.6-4.4,7.4-8.1c3.7,0.7,7.7-0.4,10.4-3.5c2.7-3,3.5-7.1,2.4-10.7c3.6-1.2,6.4-4.2,7.3-8.2
						c0.8-4-0.5-7.9-3.3-10.5C283.5,10.7,284.5,6.6,283.3,2.8z"/>
					<g class="st4">
						<path class="st6" d="M235.6-22.4c0,0-6.9,1.6-4.5,8.9s8.7,4,8.7,4"/>
						<path class="st6" d="M252.8,53.3c0,0,6.9-1.6,4.5-8.9s-8.7-4-8.7-4"/>
						<path class="st6" d="M238.8-2.6c0,0-6.9,1.6-4.5,8.9s8.7,4,8.7,4"/>
						<path class="st6" d="M246.7,34.4c0,0,6.9-1.6,4.5-8.9s-8.7-4-8.7-4"/>
						<path class="st6" d="M226.8,5.6c0,0-3.7,6,3.1,9.5s8.9-3.3,8.9-3.3"/>
						<path class="st6" d="M258.6,26.2c0,0,3.7-6-3.1-9.5s-8.9,3.3-8.9,3.3"/>
						<path class="st6" d="M224.2,19.9c0,0,1.6,6.9,8.9,4.5s4-8.7,4-8.7"/>
						<path class="st6" d="M261.2,12c0,0-1.6-6.9-8.9-4.5s-4,8.7-4,8.7"/>
						<path class="st6" d="M232.4,31.8c0,0,6,3.7,9.5-3.1c3.5-6.8-3.3-8.9-3.3-8.9"/>
						<path class="st6" d="M253,0c0,0-6-3.7-9.5,3.1c-3.5,6.8,3.3,8.9,3.3,8.9"/>
						<path class="st6" d="M217.8-13.1c0,0-5.1,4.8,0.5,9.9C224,2,227.8-4,227.8-4"/>
						<path class="st6" d="M270.6,43.9c0,0,5.1-4.8-0.5-9.9c-5.7-5.1-9.5,0.9-9.5,0.9"/>
						<path class="st6" d="M207.1,4c0,0-2,6.8,5.4,8.3s7.8-5.5,7.8-5.5"/>
						<path class="st6" d="M281.3,26.9c0,0,2-6.8-5.4-8.3c-7.4-1.6-7.8,5.5-7.8,5.5"/>
						<path class="st6" d="M206.3,24c0,0,1.6,6.9,8.9,4.5s4-8.7,4-8.7"/>
						<path class="st6" d="M282.1,6.8c0,0-1.6-6.9-8.9-4.5c-7.2,2.4-4,8.7-4,8.7"/>
						<path class="st6" d="M215.7,41.8c0,0,4.8,5.1,9.9-0.5s-0.9-9.5-0.9-9.5"/>
						<path class="st6" d="M272.7-10.9c0,0-4.8-5.1-9.9,0.5c-5.1,5.7,0.9,9.5,0.9,9.5"/>
						<path class="st6" d="M232.7,52.5c0,0,6.8,2,8.3-5.4c1.6-7.4-5.5-7.8-5.5-7.8"/>
						<path class="st6" d="M255.7-21.7c0,0-6.8-2-8.3,5.4s5.5,7.8,5.5,7.8"/>
					</g>
				</g>
			</g>
		</g>
		<g>
			<path class="st10" d="M640.9,3.2c-4.3-1.5-8.5-2.9-11.9-4.1c-10.8-42.7-49.5-74.3-95.5-74.3c-46.2,0-85,31.8-95.6,74.7
				c-6,2-13.2,4.5-16.2,5.5c-5.5,1.8-6.2,3.7-6.2,13.6s0,19.1,0,24.6s2.5,6.8,12.9,10.5c4.7,1.7,9.3,3.2,12.9,4.4
				c14.1,37.2,50,63.6,92.1,63.6c41.6,0,77.2-25.8,91.6-62.3c5.9-2,18.3-6.2,22.6-7.6c5.5-1.8,6.2-3.7,6.2-13.6c0-9.9,0-19.1,0-24.6
				S651.4,6.9,640.9,3.2z M436.2,46.1c-9-2.6-11.1-3.4-11.1-7.3c0-3.9,0-10.3,0-17.1c0-6.9,0.5-8.1,5.3-9.4c1.2-0.3,3.2-0.9,5.5-1.5
				c-0.5,4.1-0.8,8.3-0.8,12.6c0,8,1,15.8,2.8,23.2C437.2,46.4,436.7,46.2,436.2,46.1z M644.3,35.3c0,6.9-0.5,8.1-5.3,9.4
				c-2,0.5-6,1.6-10,2.8c2-7.7,3-15.8,3-24.2c0-4.4-0.3-8.8-0.9-13c0.7,0.2,1.4,0.4,2.1,0.6c9,2.6,11.1,3.4,11.1,7.3
				C644.3,22,644.3,28.5,644.3,35.3z"/>
			<circle class="st11" cx="533.5" cy="22.6" r="90.7"/>
			<circle class="st12" cx="533.9" cy="22.3" r="81.8"/>
			<g>
				<path class="st13" d="M531.8,75.8c0.5-2.2,3.7-3.3,8-4.9s9.1-4.9,11.8-6.5s4.3-0.6,8.6-2.7s16.8-7.8,16.8-7.8s6.3-1.5,3.1,3.3
					c-3.2,4.9-16.1,9.8-20.9,12c-4.8,2.2-18.8,9.8-21.5,10.9C535,81.2,531.3,78,531.8,75.8z"/>
				
					<ellipse transform="matrix(0.5484 -0.8362 0.8362 0.5484 176.457 482.6685)" class="st14" cx="535.1" cy="78" rx="2.5" ry="3.8"/>
			</g>
			<path class="st15" d="M475.1,41.4c0,0,2.8,21.3,19.8,23.4c11.3,1.4,19.8,12.8,17,16.3c-2.8,3.5-9.9,5.7-19.1-1.4
				c-9.2-7.1-17.7-19.8-19.8-28.3S475.1,41.4,475.1,41.4z"/>
			<path class="st15" d="M545.9,88.9c0,0,3.5-9.2,14.9-14.2c6.4-2.8,17.7-5.7,17.7,0.7c0,6.4-12,11.3-20.5,13.5
				C549.5,91,545.9,88.9,545.9,88.9z"/>
			<path class="st15" d="M570.7-25.2c3.5,4.3,10.6,7.8,9.9,15.6s11.4,6.5,14.9,4.3c4.3-2.8,6.4-10.6,0.7-17s-14.2-9.2-19.1-9.2
				S567.2-29.5,570.7-25.2z"/>
			<polygon class="st16" points="603,29 573.9,23.3 564.7,37.5 593.7,45.3 			"/>
			<g>
				<g>
					<path class="st17" d="M591.6,46c0.3-0.2,1.4,3.5,5.7-2.1c4.2-5.6,5.7-8.5,5-9.9c-0.7-1.4-0.7-4.3-0.7-4.3L591.6,46z"/>
					<g>
						<g>
							<g>
								<path class="st18" d="M559.8,40.7c-0.1-1.4,0.1-3.3,1.2-5.9c1-2.5,3.3-3.4,3.3-3.4l4.2,1.7c0,0,0.8,2-0.7,5.6
									c-1.4,3.6-1.4,3.6-2.5,4.3S559.9,42,559.8,40.7z"/>
								<path class="st16" d="M563.5,32.3c-0.6,0.4-1.6,1.2-2.1,2.7c-0.6,1.7-0.9,3.1-0.9,4.1c0.7,0.5,1.6,0.8,2.5,0.7
									c2-0.3,3.5-2.2,3.3-4.2C566.1,33.9,564.9,32.6,563.5,32.3z"/>
							</g>
							<g>
								<path class="st18" d="M566.3,42.6c-0.1-1.4,0.1-3.3,1.2-5.9c1-2.5,3.3-3.4,3.3-3.4l4.2,1.7c0,0,0.8,2-0.7,5.6
									c-1.4,3.6-1.4,3.6-2.5,4.3S566.4,43.9,566.3,42.6z"/>
								<path class="st16" d="M570,34.2c-0.6,0.4-1.6,1.2-2.1,2.7c-0.6,1.7-0.9,3.1-0.9,4.1c0.7,0.5,1.6,0.8,2.5,0.7
									c2-0.3,3.5-2.2,3.3-4.2C572.6,35.8,571.4,34.5,570,34.2z"/>
							</g>
							<g>
								<path class="st18" d="M572.8,44.5c-0.1-1.4,0.1-3.3,1.2-5.9c1-2.5,3.3-3.4,3.3-3.4l4.2,1.7c0,0,0.8,2-0.7,5.6
									c-1.4,3.6-1.4,3.6-2.5,4.3S572.9,45.9,572.8,44.5z"/>
								<path class="st16" d="M576.5,36.2c-0.6,0.4-1.6,1.2-2.1,2.7c-0.6,1.7-0.9,3.1-0.9,4.1c0.7,0.5,1.6,0.8,2.5,0.7
									c2-0.3,3.5-2.2,3.3-4.2C579.1,37.8,578,36.5,576.5,36.2z"/>
							</g>
							<g>
								<path class="st18" d="M579.3,46.4c-0.1-1.4,0.1-3.3,1.2-5.9c1-2.5,3.3-3.4,3.3-3.4l4.2,1.7c0,0,0.8,2-0.7,5.6
									c-1.4,3.6-1.4,3.6-2.5,4.3S579.4,47.8,579.3,46.4z"/>
								<path class="st16" d="M583,38.1c-0.6,0.4-1.6,1.2-2.1,2.7c-0.6,1.7-0.9,3.1-0.9,4.1c0.7,0.5,1.6,0.8,2.5,0.7
									c2-0.3,3.5-2.2,3.3-4.2C585.6,39.7,584.5,38.4,583,38.1z"/>
							</g>
							<g>
								<path class="st18" d="M585.8,48.4c-0.1-1.4,0.1-3.3,1.2-5.9s3.3-3.4,3.3-3.4l4.2,1.7c0,0,0.8,2-0.7,5.6s-1.4,3.6-2.5,4.3
									C590.2,51.4,585.9,49.7,585.8,48.4z"/>
								<path class="st16" d="M589.5,40c-0.6,0.4-1.6,1.2-2.1,2.7c-0.6,1.7-0.9,3.1-0.9,4.1c0.7,0.5,1.6,0.8,2.5,0.7
									c2-0.3,3.5-2.2,3.3-4.2C592.1,41.6,591,40.3,589.5,40z"/>
							</g>
						</g>
						<g>
							<g>
								<path class="st18" d="M568.9,26.1c0-0.9,0.4-2.1,1.7-3.6c1.2-1.5,3.6-2,3.6-2l4.1,1.3c0,0,0.6,1.3-1.2,3.4s-1.8,2.1-2.9,2.6
									C573,28.2,568.9,26.9,568.9,26.1z"/>
								<path class="st16" d="M573.4,21c-0.6,0.2-1.7,0.7-2.4,1.6c-0.8,1-1.2,1.9-1.3,2.5c0.7,0.4,1.5,0.6,2.5,0.6
									c2-0.1,3.7-1.2,3.7-2.5C575.9,22.2,574.8,21.3,573.4,21z"/>
							</g>
							<g>
								<path class="st18" d="M575.3,27.6c0-0.9,0.4-2.1,1.7-3.6c1.2-1.5,3.6-2,3.6-2l4.1,1.3c0,0,0.6,1.3-1.2,3.4s-1.8,2.1-2.9,2.6
									C579.4,29.8,575.3,28.5,575.3,27.6z"/>
								<path class="st16" d="M579.8,22.6c-0.6,0.2-1.7,0.7-2.4,1.6c-0.8,1-1.2,1.9-1.3,2.5c0.7,0.4,1.5,0.6,2.5,0.6
									c2-0.1,3.7-1.2,3.7-2.5C582.2,23.7,581.2,22.9,579.8,22.6z"/>
							</g>
							<g>
								<path class="st18" d="M581.7,29.2c0-0.9,0.4-2.1,1.7-3.6c1.2-1.5,3.6-2,3.6-2l4.1,1.3c0,0,0.6,1.3-1.2,3.4
									c-1.8,2.1-1.8,2.1-2.9,2.6C585.8,31.3,581.7,30,581.7,29.2z"/>
								<path class="st16" d="M586.1,24.2c-0.6,0.2-1.7,0.7-2.4,1.6c-0.8,1-1.2,1.9-1.3,2.5c0.7,0.4,1.5,0.6,2.5,0.6
									c2-0.1,3.7-1.2,3.7-2.5C588.6,25.3,587.6,24.4,586.1,24.2z"/>
							</g>
							<g>
								<path class="st18" d="M588.1,30.7c0-0.9,0.4-2.1,1.7-3.6c1.2-1.5,3.6-2,3.6-2l4.1,1.3c0,0,0.6,1.3-1.2,3.4s-1.8,2.1-2.9,2.6
									C592.2,32.9,588.1,31.6,588.1,30.7z"/>
								<path class="st16" d="M592.5,25.7c-0.6,0.2-1.7,0.7-2.4,1.6c-0.8,1-1.2,1.9-1.3,2.5c0.7,0.4,1.5,0.6,2.5,0.6
									c2-0.1,3.7-1.2,3.7-2.5C595,26.9,594,26,592.5,25.7z"/>
							</g>
							<g>
								<path class="st18" d="M594.5,32.3c0-0.9,0.4-2.1,1.7-3.6c1.2-1.5,3.6-2,3.6-2l4.1,1.3c0,0,0.6,1.3-1.2,3.4
									c-1.8,2.1-1.8,2.1-2.9,2.6C598.5,34.4,594.5,33.1,594.5,32.3z"/>
								<path class="st16" d="M598.9,27.3c-0.6,0.2-1.7,0.7-2.4,1.6c-0.8,1-1.2,1.9-1.3,2.5c0.7,0.4,1.5,0.6,2.5,0.6
									c2-0.1,3.7-1.2,3.7-2.5C601.4,28.4,600.3,27.6,598.9,27.3z"/>
							</g>
						</g>
						<g>
							<g>
								<path class="st18" d="M564,31.6c0-1.2,0.4-2.8,1.7-4.9s3.6-2.7,3.6-2.7l4.1,1.8c0,0,0.6,1.8-1.2,4.7s-1.8,2.9-2.9,3.5
									C568.1,34.6,564,32.8,564,31.6z"/>
								<path class="st16" d="M568.4,24.8c-0.6,0.3-1.7,0.9-2.4,2.1c-0.8,1.4-1.2,2.5-1.3,3.4c0.7,0.5,1.5,0.8,2.5,0.8
									c2-0.1,3.7-1.6,3.7-3.4C570.9,26.3,569.9,25.2,568.4,24.8z"/>
							</g>
							<g>
								<path class="st18" d="M570.4,33.8c0-1.2,0.4-2.8,1.7-4.9s3.6-2.7,3.6-2.7l4.1,1.8c0,0,0.6,1.8-1.2,4.7s-1.8,2.9-2.9,3.5
									C574.5,36.7,570.4,34.9,570.4,33.8z"/>
								<path class="st16" d="M574.8,26.9c-0.6,0.3-1.7,0.9-2.4,2.1c-0.8,1.4-1.2,2.5-1.3,3.4c0.7,0.5,1.5,0.8,2.5,0.8
									c2-0.1,3.7-1.6,3.7-3.4C577.3,28.5,576.2,27.3,574.8,26.9z"/>
							</g>
							<g>
								<path class="st18" d="M576.7,35.9c0-1.2,0.4-2.8,1.7-4.9c1.2-2.1,3.6-2.7,3.6-2.7l4.1,1.8c0,0,0.6,1.8-1.2,4.7
									s-1.8,2.9-2.9,3.5C580.8,38.8,576.7,37.1,576.7,35.9z"/>
								<path class="st16" d="M581.2,29c-0.6,0.3-1.7,0.9-2.4,2.1c-0.8,1.4-1.2,2.5-1.3,3.4c0.7,0.5,1.5,0.8,2.5,0.8
									c2-0.1,3.7-1.6,3.7-3.4C583.7,30.6,582.6,29.4,581.2,29z"/>
							</g>
							<g>
								<path class="st18" d="M583.1,38c0-1.2,0.4-2.8,1.7-4.9c1.2-2.1,3.6-2.7,3.6-2.7l4.1,1.8c0,0,0.6,1.8-1.2,4.7
									s-1.8,2.9-2.9,3.5S583.1,39.2,583.1,38z"/>
								<path class="st16" d="M587.5,31.2c-0.6,0.3-1.7,0.9-2.4,2.1c-0.8,1.4-1.2,2.5-1.3,3.4c0.7,0.5,1.5,0.8,2.5,0.8
									c2-0.1,3.7-1.6,3.7-3.4C590,32.7,589,31.6,587.5,31.2z"/>
							</g>
							<g>
								<path class="st18" d="M589.5,40.1c0-1.2,0.4-2.8,1.7-4.9c1.2-2.1,3.6-2.7,3.6-2.7l4.1,1.8c0,0,0.6,1.8-1.2,4.7
									s-1.8,2.9-2.9,3.5C593.6,43.1,589.5,41.3,589.5,40.1z"/>
								<path class="st16" d="M593.9,33.3c-0.6,0.3-1.7,0.9-2.4,2.1c-0.8,1.4-1.2,2.5-1.3,3.4c0.7,0.5,1.5,0.8,2.5,0.8
									c2-0.1,3.7-1.6,3.7-3.4C596.4,34.8,595.4,33.7,593.9,33.3z"/>
							</g>
						</g>
					</g>
				</g>
				<path class="st19" d="M552.3,35c0,0,10.9,3.8,17.4,4.6c6.1,0.8,14.6,11.8,22,6.4c10.6-7.8,6.7-17.4,13.1-18.8
					c0,0,9.2,16.3-2.1,22c-11.3,5.7-13.8,6-18.8,5.3c-5-0.7-29.1-14.2-30.5-15.6C551.9,37.5,552.3,35,552.3,35z"/>
			</g>
			<g>
				<path class="st17" d="M496.6,16.7c-0.3-0.2-1.4,3.5-5.7-2.1c-4.2-5.6-5.7-8.5-5-9.9c0.7-1.4,0.7-4.3,0.7-4.3L496.6,16.7z"/>
				<g>
					<g>
						<g>
							<path class="st18" d="M528.4,11.4c0.1-1.4-0.1-3.3-1.2-5.9c-1-2.5-3.3-3.4-3.3-3.4l-4.2,1.7c0,0-0.8,2,0.7,5.6
								c1.4,3.6,1.4,3.6,2.5,4.3S528.3,12.7,528.4,11.4z"/>
							<path class="st16" d="M524.7,3c0.6,0.4,1.6,1.2,2.1,2.7c0.6,1.7,0.9,3.1,0.9,4.1c-0.7,0.5-1.6,0.8-2.5,0.7
								c-2-0.3-3.5-2.2-3.3-4.2C522.1,4.6,523.3,3.3,524.7,3z"/>
						</g>
						<g>
							<path class="st18" d="M521.9,13.3c0.1-1.4-0.1-3.3-1.2-5.9c-1-2.5-3.3-3.4-3.3-3.4l-4.2,1.7c0,0-0.8,2,0.7,5.6
								c1.4,3.6,1.4,3.6,2.5,4.3S521.8,14.7,521.9,13.3z"/>
							<path class="st16" d="M518.2,4.9c0.6,0.4,1.6,1.2,2.1,2.7c0.6,1.7,0.9,3.1,0.9,4.1c-0.7,0.5-1.6,0.8-2.5,0.7
								c-2-0.3-3.5-2.2-3.3-4.2C515.6,6.5,516.8,5.3,518.2,4.9z"/>
						</g>
						<g>
							<path class="st18" d="M515.4,15.2c0.1-1.4-0.1-3.3-1.2-5.9c-1-2.5-3.3-3.4-3.3-3.4l-4.2,1.7c0,0-0.8,2,0.7,5.6
								c1.4,3.6,1.4,3.6,2.5,4.3S515.3,16.6,515.4,15.2z"/>
							<path class="st16" d="M511.7,6.9c0.6,0.4,1.6,1.2,2.1,2.7c0.6,1.7,0.9,3.1,0.9,4.1c-0.7,0.5-1.6,0.8-2.5,0.7
								c-2-0.3-3.5-2.2-3.3-4.2C509.1,8.5,510.3,7.2,511.7,6.9z"/>
						</g>
						<g>
							<path class="st18" d="M508.9,17.2c0.1-1.4-0.1-3.3-1.2-5.9c-1-2.5-3.3-3.4-3.3-3.4l-4.2,1.7c0,0-0.8,2,0.7,5.6
								c1.4,3.6,1.4,3.6,2.5,4.3S508.8,18.5,508.9,17.2z"/>
							<path class="st16" d="M505.2,8.8c0.6,0.4,1.6,1.2,2.1,2.7c0.6,1.7,0.9,3.1,0.9,4.1c-0.7,0.5-1.6,0.8-2.5,0.7
								c-2-0.3-3.5-2.2-3.3-4.2C502.6,10.4,503.8,9.1,505.2,8.8z"/>
						</g>
						<g>
							<path class="st18" d="M502.4,19.1c0.1-1.4-0.1-3.3-1.2-5.9c-1-2.5-3.3-3.4-3.3-3.4l-4.2,1.7c0,0-0.8,2,0.7,5.6
								c1.4,3.6,1.4,3.6,2.5,4.3S502.3,20.4,502.4,19.1z"/>
							<path class="st16" d="M498.7,10.7c0.6,0.4,1.6,1.2,2.1,2.7c0.6,1.7,0.9,3.1,0.9,4.1c-0.7,0.5-1.6,0.8-2.5,0.7
								c-2-0.3-3.5-2.2-3.3-4.2C496.1,12.3,497.2,11.1,498.7,10.7z"/>
						</g>
					</g>
					<g>
						<g>
							<path class="st18" d="M519.3-3.2c0-0.9-0.4-2.1-1.7-3.6c-1.2-1.5-3.6-2-3.6-2l-4.1,1.3c0,0-0.6,1.3,1.2,3.4
								c1.8,2.1,1.8,2.1,2.9,2.6C515.2-1.1,519.3-2.4,519.3-3.2z"/>
							<path class="st16" d="M514.8-8.2c0.6,0.2,1.7,0.7,2.4,1.6c0.8,1,1.2,1.9,1.3,2.5c-0.7,0.4-1.5,0.6-2.5,0.6
								c-2-0.1-3.7-1.2-3.7-2.5C512.3-7.1,513.4-8,514.8-8.2z"/>
						</g>
						<g>
							<path class="st18" d="M512.9-1.7c0-0.9-0.4-2.1-1.7-3.6c-1.2-1.5-3.6-2-3.6-2L503.5-6c0,0-0.6,1.3,1.2,3.4s1.8,2.1,2.9,2.6
								C508.8,0.5,512.9-0.8,512.9-1.7z"/>
							<path class="st16" d="M508.5-6.7c0.6,0.2,1.7,0.7,2.4,1.6c0.8,1,1.2,1.9,1.3,2.5c-0.7,0.4-1.5,0.6-2.5,0.6
								c-2-0.1-3.7-1.2-3.7-2.5C506-5.5,507-6.4,508.5-6.7z"/>
						</g>
						<g>
							<path class="st18" d="M506.5-0.1c0-0.9-0.4-2.1-1.7-3.6c-1.2-1.5-3.6-2-3.6-2l-4.1,1.3c0,0-0.6,1.3,1.2,3.4s1.8,2.1,2.9,2.6
								C502.4,2,506.5,0.7,506.5-0.1z"/>
							<path class="st16" d="M502.1-5.1c0.6,0.2,1.7,0.7,2.4,1.6c0.8,1,1.2,1.9,1.3,2.5c-0.7,0.4-1.5,0.6-2.5,0.6
								c-2-0.1-3.7-1.2-3.7-2.5C499.6-4,500.6-4.8,502.1-5.1z"/>
						</g>
						<g>
							<path class="st18" d="M500.1,1.4c0-0.9-0.4-2.1-1.7-3.6s-3.6-2-3.6-2l-4.1,1.3c0,0-0.6,1.3,1.2,3.4s1.8,2.1,2.9,2.6
								C496,3.6,500.1,2.3,500.1,1.4z"/>
							<path class="st16" d="M495.7-3.6c0.6,0.2,1.7,0.7,2.4,1.6c0.8,1,1.2,1.9,1.3,2.5c-0.7,0.4-1.5,0.6-2.5,0.6
								c-2-0.1-3.7-1.2-3.7-2.5C493.2-2.4,494.3-3.3,495.7-3.6z"/>
						</g>
						<g>
							<path class="st18" d="M493.8,3c0-0.9-0.4-2.1-1.7-3.6s-3.6-2-3.6-2l-4.1,1.3c0,0-0.6,1.3,1.2,3.4c1.8,2.1,1.8,2.1,2.9,2.6
								C489.7,5.2,493.8,3.9,493.8,3z"/>
							<path class="st16" d="M489.3-2c0.6,0.2,1.7,0.7,2.4,1.6c0.8,1,1.2,1.9,1.3,2.5c-0.7,0.4-1.5,0.6-2.5,0.6
								c-2-0.1-3.7-1.2-3.7-2.5C486.8-0.9,487.9-1.7,489.3-2z"/>
						</g>
					</g>
					<g>
						<g>
							<path class="st18" d="M524.2,2.4c0-1.2-0.4-2.8-1.7-4.9S519-5.3,519-5.3l-4.1,1.8c0,0-0.6,1.8,1.2,4.7s1.8,2.9,2.9,3.5
								S524.2,3.5,524.2,2.4z"/>
							<path class="st16" d="M519.8-4.5c0.6,0.3,1.7,0.9,2.4,2.1c0.8,1.4,1.2,2.5,1.3,3.4c-0.7,0.5-1.5,0.8-2.5,0.8
								c-2-0.1-3.7-1.6-3.7-3.4C517.3-2.9,518.3-4.1,519.8-4.5z"/>
						</g>
						<g>
							<path class="st18" d="M517.9,4.5c0-1.2-0.4-2.8-1.7-4.9c-1.2-2.1-3.6-2.7-3.6-2.7l-4.1,1.8c0,0-0.6,1.8,1.2,4.7
								s1.8,2.9,2.9,3.5S517.9,5.6,517.9,4.5z"/>
							<path class="st16" d="M513.4-2.4c0.6,0.3,1.7,0.9,2.4,2.1c0.8,1.4,1.2,2.5,1.3,3.4c-0.7,0.5-1.5,0.8-2.5,0.8
								c-2-0.1-3.7-1.6-3.7-3.4C510.9-0.8,512-2,513.4-2.4z"/>
						</g>
						<g>
							<path class="st18" d="M511.5,6.6c0-1.2-0.4-2.8-1.7-4.9S506.2-1,506.2-1l-4.1,1.8c0,0-0.6,1.8,1.2,4.7s1.8,2.9,2.9,3.5
								C507.4,9.5,511.5,7.8,511.5,6.6z"/>
							<path class="st16" d="M507-0.2c0.6,0.3,1.7,0.9,2.4,2.1c0.8,1.4,1.2,2.5,1.3,3.4c-0.7,0.5-1.5,0.8-2.5,0.8
								c-2-0.1-3.7-1.6-3.7-3.4C504.6,1.3,505.6,0.1,507-0.2z"/>
						</g>
						<g>
							<path class="st18" d="M505.1,8.7c0-1.2-0.4-2.8-1.7-4.9c-1.2-2.1-3.6-2.7-3.6-2.7l-4.1,1.8c0,0-0.6,1.8,1.2,4.7
								s1.8,2.9,2.9,3.5C501,11.7,505.1,9.9,505.1,8.7z"/>
							<path class="st16" d="M500.7,1.9c0.6,0.3,1.7,0.9,2.4,2.1c0.8,1.4,1.2,2.5,1.3,3.4c-0.7,0.5-1.5,0.8-2.5,0.8
								c-2-0.1-3.7-1.6-3.7-3.4C498.2,3.4,499.2,2.3,500.7,1.9z"/>
						</g>
						<g>
							<path class="st18" d="M498.7,10.9c0-1.2-0.4-2.8-1.7-4.9s-3.6-2.7-3.6-2.7L489.4,5c0,0-0.6,1.8,1.2,4.7s1.8,2.9,2.9,3.5
								C494.6,13.8,498.7,12,498.7,10.9z"/>
							<path class="st16" d="M494.3,4c0.6,0.3,1.7,0.9,2.4,2.1c0.8,1.4,1.2,2.5,1.3,3.4c-0.7,0.5-1.5,0.8-2.5,0.8
								c-2-0.1-3.7-1.6-3.7-3.4C491.8,5.6,492.8,4.4,494.3,4z"/>
						</g>
					</g>
				</g>
			</g>
			<g>
				<path class="st17" d="M497.8,86.7c-0.2-0.2-1.2,3.1-5-1.9c-3.7-4.9-5-7.5-4.4-8.7c0.6-1.2,0.6-3.7,0.6-3.7L497.8,86.7z"/>
				<g>
					<g>
						<g>
							<path class="st18" d="M525.7,82.1c0.1-1.2-0.1-2.9-1-5.2c-0.9-2.2-2.9-3-2.9-3l-3.7,1.5c0,0-0.7,1.8,0.6,4.9s1.3,3.1,2.2,3.8
								C521.9,84.7,525.6,83.2,525.7,82.1z"/>
							<path class="st16" d="M522.5,74.7c0.5,0.3,1.4,1.1,1.9,2.4c0.5,1.5,0.8,2.7,0.8,3.6c-0.6,0.5-1.4,0.7-2.2,0.6
								c-1.7-0.2-3-1.9-2.9-3.7C520.2,76.1,521.2,75,522.5,74.7z"/>
						</g>
						<g>
							<path class="st18" d="M520,83.7c0.1-1.2-0.1-2.9-1-5.2c-0.9-2.2-2.9-3-2.9-3l-3.7,1.5c0,0-0.7,1.8,0.6,4.9
								c1.3,3.1,1.3,3.1,2.2,3.8C516.2,86.4,519.9,84.9,520,83.7z"/>
							<path class="st16" d="M516.8,76.4c0.5,0.3,1.4,1.1,1.9,2.4c0.5,1.5,0.8,2.7,0.8,3.6c-0.6,0.5-1.4,0.7-2.2,0.6
								c-1.7-0.2-3-1.9-2.9-3.7C514.5,77.8,515.5,76.7,516.8,76.4z"/>
						</g>
						<g>
							<path class="st18" d="M514.3,85.4c0.1-1.2-0.1-2.9-1-5.2c-0.9-2.2-2.9-3-2.9-3l-3.7,1.5c0,0-0.7,1.8,0.6,4.9
								c1.3,3.1,1.3,3.1,2.2,3.8S514.2,86.6,514.3,85.4z"/>
							<path class="st16" d="M511.1,78.1c0.5,0.3,1.4,1.1,1.9,2.4c0.5,1.5,0.8,2.7,0.8,3.6c-0.6,0.5-1.4,0.7-2.2,0.6
								c-1.7-0.2-3-1.9-2.9-3.7C508.8,79.5,509.8,78.4,511.1,78.1z"/>
						</g>
						<g>
							<path class="st18" d="M508.6,87.1c0.1-1.2-0.1-2.9-1-5.2c-0.9-2.2-2.9-3-2.9-3l-3.7,1.5c0,0-0.7,1.8,0.6,4.9
								c1.3,3.1,1.3,3.1,2.2,3.8C504.8,89.8,508.5,88.3,508.6,87.1z"/>
							<path class="st16" d="M505.4,79.8c0.5,0.3,1.4,1.1,1.9,2.4c0.5,1.5,0.8,2.7,0.8,3.6c-0.6,0.5-1.4,0.7-2.2,0.6
								c-1.7-0.2-3-1.9-2.9-3.7C503.1,81.2,504.1,80.1,505.4,79.8z"/>
						</g>
						<g>
							<path class="st18" d="M502.9,88.8c0.1-1.2-0.1-2.9-1-5.2s-2.9-3-2.9-3l-3.7,1.5c0,0-0.7,1.8,0.6,4.9c1.3,3.1,1.3,3.1,2.2,3.8
								C499.1,91.5,502.8,90,502.9,88.8z"/>
							<path class="st16" d="M499.7,81.5c0.5,0.3,1.4,1.1,1.9,2.4c0.5,1.5,0.8,2.7,0.8,3.6c-0.6,0.5-1.4,0.7-2.2,0.6
								c-1.7-0.2-3-1.9-2.9-3.7C497.4,82.9,498.4,81.8,499.7,81.5z"/>
						</g>
					</g>
					<g>
						<g>
							<path class="st18" d="M517.7,69.2c0-0.8-0.4-1.8-1.5-3.2c-1.1-1.3-3.1-1.7-3.1-1.7l-3.6,1.1c0,0-0.5,1.1,1,3
								c1.5,1.9,1.5,1.9,2.6,2.3C514.1,71.1,517.7,70,517.7,69.2z"/>
							<path class="st16" d="M513.8,64.8c0.5,0.2,1.5,0.6,2.1,1.4c0.7,0.9,1,1.6,1.1,2.2c-0.6,0.3-1.3,0.5-2.2,0.5
								c-1.8,0-3.2-1-3.2-2.2C511.6,65.8,512.5,65.1,513.8,64.8z"/>
						</g>
						<g>
							<path class="st18" d="M512.1,70.6c0-0.8-0.4-1.8-1.5-3.2c-1.1-1.3-3.1-1.7-3.1-1.7l-3.6,1.1c0,0-0.5,1.1,1,3
								c1.5,1.9,1.5,1.9,2.6,2.3S512.1,71.4,512.1,70.6z"/>
							<path class="st16" d="M508.2,66.2c0.5,0.2,1.5,0.6,2.1,1.4c0.7,0.9,1,1.6,1.1,2.2c-0.6,0.3-1.3,0.5-2.2,0.5
								c-1.8,0-3.2-1-3.2-2.2C506,67.2,506.9,66.5,508.2,66.2z"/>
						</g>
						<g>
							<path class="st18" d="M506.5,72c0-0.8-0.4-1.8-1.5-3.2c-1.1-1.3-3.1-1.7-3.1-1.7l-3.6,1.1c0,0-0.5,1.1,1,3
								c1.5,1.9,1.5,1.9,2.6,2.3S506.5,72.7,506.5,72z"/>
							<path class="st16" d="M502.6,67.6c0.5,0.2,1.5,0.6,2.1,1.4c0.7,0.9,1,1.6,1.1,2.2c-0.6,0.3-1.3,0.5-2.2,0.5
								c-1.8,0-3.2-1-3.2-2.2C500.4,68.6,501.3,67.8,502.6,67.6z"/>
						</g>
						<g>
							<path class="st18" d="M500.9,73.3c0-0.8-0.4-1.8-1.5-3.2c-1.1-1.3-3.1-1.7-3.1-1.7l-3.6,1.1c0,0-0.5,1.1,1,3
								c1.5,1.9,1.5,1.9,2.6,2.3S500.9,74.1,500.9,73.3z"/>
							<path class="st16" d="M497,68.9c0.5,0.2,1.5,0.6,2.1,1.4c0.7,0.9,1,1.6,1.1,2.2c-0.6,0.3-1.3,0.5-2.2,0.5
								c-1.8,0-3.2-1-3.2-2.2C494.8,69.9,495.7,69.2,497,68.9z"/>
						</g>
						<g>
							<path class="st18" d="M495.3,74.7c0-0.8-0.4-1.8-1.5-3.2c-1.1-1.3-3.1-1.7-3.1-1.7l-3.6,1.1c0,0-0.5,1.1,1,3
								c1.5,1.9,1.5,1.9,2.6,2.3S495.3,75.5,495.3,74.7z"/>
							<path class="st16" d="M491.4,70.3c0.5,0.2,1.5,0.6,2.1,1.4c0.7,0.9,1,1.6,1.1,2.2c-0.6,0.3-1.3,0.5-2.2,0.5
								c-1.8,0-3.2-1-3.2-2.2C489.2,71.3,490.1,70.6,491.4,70.3z"/>
						</g>
					</g>
					<g>
						<g>
							<path class="st18" d="M522,74.1c0-1-0.4-2.5-1.5-4.3c-1.1-1.8-3.1-2.4-3.1-2.4l-3.6,1.5c0,0-0.5,1.5,1,4.1s1.5,2.6,2.6,3.1
								C518.4,76.7,522,75.2,522,74.1z"/>
							<path class="st16" d="M518.2,68.1c0.5,0.3,1.5,0.8,2.1,1.9c0.7,1.2,1,2.2,1.1,3c-0.6,0.4-1.3,0.7-2.2,0.7
								c-1.8-0.1-3.2-1.4-3.2-3C516,69.5,516.9,68.5,518.2,68.1z"/>
						</g>
						<g>
							<path class="st18" d="M516.4,76c0-1-0.4-2.5-1.5-4.3s-3.1-2.4-3.1-2.4l-3.6,1.5c0,0-0.5,1.5,1,4.1c1.5,2.6,1.5,2.6,2.6,3.1
								C512.9,78.6,516.4,77,516.4,76z"/>
							<path class="st16" d="M512.6,70c0.5,0.3,1.5,0.8,2.1,1.9c0.7,1.2,1,2.2,1.1,3c-0.6,0.4-1.3,0.7-2.2,0.7
								c-1.8-0.1-3.2-1.4-3.2-3C510.4,71.4,511.3,70.3,512.6,70z"/>
						</g>
						<g>
							<path class="st18" d="M510.9,77.9c0-1-0.4-2.5-1.5-4.3c-1.1-1.8-3.1-2.4-3.1-2.4l-3.6,1.5c0,0-0.5,1.5,1,4.1
								c1.5,2.6,1.5,2.6,2.6,3.1C507.3,80.4,510.9,78.9,510.9,77.9z"/>
							<path class="st16" d="M507,71.9c0.5,0.3,1.5,0.8,2.1,1.9c0.7,1.2,1,2.2,1.1,3c-0.6,0.4-1.3,0.7-2.2,0.7
								c-1.8-0.1-3.2-1.4-3.2-3C504.8,73.2,505.7,72.2,507,71.9z"/>
						</g>
						<g>
							<path class="st18" d="M505.3,79.7c0-1-0.4-2.5-1.5-4.3c-1.1-1.8-3.1-2.4-3.1-2.4l-3.6,1.5c0,0-0.5,1.5,1,4.1
								c1.5,2.6,1.5,2.6,2.6,3.1C501.7,82.3,505.3,80.8,505.3,79.7z"/>
							<path class="st16" d="M501.4,73.7c0.5,0.3,1.5,0.8,2.1,1.9c0.7,1.2,1,2.2,1.1,3c-0.6,0.4-1.3,0.7-2.2,0.7
								c-1.8-0.1-3.2-1.4-3.2-3C499.2,75.1,500.1,74.1,501.4,73.7z"/>
						</g>
						<g>
							<path class="st18" d="M499.7,81.6c0-1-0.4-2.5-1.5-4.3c-1.1-1.8-3.1-2.4-3.1-2.4l-3.6,1.5c0,0-0.5,1.5,1,4.1
								c1.5,2.6,1.5,2.6,2.6,3.1C496.1,84.2,499.7,82.6,499.7,81.6z"/>
							<path class="st16" d="M495.8,75.6c0.5,0.3,1.5,0.8,2.1,1.9c0.7,1.2,1,2.2,1.1,3c-0.6,0.4-1.3,0.7-2.2,0.7
								c-1.8-0.1-3.2-1.4-3.2-3C493.6,77,494.5,75.9,495.8,75.6z"/>
						</g>
					</g>
				</g>
			</g>
			<path class="st19" d="M535.9,5.7c0,0-10.9,3.8-17.4,4.6c-6.1,0.8-17.9,14.5-22,6.4c-4.9-9.7-6.7-17.4-13.1-18.8
				c0,0-9.2,16.3,2.1,22c11.3,5.7,13.8,6,18.8,5.3c5-0.7,29.1-14.2,30.5-15.6C536.3,8.2,535.9,5.7,535.9,5.7z"/>
			<g>
				<path class="st17" d="M497.9,51.5c0,0-1.9-7.8-0.6-9.1c1.3-1.3,8.9-3.7,14.1-5.6c5.2-1.9,7.4,0,11.2,3s4.8,8.2,4.5,10
					c-0.4,1.9-12.8,8-15.8,8C508.3,57.8,497.9,51.5,497.9,51.5z"/>
				<path class="st20" d="M500.7,43.9c0,0,7.1,5.9,10.4,5.9s12.6-4.8,12.6-4.8"/>
				<path class="st21" d="M493.8,48.9c0,0,5.7,2,9.1,2.4c3.2,0.4,7.7,6.2,11.5,3.3c5.5-4.1,12.6-5.6,16-6.3c0,0,3,1.9-3,4.8
					s-14.5,6.3-17.1,5.9s-15.2-7.4-16-8.2C493.6,50.2,493.8,48.9,493.8,48.9z"/>
			</g>
			<g>
				<path class="st17" d="M593,13.9c0,0,1.9-7.8,0.6-9.1c-1.3-1.3-8.9-3.7-14.1-5.6c-5.2-1.9-7.4,0-11.2,3c-3.7,3-4.8,8.2-4.5,10
					c0.4,1.9,12.8,8,15.8,8S593,13.9,593,13.9z"/>
				<path class="st20" d="M590.2,6.3c0,0-7.1,5.9-10.4,5.9c-3.3,0-12.6-4.8-12.6-4.8"/>
				<path class="st21" d="M597.1,11.3c0,0-5.7,2-9.1,2.4c-3.2,0.4-7.7,6.2-11.5,3.3c-5.5-4.1-12.6-5.6-16-6.3c0,0-3,1.9,3,4.8
					c5.9,3,14.5,6.3,17.1,5.9s15.2-7.4,16-8.2C597.2,12.6,597.1,11.3,597.1,11.3z"/>
			</g>
			<path class="st15" d="M482.1,11.6c5.7,1.4,10.6,5,2.1,7.8c-8.5,2.8-12.8,3.5-14.9,7.1c-2.1,3.5-9.9,2.8-10.6-2.1
				c-0.7-5,2.1-9.9,7.1-12.8C470.8,8.8,482.1,11.6,482.1,11.6z"/>
			<g>
				<path class="st13" d="M551.2,35.9c-0.5-1.7-3.2-2.5-6.8-3.6c-3.6-1.1-7.7-3.5-9.9-4.7c-2.3-1.2-3.5-0.2-7.1-1.8
					c-3.6-1.6-14-5.5-14-5.5s-5.2-0.9-2.4,2.9c2.8,3.8,13.6,7.2,17.6,8.7s15.7,7,18,7.8C548.8,40.4,551.7,37.6,551.2,35.9z"/>
				
					<ellipse transform="matrix(0.8012 -0.5984 0.5984 0.8012 86.4332 335.7784)" class="st14" cx="548.6" cy="37.8" rx="3.1" ry="2"/>
			</g>
			<path class="st19" d="M505.9,22.6c0,0,18.4,4.8,21.6,7.3c3.2,2.6,14.6,4.7,18.8,9.7S505.9,22.6,505.9,22.6z"/>
			<path class="st19" d="M534.9,82.8c0,0,9.2-10.6,14.2-11.3s23.9-9.1,26.1-11.3c2.2-2.2,8.6-4.3,8.6-4.3s-5,5-12.8,9.2
				C563.3,69.4,534.9,82.8,534.9,82.8z"/>
			<g>
				<path class="st22" d="M468.7,34.3c0,0,4.3-2.8,8.5-0.7s5,6.4,5,6.4s-3.5,3.5-8.5,1.4C468.7,39.3,468.7,34.3,468.7,34.3z"/>
				<path class="st23" d="M474.7,33.9c1.4,0,4.3,1.4,5.7,4.3s-0.7,2.1-3.5,0.7c-2.8-1.4-5.7-2.8-4.3-3.5S473.3,33.9,474.7,33.9z"/>
			</g>
			<g>
				<path class="st22" d="M555.1,14.6c0,0-2.6,4.4-7.3,4.4c-4.8,0-7.3-3.5-7.3-3.5s1.6-4.7,7-5C552.9,10.1,555.1,14.6,555.1,14.6z"
					/>
				<path class="st23" d="M549.9,17.6c-1.3,0.6-4.4,0.6-7-1.3c-2.5-1.9-0.3-2.2,2.9-2.2s6.3,0,5.4,1.3S551.1,16.9,549.9,17.6z"/>
			</g>
			<g>
				<path class="st22" d="M542.4,61.6c0,0-2.6-4.4-7.3-4.4s-7.3,3.5-7.3,3.5s1.6,4.7,7,5C540.2,66,542.4,61.6,542.4,61.6z"/>
				<path class="st23" d="M537.1,58.6c-1.3-0.6-4.4-0.6-7,1.3c-2.5,1.9-0.3,2.2,2.9,2.2c3.2,0,6.3,0,5.4-1.3S538.4,59.2,537.1,58.6z
					"/>
			</g>
		</g>
		<g>
			<path class="st24" d="M125.2,21.3L38.4,77.8c-4.6,3-10.7,1.7-13.7-2.9l-40.8-62.7c-3-4.6-1.7-10.7,2.9-13.7L73.6-58
				c4.6-3,10.7-1.7,13.7,2.9l40.8,62.7C131,12.2,129.8,18.3,125.2,21.3z"/>
			<path class="st25" d="M110.2,17.2L40.1,62.8c-3.6,2.4-8.5,1.3-10.8-2.3L-2.4,11.9C-4.7,8.3-3.7,3.5-0.1,1.1L70-44.5
				c3.6-2.4,8.5-1.3,10.8,2.3l31.7,48.6C114.8,10,113.8,14.9,110.2,17.2z"/>
			<g>
				<g>
					<path class="st26" d="M-2.9,18C-0.2,24.8,4,28.7,5,30.2c1,1.5,4,2.8,10.9-1.6s6.6-6.5,10.9-8.2s7.6-1.7,8.1-4.2
						s-0.7-6.1-3.9-9.4S28.3,1,25.8-2.8S19-4.9,10.4,1.8C6.5,4.8,5,5.3-0.3,8.7S-4.7,13.7-2.9,18z"/>
					<path class="st27" d="M20.7,15.1c-3.9,3-6.1,4-11.4,7.4c-4.1,2.6-3.6,6.3-2.8,8.8c1.7,0.6,4.6,0.4,9.4-2.8
						c6.9-4.5,6.6-6.5,10.9-8.2s7.6-1.7,8.1-4.2c0.3-1.3,0-3-0.7-4.7C31.5,10.4,27.4,9.9,20.7,15.1z"/>
					<g>
						<defs>
							<path id="SVGID_7_" d="M-3.2,17.6c2.7,6.8,6.9,10.7,7.9,12.2s4,2.8,10.9-1.6s6.6-6.5,10.9-8.2s7.6-1.7,8.1-4.2
								S34,9.7,30.7,6.4S28,0.6,25.5-3.2s-6.8-2.1-15.4,4.6c-3.9,3-5.3,3.5-10.7,6.9S-4.9,13.3-3.2,17.6z"/>
						</defs>
						<clipPath id="SVGID_8_">
							<use xlink:href="#SVGID_7_"  style="overflow:visible;"/>
						</clipPath>
						<line class="st28" x1="-4.8" y1="19.3" x2="12.7" y2="7.9"/>
						<line class="st28" x1="-2.9" y1="22.3" x2="14.7" y2="10.9"/>
						<line class="st28" x1="-0.9" y1="25.4" x2="16.7" y2="14"/>
					</g>
				</g>
				<g>
					<path class="st26" d="M28.3-2.3C31,4.4,35.3,8.4,36.2,9.9s4,2.8,10.9-1.6S53.7,1.7,58,0s7.6-1.7,8.1-4.2
						c0.5-2.5-0.7-6.1-3.9-9.4s-2.7-5.8-5.2-9.6s-6.8-2.1-15.4,4.6c-3.9,3-5.3,3.5-10.7,6.9S26.6-6.6,28.3-2.3z"/>
					<path class="st27" d="M51.9-5.2c-3.9,3-6.1,4-11.4,7.4c-4.1,2.6-3.6,6.3-2.8,8.8c1.7,0.6,4.6,0.4,9.4-2.8C54,3.8,53.7,1.7,58,0
						s7.6-1.7,8.1-4.2c0.3-1.3,0-3-0.7-4.7C62.8-9.9,58.6-10.4,51.9-5.2z"/>
					<g>
						<defs>
							<path id="SVGID_9_" d="M28.1-2.7C30.8,4.1,35,8,36,9.5s4,2.8,10.9-1.6s6.6-6.5,10.9-8.2s7.6-1.7,8.1-4.2
								c0.5-2.5-0.7-6.1-3.9-9.4s-2.7-5.8-5.2-9.6s-6.8-2.1-15.4,4.6c-3.9,3-5.3,3.5-10.7,6.9S26.3-7,28.1-2.7z"/>
						</defs>
						<clipPath id="SVGID_10_">
							<use xlink:href="#SVGID_9_"  style="overflow:visible;"/>
						</clipPath>
						<line class="st29" x1="26.4" y1="-1.1" x2="43.9" y2="-12.5"/>
						<line class="st29" x1="28.4" y1="2" x2="45.9" y2="-9.4"/>
						<line class="st29" x1="30.4" y1="5" x2="47.9" y2="-6.4"/>
					</g>
				</g>
				<g>
					<path class="st26" d="M59.5-22.7c2.7,6.8,6.9,10.7,7.9,12.2c1,1.5,4,2.8,10.9-1.6s6.6-6.5,10.9-8.2c4.3-1.7,7.6-1.7,8.1-4.2
						s-0.7-6.1-3.9-9.4s-2.7-5.8-5.2-9.6c-2.5-3.8-6.8-2.1-15.4,4.6c-3.9,3-5.3,3.5-10.7,6.9S57.8-27,59.5-22.7z"/>
					<path class="st27" d="M83.2-25.6c-3.9,3-6.1,4-11.4,7.4c-4.1,2.6-3.6,6.3-2.8,8.8c1.7,0.6,4.6,0.4,9.4-2.8
						c6.9-4.5,6.6-6.5,10.9-8.2c4.3-1.7,7.6-1.7,8.1-4.2c0.3-1.3,0-3-0.7-4.7C94-30.3,89.8-30.7,83.2-25.6z"/>
					<g>
						<defs>
							<path id="SVGID_11_" d="M59.3-23c2.7,6.8,6.9,10.7,7.9,12.2c1,1.5,4,2.8,10.9-1.6S84.7-19,89-20.7c4.3-1.7,7.6-1.7,8.1-4.2
								s-0.7-6.1-3.9-9.4c-3.2-3.3-2.7-5.8-5.2-9.6c-2.5-3.8-6.8-2.1-15.4,4.6c-3.9,3-5.3,3.5-10.7,6.9S57.6-27.3,59.3-23z"/>
						</defs>
						<clipPath id="SVGID_12_">
							<use xlink:href="#SVGID_11_"  style="overflow:visible;"/>
						</clipPath>
						<line class="st30" x1="57.6" y1="-21.4" x2="75.2" y2="-32.8"/>
						<line class="st30" x1="59.6" y1="-18.4" x2="77.1" y2="-29.8"/>
						<line class="st30" x1="61.6" y1="-15.3" x2="79.1" y2="-26.7"/>
					</g>
				</g>
			</g>
			<g>
				<path class="st31" d="M17.8,33c-1.4,0.1-4.8,0.9-3,3.6c1.8,2.7,0.9,7.9,3.7,11.2c2.8,3.3,3.3,19.3,9.1,17.4
					c2.6-0.8,8.8-3.6,14.1-5.1c5.2-1.6,9.5-3.8,11.4-4.5c1.9-0.8,7.4-3.4,8.7-3.9c1.3-0.5-2.8-7.2-3.2-10c-0.4-2.8-3.7-3.9-3.5-6.9
					s-2.3-4-2.3-5.9c0-1.9-2.3-5.9-2.3-5.9L48,20.5c0,0-7.1,2.3-10.8,4.3c-3.6,1.9-6.8,3.2-10.8,4.3C22.5,30.2,17.8,33,17.8,33z"/>
				<g class="st32">
					<defs>
						<path id="SVGID_13_" class="st32" d="M17.8,33c-1.4,0.1-4.8,0.9-3,3.6s0.9,7.9,3.7,11.2s3.3,19.3,9.1,17.4
							c2.6-0.8,8.8-3.6,14.1-5.1c5.2-1.6,9.5-3.8,11.4-4.5s7.4-3.4,8.7-3.9c1.3-0.5-2.8-7.2-3.2-10s-3.7-3.9-3.5-6.9
							c0.3-3-2.3-4-2.3-5.9c0-1.9-2.3-5.9-2.3-5.9L48,20.6c0,0-7.1,2.3-10.8,4.3c-3.6,1.9-6.8,3.2-10.8,4.3S17.8,33,17.8,33z"/>
					</defs>
					<clipPath id="SVGID_14_">
						<use xlink:href="#SVGID_13_"  style="overflow:visible;"/>
					</clipPath>
					<path class="st33" d="M13.3,38.5c0,0,3.2-1.3,3.8-1.5c0.6-0.3,2.7,1.2,2.7,1.2s0.6,3.4-1.5,3.6c-2.2,0.1-2.2,0.1-3.7,0
						S13.3,38.5,13.3,38.5z"/>
					<path class="st33" d="M33.7,34.1c0,0,3.2-1.3,3.8-1.5c0.6-0.3,2.7,1.2,2.7,1.2s0.6,3.4-1.5,3.6c-2.2,0.1-2.2,0.1-3.7,0
						S33.7,34.1,33.7,34.1z"/>
					<path class="st33" d="M16.3,32.9c0,0,3.2-1.3,3.8-1.5s2.7,1.2,2.7,1.2s0.6,3.4-1.5,3.6c-2.2,0.1-2.2,0.1-3.7,0
						C16,36,16.3,32.9,16.3,32.9z"/>
					<path class="st33" d="M20.8,55.5c0,0,3.2-1.3,3.8-1.5c0.6-0.3,2.7,1.2,2.7,1.2s0.6,3.4-1.5,3.6c-2.2,0.1-2.2,0.1-3.7,0
						C20.5,58.5,20.8,55.5,20.8,55.5z"/>
					<path class="st33" d="M26.1,37.2c0,0,3.2-1.3,3.8-1.5c0.6-0.3,2.7,1.2,2.7,1.2s0.6,3.4-1.5,3.6s-2.2,0.1-3.7,0
						C25.8,40.2,26.1,37.2,26.1,37.2z"/>
					<path class="st33" d="M36.6,43.3c0,0,3.2-1.3,3.8-1.5c0.6-0.3,2.7,1.2,2.7,1.2s0.6,3.4-1.5,3.6c-2.2,0.1-2.2,0.1-3.7,0
						C36.3,46.3,36.6,43.3,36.6,43.3z"/>
					<path class="st33" d="M34.6,38.9c0,0,1.8-0.7,2.1-0.9c0.4-0.1,1.5,0.6,1.5,0.6s0.4,1.9-0.9,2s-1.2,0.1-2.1,0
						C34.4,40.6,34.6,38.9,34.6,38.9z"/>
					<path class="st33" d="M28.4,53.2c0,0,1.8-0.7,2.1-0.9c0.4-0.1,1.5,0.6,1.5,0.6s0.4,1.9-0.9,2C30,55,30,55,29.1,55
						C28.3,54.9,28.4,53.2,28.4,53.2z"/>
					<path class="st33" d="M27.6,59.4c0,0,3.8-1.5,4.6-1.8c0.8-0.3,2.6-0.1,2.6-0.1s-0.2,1.6-2.6,2.3c-2.4,0.6-2.4,0.6-4,1
						C26.5,61.1,27.6,59.4,27.6,59.4z"/>
					<path class="st33" d="M29.9,28.3c0,0,3.2-1.3,3.8-1.5c0.6-0.3,2.7,1.2,2.7,1.2s0.6,3.4-1.5,3.6c-2.2,0.1-2.2,0.1-3.7,0
						C29.6,31.3,29.9,28.3,29.9,28.3z"/>
					<path class="st33" d="M21.1,37.6c1-1.1,1.8-2.9,2.7-2.5c0.9,0.4,3.3,0.9,2.7,1.2c-0.6,0.3-2,2.3-3.1,3.4
						c-1,1.1-2.2,0.1-2.2,0.1L21.1,37.6z"/>
					<path class="st33" d="M38,28.7c0.8-0.9,1.4-2.2,2-1.9s2.5,0.7,2,0.9s-1.6,1.7-2.3,2.6c-0.8,0.9-1.6,0.1-1.6,0.1L38,28.7z"/>
					<path class="st33" d="M25.1,31.4c-0.2-0.4,1.3,0.9,1.9,1.2c0.6,0.2,1.6-0.7,1.6-0.7l-0.2-1.8l-1.5-1.3l-2.1,0.8L25.1,31.4z"/>
					<path class="st33" d="M30.2,45.8c-0.3-0.6,2,1.4,2.9,1.8c0.9,0.4,2.5-1,2.5-1l-0.4-2.8l-2.2-2.1L29.9,43L30.2,45.8z"/>
					<path class="st33" d="M21.9,63.9c-0.3-0.6,2,1.4,2.9,1.8s2.5-1,2.5-1L27,61.9l-2.2-2.1l-3.2,1.3L21.9,63.9z"/>
					<path class="st33" d="M15.1,43.7c0,0,1.8-0.7,2.2-0.9c0.4-0.1,1.5,0.7,1.5,0.7s0.4,2-0.9,2.1s-1.3,0.1-2.1,0
						C15,45.5,15.1,43.7,15.1,43.7z"/>
					<path class="st33" d="M23.9,48.3c0,0,3.2-1.3,3.8-1.5c0.6-0.3,2.7,1.2,2.7,1.2s0.6,3.4-1.5,3.6c-2.2,0.1-2.2,0.1-3.7,0
						C23.6,51.4,23.9,48.3,23.9,48.3z"/>
					<path class="st33" d="M18.9,48.8c1-1.1,1.8-2.9,2.7-2.5c0.9,0.4,3.3,0.9,2.7,1.2c-0.6,0.3-2,2.3-3.1,3.4C20.2,52,19,51,19,51
						L18.9,48.8z"/>
					<path class="st33" d="M33.3,53.5c1-1.1,1.8-2.9,2.7-2.5s3.3,0.9,2.7,1.2c-0.6,0.3-2,2.3-3.1,3.4c-1,1.1-2.2,0.1-2.2,0.1
						L33.3,53.5z"/>
					<path class="st33" d="M22.8,43.9c-0.1-0.4,1.2,0.8,1.7,1.1s1.5-0.6,1.5-0.6l-0.2-1.7l-1.3-1.2l-1.9,0.8L22.8,43.9z"/>
					<path class="st33" d="M41.1,30.4c0,0,3.2-1.3,3.8-1.5c0.6-0.3,2.7,1.2,2.7,1.2s0.6,3.4-1.5,3.6s-2.2,0.1-3.7,0
						S41.1,30.4,41.1,30.4z"/>
					<path class="st33" d="M44.1,24.9c0,0,3.2-1.3,3.8-1.5c0.6-0.3,2.7,1.2,2.7,1.2s0.6,3.4-1.5,3.6c-2.2,0.1-2.2,0.1-3.7,0
						C43.8,27.9,44.1,24.9,44.1,24.9z"/>
					<path class="st33" d="M41.2,51.1c0,0,3.2-1.3,3.8-1.5c0.6-0.3,2.7,1.2,2.7,1.2s0.6,3.4-1.5,3.6c-2.2,0.1-2.2,0.1-3.7,0
						S41.2,51.1,41.2,51.1z"/>
					<path class="st33" d="M48.6,47.4c0,0,3.2-1.3,3.8-1.5c0.6-0.3,2.7,1.2,2.7,1.2s0.6,3.4-1.5,3.6c-2.2,0.1-2.2,0.1-3.7,0
						S48.6,47.4,48.6,47.4z"/>
					<path class="st33" d="M56.2,45.1c0,0,1.8-0.7,2.1-0.9c0.4-0.1,1.5,0.6,1.5,0.6s0.4,1.9-0.9,2c-1.2,0.1-1.2,0.1-2.1,0
						S56.2,45.1,56.2,45.1z"/>
					<path class="st33" d="M43.2,56.9c0,0,1.8-0.7,2.1-0.9s1.5,0.6,1.5,0.6s0.4,1.9-0.9,2c-1.2,0.1-1.2,0.1-2.1,0
						S43.2,56.9,43.2,56.9z"/>
					<path class="st33" d="M37.5,55.5c0,0,1.8-0.7,2.1-0.9c0.4-0.1,1.5,0.6,1.5,0.6s0.4,1.9-0.9,2c-1.2,0.1-1.2,0.1-2.1,0
						C37.3,57.2,37.5,55.5,37.5,55.5z"/>
					<path class="st33" d="M55.4,51.3c0,0,3.8-1.5,4.6-1.8c0.8-0.3,2.6-0.1,2.6-0.1S62.4,51,60,51.7s-2.4,0.6-4,1
						C54.3,53,55.4,51.3,55.4,51.3z"/>
					<path class="st33" d="M48.9,29.6c1-1.1,1.8-2.9,2.7-2.5c0.9,0.4,3.3,0.9,2.7,1.2c-0.6,0.3-2,2.3-3.1,3.4
						c-1,1.1-2.2,0.1-2.2,0.1L48.9,29.6z"/>
					<path class="st33" d="M29.3,64.3c-0.2-0.4,1.3,0.9,1.9,1.2c0.6,0.2,1.6-0.7,1.6-0.7L32.6,63l-1.5-1.3l-2.1,0.8L29.3,64.3z"/>
					<path class="st33" d="M49.7,55.8c-0.3-0.6,2,1.4,2.9,1.8c0.9,0.4,2.5-1,2.5-1l-0.4-2.8l-2.2-2.1L49.3,53L49.7,55.8z"/>
					<path class="st33" d="M42.9,35.6c0,0,1.8-0.7,2.2-0.9c0.4-0.1,1.5,0.7,1.5,0.7s0.4,2-0.9,2.1s-1.3,0.1-2.1,0
						C42.7,37.4,42.9,35.6,42.9,35.6z"/>
					<path class="st33" d="M51.6,40.3c0,0,3.2-1.3,3.8-1.5s2.7,1.2,2.7,1.2s0.6,3.4-1.5,3.6s-2.2,0.1-3.7,0S51.6,40.3,51.6,40.3z"/>
					<path class="st33" d="M35.4,60.7c0,0,3.2-1.3,3.8-1.5c0.6-0.3,2.7,1.2,2.7,1.2s0.6,3.4-1.5,3.6s-2.2,0.1-3.7,0
						C35.1,63.8,35.4,60.7,35.4,60.7z"/>
					<path class="st33" d="M46.7,40.8c1-1.1,1.8-2.9,2.7-2.5c0.9,0.4,3.3,0.9,2.7,1.2c-0.6,0.3-2,2.3-3.1,3.4
						c-1,1.1-2.2,0.1-2.2,0.1L46.7,40.8z"/>
					<path class="st33" d="M38.5,50c1.4-0.2,2.9-0.1,3.4-0.6c0.5-0.6,2.2-2,1.5-1.7c-0.6,0.3-2.8,0.4-4.2,0.6s-1.8,1.1-1.8,1.1
						L38.5,50z"/>
					<path class="st33" d="M50.6,35.8c-0.1-0.4,1.2,0.8,1.7,1.1c0.5,0.2,1.5-0.6,1.5-0.6l-0.2-1.7l-1.3-1.2l-1.9,0.8L50.6,35.8z"/>
				</g>
				<g>
					<path class="st34" d="M58.5,41.5c-0.4-2.8-3.7-3.9-3.5-6.9c0.1-1-0.1-1.8-0.5-2.4c-0.3-0.3-0.5-0.7-0.8-1.2
						c-0.5-0.7-1.1-1.4-1.1-2.3c0,0,0,0,0,0c0,0,0-0.1,0-0.1c-2.3-5.7-2.3-5.7-2.3-5.7l-0.2-0.2L48,20.4c0,0-0.2,0.1-0.7,0.2
						c0.3,0.7,0.6,1.5,1,2.4c1,2.5,2.4,4.2,2.8,7c0.4,2.8,1.6,6,2.8,7c1.1,1,2.7,4.8,2.7,4.8l3.1,4.5l2.2,5.1
						C63,51,58.9,44.3,58.5,41.5z"/>
					<path class="st34" d="M27.9,65c-0.6-1.4-0.9-2.6-0.9-3.6c0.3-4.2-7.7-4.5-5.7-9.4c0.7-1.6,0.4-2.7-0.1-3.6
						c-0.5-0.4-1-0.9-1.5-1.6c-1-0.9-2-1.7-1.7-3.1c0,0,0,0,0,0c0-0.1,0-0.1-0.1-0.1c-3.2-8.1-3.2-8.1-3.2-8.1l-0.5-0.3L14.2,35
						c0,0.4,0.1,0.9,0.5,1.4c1.8,2.7,0.9,7.9,3.7,11.2s3.3,19.3,9.1,17.4C27.7,65.1,27.8,65,27.9,65z"/>
				</g>
			</g>
			<g>
				<path class="st31" d="M40.4,23.3c-1.3,0.6-4.1,2.6-1.4,4.4s3.8,7,7.6,9.1c3.8,2.1,10.1,16.8,14.8,12.9c2.1-1.7,6.9-6.5,11.2-9.9
					c4.3-3.4,7.5-7,9-8.4c1.5-1.4,5.7-5.9,6.7-6.8c1-0.9-5.3-5.6-6.6-8.1c-1.4-2.5-4.9-2.3-5.8-5.2c-0.9-2.9-3.6-2.9-4.3-4.6
					S67.1,2,67.1,2L64,0.6c0,0-5.8,4.8-8.5,7.9S50.3,14,47,16.4S40.4,23.3,40.4,23.3z"/>
				<g class="st32">
					<defs>
						<path id="SVGID_15_" class="st32" d="M40.3,23.3c-1.3,0.6-4.1,2.6-1.4,4.4s3.8,7,7.6,9.1c3.8,2.1,10.1,16.8,14.8,12.9
							c2.1-1.7,6.9-6.5,11.2-9.9c4.3-3.4,7.5-7,9-8.4c1.5-1.4,5.7-5.9,6.7-6.8c1-0.9-5.3-5.6-6.6-8.1c-1.4-2.5-4.9-2.3-5.8-5.2
							s-3.6-2.9-4.3-4.6C70.7,4.9,67.1,2,67.1,2L64,0.6c0,0-5.8,4.8-8.5,7.9c-2.7,3.1-5.2,5.4-8.5,7.9S40.3,23.3,40.3,23.3z"/>
					</defs>
					<clipPath id="SVGID_16_">
						<use xlink:href="#SVGID_15_"  style="overflow:visible;"/>
					</clipPath>
					<path class="st35" d="M38.2,30c0,0,2.5-2.3,3-2.8s2.9,0.1,2.9,0.1s1.8,3-0.1,3.9c-2,0.9-2,0.9-3.4,1.3
						C39.1,32.9,38.2,30,38.2,30z"/>
					<path class="st35" d="M55.6,18.5c0,0,2.5-2.3,3-2.8c0.5-0.5,2.9,0.1,2.9,0.1s1.8,3-0.1,3.9c-2,0.9-2,0.9-3.4,1.3
						C56.5,21.4,55.6,18.5,55.6,18.5z"/>
					<path class="st35" d="M38.9,23.7c0,0,2.5-2.3,3-2.8c0.5-0.5,2.9,0.1,2.9,0.1s1.8,3-0.1,3.9c-2,0.9-2,0.9-3.4,1.3
						C39.8,26.7,38.9,23.7,38.9,23.7z"/>
					<path class="st35" d="M51.3,43.1c0,0,2.5-2.3,3-2.8c0.5-0.5,2.9,0.1,2.9,0.1s1.8,3-0.1,3.9s-2,0.9-3.4,1.3
						C52.2,46,51.3,43.1,51.3,43.1z"/>
					<path class="st35" d="M49.6,24.1c0,0,2.5-2.3,3-2.8c0.5-0.5,2.9,0.1,2.9,0.1s1.8,3-0.1,3.9c-2,0.9-2,0.9-3.4,1.3
						C50.4,27,49.6,24.1,49.6,24.1z"/>
					<path class="st35" d="M61.6,26c0,0,2.5-2.3,3-2.8c0.5-0.5,2.9,0.1,2.9,0.1s1.8,3-0.1,3.9c-2,0.9-2,0.9-3.4,1.3
						C62.5,28.9,61.6,26,61.6,26z"/>
					<path class="st35" d="M58.2,22.6c0,0,1.4-1.3,1.7-1.6c0.3-0.3,1.6,0.1,1.6,0.1s1,1.7-0.1,2.2c-1.1,0.5-1.1,0.5-1.9,0.7
						C58.6,24.3,58.2,22.6,58.2,22.6z"/>
					<path class="st35" d="M57.6,38.1c0,0,1.4-1.3,1.7-1.6c0.3-0.3,1.6,0.1,1.6,0.1s1,1.7-0.1,2.2c-1.1,0.5-1.1,0.5-1.9,0.7
						C58.1,39.8,57.6,38.1,57.6,38.1z"/>
					<path class="st35" d="M59.1,44.2c0,0,3-2.8,3.6-3.4c0.6-0.6,2.4-1.1,2.4-1.1s0.4,1.6-1.6,3.1c-2,1.5-2,1.5-3.4,2.4
						C58.7,46.2,59.1,44.2,59.1,44.2z"/>
					<path class="st35" d="M49.9,14.4c0,0,2.5-2.3,3-2.8c0.5-0.5,2.9,0.1,2.9,0.1s1.8,3-0.1,3.9c-2,0.9-2,0.9-3.4,1.3
						C50.8,17.3,49.9,14.4,49.9,14.4z"/>
					<path class="st35" d="M45.1,26.4c0.5-1.4,0.6-3.4,1.6-3.3s3.4-0.4,2.9,0.1S48.5,26,48,27.4c-0.5,1.4-2,0.9-2,0.9L45.1,26.4z"/>
					<path class="st35" d="M57.6,11.9c0.4-1.1,0.5-2.6,1.2-2.5s2.6-0.3,2.2,0.1s-0.8,2.2-1.2,3.3c-0.4,1.1-1.5,0.7-1.5,0.7
						L57.6,11.9z"/>
					<path class="st35" d="M46.5,19.1c-0.3-0.3,1.6,0.4,2.2,0.4c0.6,0,1.3-1.2,1.3-1.2l-0.9-1.6l-1.8-0.7l-1.6,1.5L46.5,19.1z"/>
					<path class="st35" d="M56.6,30.6c-0.5-0.5,2.4,0.6,3.4,0.6c1,0,2-1.9,2-1.9l-1.4-2.5l-2.9-1.1l-2.5,2.4L56.6,30.6z"/>
					<path class="st35" d="M55.5,50.5c-0.5-0.5,2.4,0.6,3.4,0.6c1,0,2-1.9,2-1.9l-1.4-2.5l-2.9-1.1L54.1,48L55.5,50.5z"/>
					<path class="st35" d="M41.8,34.2c0,0,1.5-1.4,1.7-1.6c0.3-0.3,1.7,0.1,1.7,0.1s1.1,1.7-0.1,2.2s-1.1,0.5-2,0.8
						S41.8,34.2,41.8,34.2z"/>
					<path class="st35" d="M51.6,35.3c0,0,2.5-2.3,3-2.8c0.5-0.5,2.9,0.1,2.9,0.1s1.8,3-0.1,3.9s-2,0.9-3.4,1.3S51.6,35.3,51.6,35.3
						z"/>
					<path class="st35" d="M47.2,37.6c0.5-1.4,0.6-3.4,1.6-3.3s3.4-0.4,2.9,0.1c-0.5,0.5-1.1,2.9-1.6,4.3c-0.5,1.4-2,0.9-2,0.9
						L47.2,37.6z"/>
					<path class="st35" d="M62.2,36.6c0.5-1.4,0.6-3.4,1.6-3.3c1,0,3.4-0.4,2.9,0.1s-1.1,2.9-1.6,4.3c-0.5,1.4-2,0.9-2,0.9
						L62.2,36.6z"/>
					<path class="st35" d="M49,31.5c-0.3-0.3,1.4,0.3,2,0.4c0.6,0,1.2-1.1,1.2-1.1l-0.8-1.5l-1.7-0.7L48.2,30L49,31.5z"/>
					<path class="st35" d="M61.1,12.4c0,0,2.5-2.3,3-2.8C64.6,9.1,67,9.7,67,9.7s1.8,3-0.1,3.9c-2,0.9-2,0.9-3.4,1.3
						S61.1,12.4,61.1,12.4z"/>
					<path class="st35" d="M61.8,6.1c0,0,2.5-2.3,3-2.8s2.9,0.1,2.9,0.1s1.8,3-0.1,3.9c-2,0.9-2,0.9-3.4,1.3
						C62.7,9,61.8,6.1,61.8,6.1z"/>
					<path class="st35" d="M68.7,31.5c0,0,2.5-2.3,3-2.8c0.5-0.5,2.9,0.1,2.9,0.1s1.8,3-0.1,3.9c-2,0.9-2,0.9-3.4,1.3
						C69.6,34.5,68.7,31.5,68.7,31.5z"/>
					<path class="st35" d="M74.3,25.4c0,0,2.5-2.3,3-2.8c0.5-0.5,2.9,0.1,2.9,0.1s1.8,3-0.1,3.9c-2,0.9-2,0.9-3.4,1.3
						C75.1,28.4,74.3,25.4,74.3,25.4z"/>
					<path class="st35" d="M80.5,20.5c0,0,1.4-1.3,1.7-1.6c0.3-0.3,1.6,0.1,1.6,0.1s1,1.7-0.1,2.2c-1.1,0.5-1.1,0.5-1.9,0.7
						C81,22.1,80.5,20.5,80.5,20.5z"/>
					<path class="st35" d="M72.7,36.2c0,0,1.4-1.3,1.7-1.6s1.6,0.1,1.6,0.1s1,1.7-0.1,2.2c-1.1,0.5-1.1,0.5-1.9,0.7
						C73.2,37.9,72.7,36.2,72.7,36.2z"/>
					<path class="st35" d="M66.9,37c0,0,1.4-1.3,1.7-1.6s1.6,0.1,1.6,0.1s1,1.7-0.1,2.2c-1.1,0.5-1.1,0.5-1.9,0.7
						C67.4,38.6,66.9,37,66.9,37z"/>
					<path class="st35" d="M82.1,26.6c0,0,3-2.8,3.6-3.4s2.4-1.1,2.4-1.1s0.4,1.6-1.6,3.1s-2,1.5-3.4,2.4
						C81.7,28.5,82.1,26.6,82.1,26.6z"/>
					<path class="st35" d="M68,8.7c0.5-1.4,0.6-3.4,1.6-3.3S73,5,72.5,5.5c-0.5,0.5-1.1,2.9-1.6,4.3c-0.5,1.4-2,0.9-2,0.9L68,8.7z"
						/>
					<path class="st35" d="M62.5,48.2c-0.3-0.3,1.6,0.4,2.2,0.4s1.3-1.2,1.3-1.2l-0.9-1.6l-1.8-0.7l-1.6,1.5L62.5,48.2z"/>
					<path class="st35" d="M78.4,32.9c-0.5-0.5,2.4,0.6,3.4,0.6c1,0,2-1.9,2-1.9l-1.4-2.5L79.5,28L77,30.4L78.4,32.9z"/>
					<path class="st35" d="M64.7,16.5c0,0,1.5-1.4,1.7-1.6s1.7,0.1,1.7,0.1s1.1,1.7-0.1,2.2c-1.1,0.5-1.1,0.5-2,0.8
						C65.2,18.2,64.7,16.5,64.7,16.5z"/>
					<path class="st35" d="M74.5,17.7c0,0,2.5-2.3,3-2.8s2.9,0.1,2.9,0.1s1.8,3-0.1,3.9c-2,0.9-2,0.9-3.4,1.3
						C75.4,20.6,74.5,17.7,74.5,17.7z"/>
					<path class="st35" d="M66.9,42.6c0,0,2.5-2.3,3-2.8c0.5-0.5,2.9,0.1,2.9,0.1s1.8,3-0.1,3.9s-2,0.9-3.4,1.3S66.9,42.6,66.9,42.6
						z"/>
					<path class="st35" d="M70.1,19.9c0.5-1.4,0.6-3.4,1.6-3.3c1,0,3.4-0.4,2.9,0.1c-0.5,0.5-1.1,2.9-1.6,4.3c-0.5,1.4-2,0.9-2,0.9
						L70.1,19.9z"/>
					<path class="st35" d="M65.9,31.5c1.2-0.7,2.7-1.1,3-1.8s1.3-2.6,0.8-2.2c-0.5,0.5-2.5,1.4-3.7,2.1c-1.2,0.7-1.3,1.7-1.3,1.7
						L65.9,31.5z"/>
					<path class="st35" d="M71.9,13.9c-0.3-0.3,1.4,0.3,2,0.4c0.6,0,1.2-1.1,1.2-1.1l-0.8-1.5L72.6,11l-1.5,1.4L71.9,13.9z"/>
				</g>
				<g>
					<path class="st34" d="M81.4,16.3c-1.4-2.5-4.9-2.3-5.8-5.2c-0.3-1-0.8-1.6-1.3-2.1c-0.4-0.2-0.8-0.5-1.2-0.9
						c-0.8-0.5-1.5-0.9-1.8-1.7c0,0,0,0,0,0c0,0-0.1-0.1-0.1-0.1C67,1.9,67,1.9,67,1.9l-0.3-0.1l-2.9-1.3c0,0-0.2,0.2-0.5,0.4
						c0.5,0.5,1.1,1.2,1.8,1.9c1.9,2,3.8,3,5.1,5.5c1.4,2.5,3.7,5,5.1,5.5c1.4,0.5,4.2,3.5,4.2,3.5l4.5,3.1l3.9,4
						C89,23.5,82.8,18.8,81.4,16.3z"/>
					<path class="st34" d="M61.5,49.3c-1-1.1-1.8-2.1-2.1-3.1c-1.3-4-8.8-1.4-8.7-6.7c0-1.7-0.6-2.7-1.4-3.3
						c-0.6-0.2-1.3-0.5-1.9-0.9c-1.3-0.5-2.5-0.9-2.7-2.3c0,0,0,0,0,0c0,0-0.1-0.1-0.1-0.1c-5.9-6.3-5.9-6.3-5.9-6.3L38,26.5l-0.2,0
						c0.1,0.4,0.5,0.8,1,1.2c2.7,1.9,3.8,7,7.6,9.1s10.1,16.8,14.8,12.9C61.2,49.5,61.4,49.4,61.5,49.3z"/>
				</g>
			</g>
			<g>
				<path class="st31" d="M93.3,29.9c-0.7,1.3-2.8,4-4.5,1.2s-6.8-4.1-8.7-8c-1.9-3.9-16.3-10.9-12.2-15.5c1.8-2,6.9-6.6,10.5-10.7
					s7.3-7.1,8.8-8.6s6.2-5.4,7.2-6.3c1-1,5.4,5.5,7.8,7s2,5,4.9,6s2.7,3.7,4.4,4.6s4.4,4.6,4.4,4.6l1.2,3.2c0,0-5.1,5.6-8.3,8.1
					c-3.2,2.5-5.7,4.9-8.3,8.1C97.8,26.8,93.3,29.9,93.3,29.9z"/>
				<g class="st32">
					<defs>
						<path id="SVGID_17_" class="st32" d="M93.3,29.9c-0.7,1.3-2.8,4-4.5,1.2s-6.8-4.1-8.7-8c-1.9-3.9-16.3-10.9-12.2-15.5
							c1.8-2,6.9-6.6,10.5-10.7s7.3-7.1,8.8-8.6s6.2-5.4,7.2-6.3c1-1,5.4,5.5,7.8,7s2,5,4.9,6s2.7,3.7,4.4,4.6
							c1.8,0.8,4.4,4.6,4.4,4.6l1.2,3.2c0,0-5.1,5.6-8.3,8.1c-3.2,2.5-5.7,4.9-8.3,8.1C97.8,26.8,93.3,29.9,93.3,29.9z"/>
					</defs>
					<clipPath id="SVGID_18_">
						<use xlink:href="#SVGID_17_"  style="overflow:visible;"/>
					</clipPath>
					<path class="st36" d="M86.5,31.7c0,0,2.5-2.4,2.9-2.9c0.5-0.5,0-2.9,0-2.9s-2.9-2-3.9-0.1s-1,1.9-1.5,3.4
						C83.6,30.7,86.5,31.7,86.5,31.7z"/>
					<path class="st36" d="M98.8,15c0,0,2.5-2.4,2.9-2.9c0.5-0.5,0-2.9,0-2.9s-2.9-2-3.9-0.1s-1,1.9-1.5,3.4
						C95.9,13.9,98.8,15,98.8,15z"/>
					<path class="st36" d="M92.8,31.4c0,0,2.5-2.4,2.9-2.9c0.5-0.5,0-2.9,0-2.9s-2.9-2-3.9-0.1s-1,1.9-1.5,3.4
						C89.9,30.3,92.8,31.4,92.8,31.4z"/>
					<path class="st36" d="M74.1,18c0,0,2.5-2.4,2.9-2.9c0.5-0.5,0-2.9,0-2.9s-2.9-2-3.9-0.1c-1,1.9-1,1.9-1.5,3.4
						C71.2,17,74.1,18,74.1,18z"/>
					<path class="st36" d="M92.9,20.7c0,0,2.5-2.4,2.9-2.9c0.5-0.5,0-2.9,0-2.9s-2.9-2-3.9-0.1s-1,1.9-1.5,3.4
						C90,19.7,92.9,20.7,92.9,20.7z"/>
					<path class="st36" d="M91.6,8.5c0,0,2.5-2.4,2.9-2.9c0.5-0.5,0-2.9,0-2.9s-2.9-2-3.9-0.1c-1,1.9-1,1.9-1.5,3.4
						C88.8,7.5,91.6,8.5,91.6,8.5z"/>
					<path class="st36" d="M94.8,12.2c0,0,1.4-1.3,1.7-1.6c0.3-0.3,0-1.6,0-1.6s-1.6-1.1-2.2,0s-0.6,1.1-0.8,1.9
						C93.2,11.6,94.8,12.2,94.8,12.2z"/>
					<path class="st36" d="M79.3,12c0,0,1.4-1.3,1.7-1.6c0.3-0.3,0-1.6,0-1.6s-1.6-1.1-2.2,0c-0.6,1.1-0.6,1.1-0.8,1.9
						C77.7,11.4,79.3,12,79.3,12z"/>
					<path class="st36" d="M73.3,10.1c0,0,3-2.9,3.5-3.4C77.4,6.1,78,4.4,78,4.4s-1.6-0.5-3.2,1.5c-1.6,1.9-1.6,1.9-2.6,3.3
						S73.3,10.1,73.3,10.1z"/>
					<path class="st36" d="M102.6,20.8c0,0,2.5-2.4,2.9-2.9c0.5-0.5,0-2.9,0-2.9s-2.9-2-3.9-0.1s-1,1.9-1.5,3.4
						S102.6,20.8,102.6,20.8z"/>
					<path class="st36" d="M90.4,25c1.5-0.5,3.4-0.4,3.4-1.4c0-1,0.5-3.4,0-2.9c-0.5,0.5-2.9,0.9-4.4,1.4c-1.5,0.5-1,1.9-1,1.9
						L90.4,25z"/>
					<path class="st36" d="M105.5,13.2c1.1-0.4,2.6-0.3,2.6-1.1c0-0.7,0.4-2.6,0-2.2c-0.4,0.4-2.2,0.7-3.3,1.1
						c-1.1,0.4-0.8,1.5-0.8,1.5L105.5,13.2z"/>
					<path class="st36" d="M97.8,24c0.3,0.3-0.3-1.6-0.3-2.2c0-0.6,1.3-1.2,1.3-1.2l1.6,1l0.6,1.9l-1.6,1.6L97.8,24z"/>
					<path class="st36" d="M86.7,13.3c0.5,0.5-0.5-2.4-0.4-3.4c0-1,2-1.9,2-1.9l2.4,1.5l1,2.9l-2.5,2.4L86.7,13.3z"/>
					<path class="st36" d="M66.8,13.5c0.5,0.5-0.5-2.4-0.4-3.4s2-1.9,2-1.9l2.4,1.5l1,2.9L69.2,15L66.8,13.5z"/>
					<path class="st36" d="M82.5,28c0,0,1.4-1.4,1.7-1.7s0-1.7,0-1.7s-1.7-1.1-2.2,0c-0.6,1.1-0.6,1.1-0.9,2
						C80.8,27.4,82.5,28,82.5,28z"/>
					<path class="st36" d="M81.8,18.1c0,0,2.5-2.4,2.9-2.9c0.5-0.5,0-2.9,0-2.9s-2.9-2-3.9-0.1s-1,1.9-1.5,3.4S81.8,18.1,81.8,18.1z
						"/>
					<path class="st36" d="M79.3,22.4c1.5-0.5,3.4-0.4,3.4-1.4c0-1,0.5-3.4,0-2.9c-0.5,0.5-2.9,0.9-4.4,1.4c-1.5,0.5-1,1.9-1,1.9
						L79.3,22.4z"/>
					<path class="st36" d="M81,7.4C82.5,7,84.4,7,84.4,6c0-1,0.5-3.4,0-2.9S81.5,4,80.1,4.5c-1.5,0.5-1,1.9-1,1.9L81,7.4z"/>
					<path class="st36" d="M85.5,20.9c0.3,0.3-0.3-1.4-0.3-2s1.2-1.1,1.2-1.1l1.4,0.9l0.6,1.7l-1.5,1.4L85.5,20.9z"/>
					<path class="st36" d="M105.2,9.7c0,0,2.5-2.4,2.9-2.9c0.5-0.5,0-2.9,0-2.9s-2.9-2-3.9-0.1s-1,1.9-1.5,3.4S105.2,9.7,105.2,9.7z
						"/>
					<path class="st36" d="M111.5,9.3c0,0,2.5-2.4,2.9-2.9s0-2.9,0-2.9s-2.9-2-3.9-0.1s-1,1.9-1.5,3.4
						C108.6,8.3,111.5,9.3,111.5,9.3z"/>
					<path class="st36" d="M86.4,1.2c0,0,2.5-2.4,2.9-2.9c0.5-0.5,0-2.9,0-2.9s-2.9-2-3.9-0.1s-1,1.9-1.5,3.4
						C83.5,0.2,86.4,1.2,86.4,1.2z"/>
					<path class="st36" d="M92.8-4c0,0,2.5-2.4,2.9-2.9c0.5-0.5,0-2.9,0-2.9s-2.9-2-3.9-0.1s-1,1.9-1.5,3.4S92.8-4,92.8-4z"/>
					<path class="st36" d="M98-10.1c0,0,1.4-1.3,1.7-1.6c0.3-0.3,0-1.6,0-1.6s-1.6-1.1-2.2,0s-0.6,1.1-0.8,1.9
						C96.4-10.6,98-10.1,98-10.1z"/>
					<path class="st36" d="M81.9-3c0,0,1.4-1.3,1.7-1.6c0.3-0.3,0-1.6,0-1.6s-1.6-1.1-2.2,0s-0.6,1.1-0.8,1.9S81.9-3,81.9-3z"/>
					<path class="st36" d="M80.9,2.8c0,0,1.4-1.3,1.7-1.6s0-1.6,0-1.6s-1.6-1.1-2.2,0s-0.6,1.1-0.8,1.9S80.9,2.8,80.9,2.8z"/>
					<path class="st36" d="M92-11.9c0,0,3-2.9,3.5-3.4c0.6-0.6,1.2-2.3,1.2-2.3s-1.6-0.5-3.2,1.5C92-14.3,92-14.3,91-12.9
						S92-11.9,92-11.9z"/>
					<path class="st36" d="M109.2,3c1.5-0.5,3.4-0.4,3.4-1.4s0.5-3.4,0-2.9c-0.5,0.5-2.9,0.9-4.4,1.4s-1,1.9-1,1.9L109.2,3z"/>
					<path class="st36" d="M69.5,6.6c0.3,0.3-0.3-1.6-0.3-2.2c0-0.6,1.3-1.2,1.3-1.2l1.6,1L72.6,6L71,7.6L69.5,6.6z"/>
					<path class="st36" d="M85.6-8.5C86-8,85.1-11,85.1-11.9s2-1.9,2-1.9l2.4,1.5l1,2.9L88-7L85.6-8.5z"/>
					<path class="st36" d="M101.2,6c0,0,1.4-1.4,1.7-1.7s0-1.7,0-1.7s-1.7-1.1-2.2,0c-0.6,1.1-0.6,1.1-0.9,2S101.2,6,101.2,6z"/>
					<path class="st36" d="M100.5-3.9c0,0,2.5-2.4,2.9-2.9c0.5-0.5,0-2.9,0-2.9s-2.9-2-3.9-0.1s-1,1.9-1.5,3.4
						C97.7-4.9,100.5-3.9,100.5-3.9z"/>
					<path class="st36" d="M75.2,2.5c0,0,2.5-2.4,2.9-2.9c0.5-0.5,0-2.9,0-2.9s-2.9-2-3.9-0.1s-1,1.9-1.5,3.4
						C72.4,1.5,75.2,2.5,75.2,2.5z"/>
					<path class="st36" d="M98.1,0.4c1.5-0.5,3.4-0.4,3.4-1.4c0-1,0.5-3.4,0-2.9C101-3.4,98.6-3,97.1-2.5s-1,1.9-1,1.9L98.1,0.4z"/>
					<path class="st36" d="M86.3,4c0.7-1.2,1.2-2.6,2-2.9C89,0.9,91,0,90.5,0.5C90,0.9,89,2.9,88.2,4.1c-0.7,1.2-1.7,1.2-1.7,1.2
						L86.3,4z"/>
					<path class="st36" d="M104.2-1.1c0.3,0.3-0.3-1.4-0.3-2s1.2-1.1,1.2-1.1l1.4,0.9l0.6,1.7l-1.5,1.4L104.2-1.1z"/>
				</g>
				<g>
					<path class="st34" d="M102.2-10.7c2.4,1.5,2,5,4.9,6c0.9,0.3,1.6,0.8,2,1.4c0.2,0.4,0.5,0.8,0.8,1.2c0.4,0.8,0.8,1.5,1.6,1.9
						c0,0,0,0,0,0c0,0,0,0.1,0.1,0.1c4.3,4.4,4.3,4.4,4.3,4.4l0.1,0.3l1.1,3c0,0-0.2,0.2-0.5,0.5c-0.5-0.5-1.1-1.2-1.8-1.8
						c-1.9-2-2.9-3.9-5.3-5.4c-2.4-1.5-4.8-3.9-5.3-5.4S101.1-9,101.1-9l-2.9-4.7l-3.8-4.1C95.5-18.7,99.8-12.2,102.2-10.7z"/>
					<path class="st34" d="M68.3,7.6c1,1.1,2,1.9,3,2.3c4,1.5,1,8.8,6.2,9c1.7,0.1,2.7,0.7,3.2,1.6c0.2,0.6,0.4,1.3,0.9,2
						c0.4,1.3,0.8,2.6,2.1,2.8c0,0,0,0,0,0c0,0,0.1,0.1,0.1,0.1c6,6.2,6,6.2,6,6.2l0.1,0.5l0,0.2c-0.4-0.2-0.8-0.5-1.1-1.1
						c-1.7-2.8-6.8-4.1-8.7-8S63.9,12.5,68,7.9C68.1,7.8,68.2,7.7,68.3,7.6z"/>
				</g>
			</g>
		</g>
		<g>
			<circle class="st37" cx="170" cy="57.1" r="38.4"/>
			<circle class="st4" cx="170.3" cy="57.7" r="31.3"/>
			<g>
				<defs>
					<ellipse id="SVGID_19_" cx="170.6" cy="57.5" rx="38.6" ry="38.4"/>
				</defs>
				<clipPath id="SVGID_20_">
					<use xlink:href="#SVGID_19_"  style="overflow:visible;"/>
				</clipPath>
				<g class="st38">
					<g class="st39">
						<path class="st32" d="M124.9,46.6c0,0,1.3,0.3,1.5,0.3s0.6,0.9,0.6,0.9s-0.5,1.2-1.2,0.8c-0.7-0.4-0.7-0.4-1.2-0.8
							C124.2,47.5,124.9,46.6,124.9,46.6z"/>
						<path class="st32" d="M124.1,42.2c0,0,2.3,0.5,2.7,0.5c0.5,0.1,1.1,1.6,1.1,1.6s-0.9,2.2-2.2,1.4c-1.3-0.7-1.3-0.7-2.1-1.4
							C122.9,43.8,124.1,42.2,124.1,42.2z"/>
						<path d="M127.5,48.5c1-0.3,2.1-1,2.4-0.4c0.4,0.5,1.5,1.7,1.1,1.6c-0.5-0.1-2,0.5-3,0.8c-1,0.3-1.3-0.7-1.3-0.7L127.5,48.5z"
							/>
						<path d="M138.3,28.8c0,0,1.3,0.3,1.5,0.3s0.6,0.9,0.6,0.9s-0.5,1.2-1.2,0.8c-0.7-0.4-0.7-0.4-1.2-0.8
							C137.6,29.7,138.3,28.8,138.3,28.8z"/>
						<path class="st4" d="M151.2,35.9c0,0,2.3,0.5,2.7,0.5s1.1,1.6,1.1,1.6s-0.9,2.2-2.2,1.4c-1.3-0.7-1.3-0.7-2.1-1.4
							C149.9,37.5,151.2,35.9,151.2,35.9z"/>
						<path d="M122,38.1c0.1-0.5,0.6,1.5,1,2.1c0.4,0.5,1.8,0.4,1.8,0.4l0.8-1.7l-0.5-2l-2.3-0.4L122,38.1z"/>
						<path class="st4" d="M143,38.6c0,0,2.3,0.5,2.7,0.5c0.5,0.1,1.1,1.6,1.1,1.6s-0.9,2.2-2.2,1.4c-1.3-0.7-1.3-0.7-2.1-1.4
							C141.8,40.2,143,38.6,143,38.6z"/>
						<path d="M133.8,39.1c0,0,1.3,0.3,1.5,0.3c0.3,0.1,0.6,0.9,0.6,0.9s-0.5,1.2-1.2,0.8c-0.7-0.4-0.7-0.4-1.2-0.8
							C133.1,40,133.8,39.1,133.8,39.1z"/>
						<path d="M120.1,47.3c0,0,1.3,0.3,1.5,0.3c0.3,0.1,0.6,0.9,0.6,0.9s-0.5,1.2-1.2,0.8c-0.7-0.4-0.7-0.4-1.2-0.8
							C119.4,48.2,120.1,47.3,120.1,47.3z"/>
						<path class="st5" d="M133,54.5c0,0,2.3,0.5,2.7,0.5c0.5,0.1,1.1,1.6,1.1,1.6s-0.9,2.2-2.2,1.4c-1.3-0.7-1.3-0.7-2.1-1.4
							C131.8,56.1,133,54.5,133,54.5z"/>
						<path class="st32" d="M124.9,57.2c0,0,2.3,0.5,2.7,0.5c0.5,0.1,1.1,1.6,1.1,1.6s-0.9,2.2-2.2,1.4s-1.3-0.7-2.1-1.4
							C123.6,58.8,124.9,57.2,124.9,57.2z"/>
						<path d="M148.3,53.6c0,0,1.3,0.3,1.6,0.3c0.3,0.1,0.6,0.9,0.6,0.9s-0.5,1.3-1.3,0.8s-0.7-0.4-1.2-0.8
							C147.6,54.6,148.3,53.6,148.3,53.6z"/>
						<path class="st4" d="M151.6,59.4c0,0,2.3,0.5,2.7,0.5c0.5,0.1,1.1,1.6,1.1,1.6s-0.9,2.2-2.2,1.4c-1.3-0.7-1.3-0.7-2.1-1.4
							C150.3,61,151.6,59.4,151.6,59.4z"/>
						<path class="st4" d="M136.7,45.6c0,0,2.3,0.5,2.7,0.5c0.5,0.1,1.1,1.6,1.1,1.6s-0.9,2.2-2.2,1.4c-1.3-0.7-1.3-0.7-2.1-1.4
							C135.4,47.2,136.7,45.6,136.7,45.6z"/>
						<path d="M130.9,59.9c0,0,2.3,0.5,2.7,0.5c0.5,0.1,1.1,1.6,1.1,1.6s-0.9,2.2-2.2,1.4c-1.3-0.7-1.3-0.7-2.1-1.4
							C129.7,61.5,130.9,59.9,130.9,59.9z"/>
						<path class="st4" d="M140.6,51.6c0,0,2.3,0.5,2.7,0.5c0.5,0.1,1.1,1.6,1.1,1.6s-0.9,2.2-2.2,1.4c-1.3-0.7-1.3-0.7-2.1-1.4
							C139.4,53.2,140.6,51.6,140.6,51.6z"/>
						<path class="st4" d="M144.3,58.9c0,0,2.3,0.5,2.7,0.5c0.5,0.1,1.1,1.6,1.1,1.6s-0.9,2.2-2.2,1.4s-1.3-0.7-2.1-1.4
							C143,60.5,144.3,58.9,144.3,58.9z"/>
						<path class="st4" d="M151.6,53.3c0,0,2.3,0.5,2.7,0.5s1.1,1.6,1.1,1.6s-0.9,2.2-2.2,1.4s-1.3-0.7-2.1-1.4
							C150.3,54.9,151.6,53.3,151.6,53.3z"/>
						<path class="st5" d="M155.3,51.2c0,0,2.3,0.5,2.7,0.5c0.5,0.1,1.1,1.6,1.1,1.6s-0.9,2.2-2.2,1.4s-1.3-0.7-2.1-1.4
							S155.3,51.2,155.3,51.2z"/>
						<path d="M148.6,57.9c1-0.3,2.1-1,2.4-0.4c0.4,0.5,1.5,1.7,1.1,1.6c-0.5-0.1-2,0.5-3,0.8c-1,0.3-1.3-0.7-1.3-0.7L148.6,57.9z"
							/>
						<path d="M131.8,48.5c0.9,0.4,1.7,1,2.2,0.9c0.5-0.1,1.9-0.3,1.5-0.4c-0.5-0.1-1.7-0.8-2.6-1.2c-0.9-0.4-1.4,0-1.4,0
							L131.8,48.5z"/>
						<g class="st40">
							<path class="st5" d="M132.5,31c0,0,2.3,0.5,2.7,0.5c0.5,0.1,1.1,1.6,1.1,1.6s-0.9,2.2-2.2,1.4c-1.3-0.7-1.3-0.7-2.1-1.4
								C131.2,32.6,132.5,31,132.5,31z"/>
							<path class="st5" d="M145.6,35.9c0,0,2.3,0.5,2.7,0.5c0.5,0.1,1.1,1.6,1.1,1.6s-0.9,2.2-2.2,1.4c-1.3-0.7-1.3-0.7-2.1-1.4
								C144.3,37.6,145.6,35.9,145.6,35.9z"/>
							<path class="st5" d="M127.7,36.6c0.1-0.5,0.6,1.5,1,2.1c0.4,0.5,1.8,0.4,1.8,0.4l0.8-1.7l-0.5-2l-2.3-0.4L127.7,36.6z"/>
							<path class="st5" d="M155.8,38.9c1-0.3,2.1-1,2.4-0.4c0.4,0.5,1.5,1.7,1.1,1.6c-0.5-0.1-2,0.5-3,0.8c-1,0.3-1.3-0.7-1.3-0.7
								L155.8,38.9z"/>
							<path class="st5" d="M132,51.3c0.1-0.3,0.4,1,0.6,1.3c0.2,0.3,1.2,0.2,1.2,0.2l0.5-1.1l-0.3-1.3l-1.5-0.3L132,51.3z"/>
							<path class="st5" d="M154.5,43.1c0.1-0.3,0.4,0.9,0.6,1.2c0.2,0.3,1.1,0.2,1.1,0.2l0.5-1l-0.3-1.2l-1.4-0.3L154.5,43.1z"/>
						</g>
					</g>
					<g class="st39">
						<path class="st32" d="M139.8,21c0,0,1.3,0.3,1.5,0.3c0.3,0.1,0.6,0.9,0.6,0.9s-0.5,1.2-1.2,0.8c-0.7-0.4-0.7-0.4-1.2-0.8
							C139.1,22,139.8,21,139.8,21z"/>
						<path d="M142.4,23c1-0.3,2.1-1,2.4-0.4s1.5,1.7,1.1,1.6c-0.5-0.1-2,0.5-3,0.8c-1,0.3-1.3-0.7-1.3-0.7L142.4,23z"/>
						<path d="M135,21.8c0,0,1.3,0.3,1.5,0.3c0.3,0.1,0.6,0.9,0.6,0.9s-0.5,1.2-1.2,0.8c-0.7-0.4-0.7-0.4-1.2-0.8
							C134.3,22.7,135,21.8,135,21.8z"/>
						<path class="st5" d="M147.9,28.9c0,0,2.3,0.5,2.7,0.5c0.5,0.1,1.1,1.6,1.1,1.6s-0.9,2.2-2.2,1.4c-1.3-0.7-1.3-0.7-2.1-1.4
							C146.7,30.6,147.9,28.9,147.9,28.9z"/>
						<path class="st32" d="M139.8,31.7c0,0,2.3,0.5,2.7,0.5c0.5,0.1,1.1,1.6,1.1,1.6s-0.9,2.2-2.2,1.4c-1.3-0.7-1.3-0.7-2.1-1.4
							C138.5,33.3,139.8,31.7,139.8,31.7z"/>
						<path class="st4" d="M151.6,20.1c0,0,2.3,0.5,2.7,0.5c0.5,0.1,1.1,1.6,1.1,1.6s-0.9,2.2-2.2,1.4c-1.3-0.7-1.3-0.7-2.1-1.4
							C150.3,21.7,151.6,20.1,151.6,20.1z"/>
						<path d="M145.8,34.4c0,0,2.3,0.5,2.7,0.5c0.5,0.1,1.1,1.6,1.1,1.6s-0.9,2.2-2.2,1.4c-1.3-0.7-1.3-0.7-2.1-1.4
							C144.6,36,145.8,34.4,145.8,34.4z"/>
						<path class="st4" d="M155.5,26c0,0,2.3,0.5,2.7,0.5c0.5,0.1,1.1,1.6,1.1,1.6s-0.9,2.2-2.2,1.4s-1.3-0.7-2.1-1.4
							C154.3,27.7,155.5,26,155.5,26z"/>
						<path class="st4" d="M159.2,33.3c0,0,2.3,0.5,2.7,0.5c0.5,0.1,1.1,1.6,1.1,1.6s-0.9,2.2-2.2,1.4c-1.3-0.7-1.3-0.7-2.1-1.4
							C157.9,35,159.2,33.3,159.2,33.3z"/>
						<path d="M146.7,23c0.9,0.4,1.7,1,2.2,0.9c0.5-0.1,1.9-0.3,1.5-0.4c-0.5-0.1-1.7-0.8-2.6-1.2c-0.9-0.4-1.4,0-1.4,0L146.7,23z"
							/>
						<path class="st5" d="M146.9,25.8c0.1-0.3,0.4,1,0.6,1.3c0.2,0.3,1.2,0.2,1.2,0.2l0.5-1.1l-0.3-1.3l-1.5-0.3L146.9,25.8z"/>
					</g>
				</g>
				<g class="st38">
					<g class="st39">
						<path class="st32" d="M177.3,64.3c0,0,1.3,0.3,1.5,0.3c0.3,0.1,0.6,0.9,0.6,0.9s-0.5,1.2-1.2,0.8c-0.7-0.4-0.7-0.4-1.2-0.8
							C176.6,65.2,177.3,64.3,177.3,64.3z"/>
						<path class="st32" d="M176.5,59.9c0,0,2.3,0.5,2.7,0.5c0.5,0.1,1.1,1.6,1.1,1.6s-0.9,2.2-2.2,1.4c-1.3-0.7-1.3-0.7-2.1-1.4
							C175.2,61.6,176.5,59.9,176.5,59.9z"/>
						<path d="M179.9,66.2c1-0.3,2.1-1,2.4-0.4c0.4,0.5,1.5,1.7,1.1,1.6c-0.5-0.1-2,0.5-3,0.8c-1,0.3-1.3-0.7-1.3-0.7L179.9,66.2z"
							/>
						<path d="M190.7,46.5c0,0,1.3,0.3,1.5,0.3c0.3,0.1,0.6,0.9,0.6,0.9s-0.5,1.2-1.2,0.8c-0.7-0.4-0.7-0.4-1.2-0.8
							C189.9,47.4,190.7,46.5,190.7,46.5z"/>
						<path class="st4" d="M203.6,53.6c0,0,2.3,0.5,2.7,0.5c0.5,0.1,1.1,1.6,1.1,1.6s-0.9,2.2-2.2,1.4c-1.3-0.7-1.3-0.7-2.1-1.4
							C202.3,55.3,203.6,53.6,203.6,53.6z"/>
						<path d="M174.4,55.9c0.1-0.5,0.6,1.5,1,2.1c0.4,0.5,1.8,0.4,1.8,0.4l0.8-1.7l-0.5-2l-2.3-0.4L174.4,55.9z"/>
						<path class="st4" d="M195.4,56.4c0,0,2.3,0.5,2.7,0.5c0.5,0.1,1.1,1.6,1.1,1.6s-0.9,2.2-2.2,1.4c-1.3-0.7-1.3-0.7-2.1-1.4
							C194.1,58,195.4,56.4,195.4,56.4z"/>
						<path d="M186.2,56.9c0,0,1.3,0.3,1.5,0.3s0.6,0.9,0.6,0.9s-0.5,1.2-1.2,0.8c-0.7-0.4-0.7-0.4-1.2-0.8
							C185.5,57.8,186.2,56.9,186.2,56.9z"/>
						<path d="M172.5,65.1c0,0,1.3,0.3,1.5,0.3s0.6,0.9,0.6,0.9s-0.5,1.2-1.2,0.8c-0.7-0.4-0.7-0.4-1.2-0.8
							C171.8,66,172.5,65.1,172.5,65.1z"/>
						<path class="st5" d="M185.4,72.2c0,0,2.3,0.5,2.7,0.5c0.5,0.1,1.1,1.6,1.1,1.6s-0.9,2.2-2.2,1.4c-1.3-0.7-1.3-0.7-2.1-1.4
							C184.2,73.8,185.4,72.2,185.4,72.2z"/>
						<path class="st32" d="M177.3,74.9c0,0,2.3,0.5,2.7,0.5c0.5,0.1,1.1,1.6,1.1,1.6s-0.9,2.2-2.2,1.4c-1.3-0.7-1.3-0.7-2.1-1.4
							C176,76.6,177.3,74.9,177.3,74.9z"/>
						<path d="M200.7,71.4c0,0,1.3,0.3,1.6,0.3s0.6,0.9,0.6,0.9s-0.5,1.3-1.3,0.8c-0.7-0.4-0.7-0.4-1.2-0.8
							C200,72.3,200.7,71.4,200.7,71.4z"/>
						<path class="st4" d="M203.9,77.2c0,0,2.3,0.5,2.7,0.5c0.5,0.1,1.1,1.6,1.1,1.6s-0.9,2.2-2.2,1.4c-1.3-0.7-1.3-0.7-2.1-1.4
							C202.7,78.8,203.9,77.2,203.9,77.2z"/>
						<path class="st4" d="M189.1,63.3c0,0,2.3,0.5,2.7,0.5s1.1,1.6,1.1,1.6s-0.9,2.2-2.2,1.4c-1.3-0.7-1.3-0.7-2.1-1.4
							S189.1,63.3,189.1,63.3z"/>
						<path d="M183.3,77.7c0,0,2.3,0.5,2.7,0.5c0.5,0.1,1.1,1.6,1.1,1.6s-0.9,2.2-2.2,1.4c-1.3-0.7-1.3-0.7-2.1-1.4
							S183.3,77.7,183.3,77.7z"/>
						<path class="st4" d="M193,69.3c0,0,2.3,0.5,2.7,0.5c0.5,0.1,1.1,1.6,1.1,1.6s-0.9,2.2-2.2,1.4c-1.3-0.7-1.3-0.7-2.1-1.4
							C191.8,70.9,193,69.3,193,69.3z"/>
						<path class="st4" d="M196.7,76.6c0,0,2.3,0.5,2.7,0.5c0.5,0.1,1.1,1.6,1.1,1.6s-0.9,2.2-2.2,1.4c-1.3-0.7-1.3-0.7-2.1-1.4
							S196.7,76.6,196.7,76.6z"/>
						<path class="st4" d="M203.9,71c0,0,2.3,0.5,2.7,0.5c0.5,0.1,1.1,1.6,1.1,1.6s-0.9,2.2-2.2,1.4c-1.3-0.7-1.3-0.7-2.1-1.4
							C202.7,72.7,203.9,71,203.9,71z"/>
						<path class="st5" d="M207.7,69c0,0,2.3,0.5,2.7,0.5c0.5,0.1,1.1,1.6,1.1,1.6s-0.9,2.2-2.2,1.4c-1.3-0.7-1.3-0.7-2.1-1.4
							C206.4,70.6,207.7,69,207.7,69z"/>
						<path d="M201,75.6c1-0.3,2.1-1,2.4-0.4c0.4,0.5,1.5,1.7,1.1,1.6s-2,0.5-3,0.8c-1,0.3-1.3-0.7-1.3-0.7L201,75.6z"/>
						<path d="M184.2,66.2c0.9,0.4,1.7,1,2.2,0.9s1.9-0.3,1.5-0.4c-0.5-0.1-1.7-0.8-2.6-1.2c-0.9-0.4-1.4,0-1.4,0L184.2,66.2z"/>
						<g class="st40">
							<path class="st5" d="M184.9,48.7c0,0,2.3,0.5,2.7,0.5s1.1,1.6,1.1,1.6s-0.9,2.2-2.2,1.4c-1.3-0.7-1.3-0.7-2.1-1.4
								C183.6,50.3,184.9,48.7,184.9,48.7z"/>
							<path class="st5" d="M198,53.7c0,0,2.3,0.5,2.7,0.5c0.5,0.1,1.1,1.6,1.1,1.6s-0.9,2.2-2.2,1.4c-1.3-0.7-1.3-0.7-2.1-1.4
								C196.7,55.3,198,53.7,198,53.7z"/>
							<path class="st5" d="M180.1,54.4c0.1-0.5,0.6,1.5,1,2.1c0.4,0.5,1.8,0.4,1.8,0.4l0.8-1.7l-0.5-2l-2.3-0.4L180.1,54.4z"/>
							<path class="st5" d="M208.2,56.7c1-0.3,2.1-1,2.4-0.4c0.4,0.5,1.5,1.7,1.1,1.6c-0.5-0.1-2,0.5-3,0.8c-1,0.3-1.3-0.7-1.3-0.7
								L208.2,56.7z"/>
							<path class="st5" d="M184.4,69c0.1-0.3,0.4,1,0.6,1.3s1.2,0.2,1.2,0.2l0.5-1.1l-0.3-1.3l-1.5-0.3L184.4,69z"/>
							<path class="st5" d="M206.9,60.8c0.1-0.3,0.4,0.9,0.6,1.2s1.1,0.2,1.1,0.2l0.5-1l-0.3-1.2l-1.4-0.3L206.9,60.8z"/>
						</g>
					</g>
					<g class="st39">
						<path class="st32" d="M192.2,38.8c0,0,1.3,0.3,1.5,0.3s0.6,0.9,0.6,0.9s-0.5,1.2-1.2,0.8c-0.7-0.4-0.7-0.4-1.2-0.8
							C191.5,39.7,192.2,38.8,192.2,38.8z"/>
						<path d="M194.8,40.7c1-0.3,2.1-1,2.4-0.4c0.4,0.5,1.5,1.7,1.1,1.6c-0.5-0.1-2,0.5-3,0.8c-1,0.3-1.3-0.7-1.3-0.7L194.8,40.7z"
							/>
						<path d="M187.4,39.5c0,0,1.3,0.3,1.5,0.3c0.3,0.1,0.6,0.9,0.6,0.9s-0.5,1.2-1.2,0.8c-0.7-0.4-0.7-0.4-1.2-0.8
							C186.7,40.5,187.4,39.5,187.4,39.5z"/>
						<path class="st5" d="M200.3,46.7c0,0,2.3,0.5,2.7,0.5c0.5,0.1,1.1,1.6,1.1,1.6s-0.9,2.2-2.2,1.4c-1.3-0.7-1.3-0.7-2.1-1.4
							C199,48.3,200.3,46.7,200.3,46.7z"/>
						<path class="st32" d="M192.2,49.4c0,0,2.3,0.5,2.7,0.5s1.1,1.6,1.1,1.6s-0.9,2.2-2.2,1.4c-1.3-0.7-1.3-0.7-2.1-1.4
							C190.9,51,192.2,49.4,192.2,49.4z"/>
						<path class="st4" d="M204,37.8c0,0,2.3,0.5,2.7,0.5c0.5,0.1,1.1,1.6,1.1,1.6s-0.9,2.2-2.2,1.4c-1.3-0.7-1.3-0.7-2.1-1.4
							C202.7,39.4,204,37.8,204,37.8z"/>
						<path d="M198.2,52.1c0,0,2.3,0.5,2.7,0.5c0.5,0.1,1.1,1.6,1.1,1.6s-0.9,2.2-2.2,1.4c-1.3-0.7-1.3-0.7-2.1-1.4
							C197,53.8,198.2,52.1,198.2,52.1z"/>
						<path class="st4" d="M207.9,43.8c0,0,2.3,0.5,2.7,0.5c0.5,0.1,1.1,1.6,1.1,1.6s-0.9,2.2-2.2,1.4c-1.3-0.7-1.3-0.7-2.1-1.4
							C206.6,45.4,207.9,43.8,207.9,43.8z"/>
						<path class="st4" d="M211.6,51.1c0,0,2.3,0.5,2.7,0.5c0.5,0.1,1.1,1.6,1.1,1.6s-0.9,2.2-2.2,1.4c-1.3-0.7-1.3-0.7-2.1-1.4
							C210.3,52.7,211.6,51.1,211.6,51.1z"/>
						<path d="M199.1,40.7c0.9,0.4,1.7,1,2.2,0.9c0.5-0.1,1.9-0.3,1.5-0.4c-0.5-0.1-1.7-0.8-2.6-1.2c-0.9-0.4-1.4,0-1.4,0
							L199.1,40.7z"/>
						<path class="st5" d="M199.3,43.5c0.1-0.3,0.4,1,0.6,1.3s1.2,0.2,1.2,0.2l0.5-1.1l-0.3-1.3l-1.5-0.3L199.3,43.5z"/>
					</g>
				</g>
				<g class="st38">
					<g class="st39">
						<path class="st32" d="M156.2,33.9c0,0,1.3,0.3,1.5,0.3c0.3,0.1,0.6,0.9,0.6,0.9s-0.5,1.2-1.2,0.8c-0.7-0.4-0.7-0.4-1.2-0.8
							C155.5,34.8,156.2,33.9,156.2,33.9z"/>
						<path class="st32" d="M155.4,29.5c0,0,2.3,0.5,2.7,0.5c0.5,0.1,1.1,1.6,1.1,1.6s-0.9,2.2-2.2,1.4c-1.3-0.7-1.3-0.7-2.1-1.4
							C154.1,31.1,155.4,29.5,155.4,29.5z"/>
						<path d="M158.8,35.8c1-0.3,2.1-1,2.4-0.4c0.4,0.5,1.5,1.7,1.1,1.6s-2,0.5-3,0.8c-1,0.3-1.3-0.7-1.3-0.7L158.8,35.8z"/>
						<path d="M169.5,16.1c0,0,1.3,0.3,1.5,0.3c0.3,0.1,0.6,0.9,0.6,0.9s-0.5,1.2-1.2,0.8c-0.7-0.4-0.7-0.4-1.2-0.8
							C168.8,17,169.5,16.1,169.5,16.1z"/>
						<path class="st4" d="M182.4,23.2c0,0,2.3,0.5,2.7,0.5c0.5,0.1,1.1,1.6,1.1,1.6s-0.9,2.2-2.2,1.4s-1.3-0.7-2.1-1.4
							C181.2,24.8,182.4,23.2,182.4,23.2z"/>
						<path d="M153.2,25.5c0.1-0.5,0.6,1.5,1,2.1s1.8,0.4,1.8,0.4l0.8-1.7l-0.5-2l-2.3-0.4L153.2,25.5z"/>
						<path class="st4" d="M174.3,26c0,0,2.3,0.5,2.7,0.5c0.5,0.1,1.1,1.6,1.1,1.6s-0.9,2.2-2.2,1.4c-1.3-0.7-1.3-0.7-2.1-1.4
							C173,27.6,174.3,26,174.3,26z"/>
						<path d="M165.1,26.4c0,0,1.3,0.3,1.5,0.3c0.3,0.1,0.6,0.9,0.6,0.9s-0.5,1.2-1.2,0.8c-0.7-0.4-0.7-0.4-1.2-0.8
							C164.4,27.3,165.1,26.4,165.1,26.4z"/>
						<path d="M151.4,34.6c0,0,1.3,0.3,1.5,0.3c0.3,0.1,0.6,0.9,0.6,0.9s-0.5,1.2-1.2,0.8c-0.7-0.4-0.7-0.4-1.2-0.8
							S151.4,34.6,151.4,34.6z"/>
						<path class="st5" d="M164.3,41.8c0,0,2.3,0.5,2.7,0.5c0.5,0.1,1.1,1.6,1.1,1.6s-0.9,2.2-2.2,1.4c-1.3-0.7-1.3-0.7-2.1-1.4
							C163,43.4,164.3,41.8,164.3,41.8z"/>
						<path class="st32" d="M156.1,44.5c0,0,2.3,0.5,2.7,0.5c0.5,0.1,1.1,1.6,1.1,1.6s-0.9,2.2-2.2,1.4c-1.3-0.7-1.3-0.7-2.1-1.4
							C154.9,46.1,156.1,44.5,156.1,44.5z"/>
						<path d="M179.6,40.9c0,0,1.3,0.3,1.6,0.3c0.3,0.1,0.6,0.9,0.6,0.9s-0.5,1.3-1.3,0.8s-0.7-0.4-1.2-0.8
							C178.9,41.9,179.6,40.9,179.6,40.9z"/>
						<path class="st4" d="M182.8,46.7c0,0,2.3,0.5,2.7,0.5c0.5,0.1,1.1,1.6,1.1,1.6s-0.9,2.2-2.2,1.4c-1.3-0.7-1.3-0.7-2.1-1.4
							C181.6,48.4,182.8,46.7,182.8,46.7z"/>
						<path class="st4" d="M167.9,32.9c0,0,2.3,0.5,2.7,0.5c0.5,0.1,1.1,1.6,1.1,1.6s-0.9,2.2-2.2,1.4c-1.3-0.7-1.3-0.7-2.1-1.4
							C166.7,34.5,167.9,32.9,167.9,32.9z"/>
						<path d="M162.2,47.2c0,0,2.3,0.5,2.7,0.5c0.5,0.1,1.1,1.6,1.1,1.6s-0.9,2.2-2.2,1.4c-1.3-0.7-1.3-0.7-2.1-1.4
							C160.9,48.9,162.2,47.2,162.2,47.2z"/>
						<path class="st4" d="M171.9,38.9c0,0,2.3,0.5,2.7,0.5s1.1,1.6,1.1,1.6s-0.9,2.2-2.2,1.4c-1.3-0.7-1.3-0.7-2.1-1.4
							C170.6,40.5,171.9,38.9,171.9,38.9z"/>
						<path class="st4" d="M175.6,46.2c0,0,2.3,0.5,2.7,0.5s1.1,1.6,1.1,1.6s-0.9,2.2-2.2,1.4c-1.3-0.7-1.3-0.7-2.1-1.4
							C174.3,47.8,175.6,46.2,175.6,46.2z"/>
						<path class="st4" d="M182.8,40.6c0,0,2.3,0.5,2.7,0.5c0.5,0.1,1.1,1.6,1.1,1.6s-0.9,2.2-2.2,1.4c-1.3-0.7-1.3-0.7-2.1-1.4
							C181.6,42.2,182.8,40.6,182.8,40.6z"/>
						<path class="st5" d="M186.5,38.6c0,0,2.3,0.5,2.7,0.5s1.1,1.6,1.1,1.6s-0.9,2.2-2.2,1.4s-1.3-0.7-2.1-1.4
							C185.3,40.2,186.5,38.6,186.5,38.6z"/>
						<path d="M179.8,45.2c1-0.3,2.1-1,2.4-0.4c0.4,0.5,1.5,1.7,1.1,1.6c-0.5-0.1-2,0.5-3,0.8c-1,0.3-1.3-0.7-1.3-0.7L179.8,45.2z"
							/>
						<path d="M163,35.8c0.9,0.4,1.7,1,2.2,0.9s1.9-0.3,1.5-0.4s-1.7-0.8-2.6-1.2c-0.9-0.4-1.4,0-1.4,0L163,35.8z"/>
						<g class="st40">
							<path class="st5" d="M163.8,18.3c0,0,2.3,0.5,2.7,0.5c0.5,0.1,1.1,1.6,1.1,1.6s-0.9,2.2-2.2,1.4c-1.3-0.7-1.3-0.7-2.1-1.4
								C162.5,19.9,163.8,18.3,163.8,18.3z"/>
							<path class="st5" d="M176.8,23.3c0,0,2.3,0.5,2.7,0.5c0.5,0.1,1.1,1.6,1.1,1.6s-0.9,2.2-2.2,1.4c-1.3-0.7-1.3-0.7-2.1-1.4
								C175.6,24.9,176.8,23.3,176.8,23.3z"/>
							<path class="st5" d="M159,23.9c0.1-0.5,0.6,1.5,1,2.1s1.8,0.4,1.8,0.4l0.8-1.7l-0.5-2l-2.3-0.4L159,23.9z"/>
							<path class="st5" d="M187,26.3c1-0.3,2.1-1,2.4-0.4c0.4,0.5,1.5,1.7,1.1,1.6s-2,0.5-3,0.8c-1,0.3-1.3-0.7-1.3-0.7L187,26.3z"
								/>
							<path class="st5" d="M163.3,38.6c0.1-0.3,0.4,1,0.6,1.3s1.2,0.2,1.2,0.2l0.5-1.1l-0.3-1.3l-1.5-0.3L163.3,38.6z"/>
							<path class="st5" d="M185.7,30.4c0.1-0.3,0.4,0.9,0.6,1.2c0.2,0.3,1.1,0.2,1.1,0.2l0.5-1l-0.3-1.2l-1.4-0.3L185.7,30.4z"/>
						</g>
					</g>
					<g class="st39">
						<path class="st32" d="M171.1,8.4c0,0,1.3,0.3,1.5,0.3c0.3,0.1,0.6,0.9,0.6,0.9s-0.5,1.2-1.2,0.8c-0.7-0.4-0.7-0.4-1.2-0.8
							C170.4,9.3,171.1,8.4,171.1,8.4z"/>
						<path d="M173.7,10.3c1-0.3,2.1-1,2.4-0.4s1.5,1.7,1.1,1.6c-0.5-0.1-2,0.5-3,0.8c-1,0.3-1.3-0.7-1.3-0.7L173.7,10.3z"/>
						<path d="M166.3,9.1c0,0,1.3,0.3,1.5,0.3c0.3,0.1,0.6,0.9,0.6,0.9s-0.5,1.2-1.2,0.8c-0.7-0.4-0.7-0.4-1.2-0.8
							C165.6,10,166.3,9.1,166.3,9.1z"/>
						<path class="st5" d="M179.2,16.3c0,0,2.3,0.5,2.7,0.5s1.1,1.6,1.1,1.6s-0.9,2.2-2.2,1.4c-1.3-0.7-1.3-0.7-2.1-1.4
							C177.9,17.9,179.2,16.3,179.2,16.3z"/>
						<path class="st32" d="M171,19c0,0,2.3,0.5,2.7,0.5c0.5,0.1,1.1,1.6,1.1,1.6s-0.9,2.2-2.2,1.4c-1.3-0.7-1.3-0.7-2.1-1.4
							C169.8,20.6,171,19,171,19z"/>
						<path class="st4" d="M182.8,7.4c0,0,2.3,0.5,2.7,0.5c0.5,0.1,1.1,1.6,1.1,1.6s-0.9,2.2-2.2,1.4c-1.3-0.7-1.3-0.7-2.1-1.4
							C181.6,9,182.8,7.4,182.8,7.4z"/>
						<path d="M177.1,21.7c0,0,2.3,0.5,2.7,0.5c0.5,0.1,1.1,1.6,1.1,1.6s-0.9,2.2-2.2,1.4c-1.3-0.7-1.3-0.7-2.1-1.4
							C175.8,23.3,177.1,21.7,177.1,21.7z"/>
						<path class="st4" d="M186.8,13.4c0,0,2.3,0.5,2.7,0.5c0.5,0.1,1.1,1.6,1.1,1.6s-0.9,2.2-2.2,1.4c-1.3-0.7-1.3-0.7-2.1-1.4
							C185.5,15,186.8,13.4,186.8,13.4z"/>
						<path class="st4" d="M190.5,20.7c0,0,2.3,0.5,2.7,0.5c0.5,0.1,1.1,1.6,1.1,1.6s-0.9,2.2-2.2,1.4c-1.3-0.7-1.3-0.7-2.1-1.4
							C189.2,22.3,190.5,20.7,190.5,20.7z"/>
						<path d="M177.9,10.3c0.9,0.4,1.7,1,2.2,0.9c0.5-0.1,1.9-0.3,1.5-0.4s-1.7-0.8-2.6-1.2c-0.9-0.4-1.4,0-1.4,0L177.9,10.3z"/>
						<path class="st5" d="M178.2,13.1c0.1-0.3,0.4,1,0.6,1.3c0.2,0.3,1.2,0.2,1.2,0.2l0.5-1.1l-0.3-1.3l-1.5-0.3L178.2,13.1z"/>
					</g>
				</g>
				<g class="st38">
					<g class="st39">
						<path class="st32" d="M138.4,91.4c0,0,1.3,0.3,1.5,0.3c0.3,0.1,0.6,0.9,0.6,0.9s-0.5,1.2-1.2,0.8c-0.7-0.4-0.7-0.4-1.2-0.8
							S138.4,91.4,138.4,91.4z"/>
						<path class="st32" d="M137.6,87c0,0,2.3,0.5,2.7,0.5c0.5,0.1,1.1,1.6,1.1,1.6s-0.9,2.2-2.2,1.4c-1.3-0.7-1.3-0.7-2.1-1.4
							C136.4,88.6,137.6,87,137.6,87z"/>
						<path d="M141.1,93.3c1-0.3,2.1-1,2.4-0.4c0.4,0.5,1.5,1.7,1.1,1.6c-0.5-0.1-2,0.5-3,0.8s-1.3-0.7-1.3-0.7L141.1,93.3z"/>
						<path d="M151.8,73.5c0,0,1.3,0.3,1.5,0.3c0.3,0.1,0.6,0.9,0.6,0.9s-0.5,1.2-1.2,0.8c-0.7-0.4-0.7-0.4-1.2-0.8
							C151.1,74.5,151.8,73.5,151.8,73.5z"/>
						<path class="st4" d="M164.7,80.7c0,0,2.3,0.5,2.7,0.5s1.1,1.6,1.1,1.6s-0.9,2.2-2.2,1.4c-1.3-0.7-1.3-0.7-2.1-1.4
							C163.4,82.3,164.7,80.7,164.7,80.7z"/>
						<path d="M135.5,82.9c0.1-0.5,0.6,1.5,1,2.1c0.4,0.5,1.8,0.4,1.8,0.4l0.8-1.7l-0.5-2l-2.3-0.4L135.5,82.9z"/>
						<path class="st4" d="M156.5,83.4c0,0,2.3,0.5,2.7,0.5c0.5,0.1,1.1,1.6,1.1,1.6s-0.9,2.2-2.2,1.4c-1.3-0.7-1.3-0.7-2.1-1.4
							C155.3,85,156.5,83.4,156.5,83.4z"/>
						<path d="M147.3,83.9c0,0,1.3,0.3,1.5,0.3c0.3,0.1,0.6,0.9,0.6,0.9s-0.5,1.2-1.2,0.8c-0.7-0.4-0.7-0.4-1.2-0.8
							C146.6,84.8,147.3,83.9,147.3,83.9z"/>
						<path d="M133.6,92.1c0,0,1.3,0.3,1.5,0.3s0.6,0.9,0.6,0.9s-0.5,1.2-1.2,0.8c-0.7-0.4-0.7-0.4-1.2-0.8S133.6,92.1,133.6,92.1z"
							/>
						<path class="st5" d="M146.6,99.3c0,0,2.3,0.5,2.7,0.5c0.5,0.1,1.1,1.6,1.1,1.6s-0.9,2.2-2.2,1.4c-1.3-0.7-1.3-0.7-2.1-1.4
							C145.3,100.9,146.6,99.3,146.6,99.3z"/>
						<path class="st32" d="M138.4,102c0,0,2.3,0.5,2.7,0.5c0.5,0.1,1.1,1.6,1.1,1.6s-0.9,2.2-2.2,1.4c-1.3-0.7-1.3-0.7-2.1-1.4
							C137.1,103.6,138.4,102,138.4,102z"/>
						<path d="M161.8,98.4c0,0,1.3,0.3,1.6,0.3c0.3,0.1,0.6,0.9,0.6,0.9s-0.5,1.3-1.3,0.8c-0.7-0.4-0.7-0.4-1.2-0.8
							S161.8,98.4,161.8,98.4z"/>
						<path class="st4" d="M165.1,104.2c0,0,2.3,0.5,2.7,0.5c0.5,0.1,1.1,1.6,1.1,1.6s-0.9,2.2-2.2,1.4c-1.3-0.7-1.3-0.7-2.1-1.4
							C163.8,105.8,165.1,104.2,165.1,104.2z"/>
						<path class="st4" d="M150.2,90.4c0,0,2.3,0.5,2.7,0.5c0.5,0.1,1.1,1.6,1.1,1.6s-0.9,2.2-2.2,1.4c-1.3-0.7-1.3-0.7-2.1-1.4
							C148.9,92,150.2,90.4,150.2,90.4z"/>
						<path d="M144.5,104.7c0,0,2.3,0.5,2.7,0.5c0.5,0.1,1.1,1.6,1.1,1.6s-0.9,2.2-2.2,1.4c-1.3-0.7-1.3-0.7-2.1-1.4
							C143.2,106.3,144.5,104.7,144.5,104.7z"/>
						<path class="st4" d="M154.2,96.3c0,0,2.3,0.5,2.7,0.5c0.5,0.1,1.1,1.6,1.1,1.6s-0.9,2.2-2.2,1.4c-1.3-0.7-1.3-0.7-2.1-1.4
							C152.9,98,154.2,96.3,154.2,96.3z"/>
						<path class="st4" d="M157.8,103.6c0,0,2.3,0.5,2.7,0.5c0.5,0.1,1.1,1.6,1.1,1.6s-0.9,2.2-2.2,1.4c-1.3-0.7-1.3-0.7-2.1-1.4
							C156.6,105.3,157.8,103.6,157.8,103.6z"/>
						<path class="st4" d="M165.1,98.1c0,0,2.3,0.5,2.7,0.5c0.5,0.1,1.1,1.6,1.1,1.6s-0.9,2.2-2.2,1.4c-1.3-0.7-1.3-0.7-2.1-1.4
							C163.8,99.7,165.1,98.1,165.1,98.1z"/>
						<path class="st5" d="M168.8,96c0,0,2.3,0.5,2.7,0.5c0.5,0.1,1.1,1.6,1.1,1.6s-0.9,2.2-2.2,1.4c-1.3-0.7-1.3-0.7-2.1-1.4
							S168.8,96,168.8,96z"/>
						<path d="M162.1,102.7c1-0.3,2.1-1,2.4-0.4c0.4,0.5,1.5,1.7,1.1,1.6c-0.5-0.1-2,0.5-3,0.8c-1,0.3-1.3-0.7-1.3-0.7L162.1,102.7z
							"/>
						<path d="M145.3,93.3c0.9,0.4,1.7,1,2.2,0.9s1.9-0.3,1.5-0.4c-0.5-0.1-1.7-0.8-2.6-1.2c-0.9-0.4-1.4,0-1.4,0L145.3,93.3z"/>
						<g class="st40">
							<path class="st5" d="M146,75.7c0,0,2.3,0.5,2.7,0.5c0.5,0.1,1.1,1.6,1.1,1.6s-0.9,2.2-2.2,1.4c-1.3-0.7-1.3-0.7-2.1-1.4
								C144.7,77.4,146,75.7,146,75.7z"/>
							<path class="st5" d="M159.1,80.7c0,0,2.3,0.5,2.7,0.5c0.5,0.1,1.1,1.6,1.1,1.6s-0.9,2.2-2.2,1.4c-1.3-0.7-1.3-0.7-2.1-1.4
								C157.8,82.4,159.1,80.7,159.1,80.7z"/>
							<path class="st5" d="M141.2,81.4c0.1-0.5,0.6,1.5,1,2.1c0.4,0.5,1.8,0.4,1.8,0.4l0.8-1.7l-0.5-2l-2.3-0.4L141.2,81.4z"/>
							<path class="st5" d="M169.3,83.7c1-0.3,2.1-1,2.4-0.4c0.4,0.5,1.5,1.7,1.1,1.6c-0.5-0.1-2,0.5-3,0.8c-1,0.3-1.3-0.7-1.3-0.7
								L169.3,83.7z"/>
							<path class="st5" d="M145.5,96.1c0.1-0.3,0.4,1,0.6,1.3s1.2,0.2,1.2,0.2l0.5-1.1l-0.3-1.3l-1.5-0.3L145.5,96.1z"/>
							<path class="st5" d="M168,87.9c0.1-0.3,0.4,0.9,0.6,1.2c0.2,0.3,1.1,0.2,1.1,0.2l0.5-1l-0.3-1.2l-1.4-0.3L168,87.9z"/>
						</g>
					</g>
					<g class="st39">
						<path class="st32" d="M153.3,65.8c0,0,1.3,0.3,1.5,0.3c0.3,0.1,0.6,0.9,0.6,0.9s-0.5,1.2-1.2,0.8c-0.7-0.4-0.7-0.4-1.2-0.8
							C152.6,66.7,153.3,65.8,153.3,65.8z"/>
						<path d="M155.9,67.8c1-0.3,2.1-1,2.4-0.4s1.5,1.7,1.1,1.6c-0.5-0.1-2,0.5-3,0.8c-1,0.3-1.3-0.7-1.3-0.7L155.9,67.8z"/>
						<path d="M148.5,66.6c0,0,1.3,0.3,1.5,0.3s0.6,0.9,0.6,0.9s-0.5,1.2-1.2,0.8c-0.7-0.4-0.7-0.4-1.2-0.8
							C147.8,67.5,148.5,66.6,148.5,66.6z"/>
						<path class="st5" d="M161.4,73.7c0,0,2.3,0.5,2.7,0.5c0.5,0.1,1.1,1.6,1.1,1.6s-0.9,2.2-2.2,1.4c-1.3-0.7-1.3-0.7-2.1-1.4
							C160.2,75.3,161.4,73.7,161.4,73.7z"/>
						<path class="st32" d="M153.3,76.5c0,0,2.3,0.5,2.7,0.5c0.5,0.1,1.1,1.6,1.1,1.6s-0.9,2.2-2.2,1.4c-1.3-0.7-1.3-0.7-2.1-1.4
							C152,78.1,153.3,76.5,153.3,76.5z"/>
						<path class="st4" d="M165.1,64.9c0,0,2.3,0.5,2.7,0.5c0.5,0.1,1.1,1.6,1.1,1.6s-0.9,2.2-2.2,1.4c-1.3-0.7-1.3-0.7-2.1-1.4
							C163.8,66.5,165.1,64.9,165.1,64.9z"/>
						<path d="M159.4,79.2c0,0,2.3,0.5,2.7,0.5c0.5,0.1,1.1,1.6,1.1,1.6s-0.9,2.2-2.2,1.4c-1.3-0.7-1.3-0.7-2.1-1.4
							C158.1,80.8,159.4,79.2,159.4,79.2z"/>
						<path class="st4" d="M169,70.8c0,0,2.3,0.5,2.7,0.5c0.5,0.1,1.1,1.6,1.1,1.6s-0.9,2.2-2.2,1.4c-1.3-0.7-1.3-0.7-2.1-1.4
							C167.8,72.4,169,70.8,169,70.8z"/>
						<path class="st4" d="M172.7,78.1c0,0,2.3,0.5,2.7,0.5c0.5,0.1,1.1,1.6,1.1,1.6s-0.9,2.2-2.2,1.4c-1.3-0.7-1.3-0.7-2.1-1.4
							C171.5,79.7,172.7,78.1,172.7,78.1z"/>
						<path d="M160.2,67.8c0.9,0.4,1.7,1,2.2,0.9c0.5-0.1,1.9-0.3,1.5-0.4c-0.5-0.1-1.7-0.8-2.6-1.2c-0.9-0.4-1.4,0-1.4,0
							L160.2,67.8z"/>
						<path class="st5" d="M160.4,70.6c0.1-0.3,0.4,1,0.6,1.3s1.2,0.2,1.2,0.2l0.5-1.1l-0.3-1.3l-1.5-0.3L160.4,70.6z"/>
					</g>
				</g>
			</g>
			<g>
				<path class="st41" d="M146.5,51.7c4.3-3.3,2.6-5.9,3.5-10.9s3.1-8.7,9.2-8.9c6.1-0.2,17,5.9,23,3.4c5.9-2.5,14.2-2.1,15,6.2
					c0.8,8.3,3.1,28.6-3.7,33.6c-6.8,5-11,3.2-19.5,4.8s-12.8,7.4-21.2,3.1c-8.4-4.3-10.9-8.6-12.5-16.2S146.5,51.7,146.5,51.7z"/>
				<g>
					<line class="st42" x1="161.8" y1="42.3" x2="165.3" y2="45.9"/>
					<path class="st42" d="M170.6,46.8c0-0.4,4.9-3,4.9-3"/>
					<line class="st42" x1="171.5" y1="49.5" x2="175" y2="47.8"/>
					<line class="st42" x1="175.9" y1="52.7" x2="178.5" y2="55.4"/>
					<line class="st42" x1="184.3" y1="54.5" x2="189.2" y2="53.3"/>
					<line class="st42" x1="189.1" y1="58.2" x2="185.6" y2="57.2"/>
					<line class="st42" x1="187.5" y1="43.5" x2="190.2" y2="40.4"/>
				</g>
				<g>
					<line class="st42" x1="179" y1="69.3" x2="174.9" y2="66.5"/>
					<path class="st42" d="M169.5,66.7c0.1,0.4-4.2,4-4.2,4"/>
					<line class="st42" x1="168.1" y1="64.2" x2="164.9" y2="66.6"/>
					<line class="st42" x1="163.1" y1="62" x2="160" y2="59.9"/>
					<line class="st42" x1="154.5" y1="61.9" x2="150" y2="64.1"/>
					<line class="st42" x1="149" y1="59.4" x2="152.7" y2="59.5"/>
					<line class="st42" x1="153.6" y1="73.4" x2="151.6" y2="76.9"/>
				</g>
			</g>
		</g>
		<g>
			
				<ellipse transform="matrix(0.7071 -0.7071 0.7071 0.7071 0.1062 272.8241)" class="st5" cx="329.4" cy="136.3" rx="92.3" ry="92.3"/>
			
				<ellipse transform="matrix(0.7071 -0.7071 0.7071 0.7071 0.3725 271.3522)" class="st43" cx="327.7" cy="135.2" rx="64.5" ry="64.5"/>
			<g>
				<g>
					<path class="st44" d="M313.1,91.5c-15.3,0.4-33.4,8.2-34.3,24.2c-0.8,16,6.2,28.9,5.6,39.9c-0.6,11,2.5,18.9,11.7,23.1
						c9.1,4.2,24.1-3.3,39-1.7c14.8,1.6,35.9,2.6,39.1-10.8c3.2-13.4-12.9-34.6-23.8-48.4S328.4,91.1,313.1,91.5z"/>
					<path class="st45" d="M324.7,162.8c1.1-8.9-16.5-3-5.9-21.7c10.6-18.7-9.6-35.8-10.7-36.2l-16.6,10.4c0,0-5.2,10.7-9,26.6
						c1.2,4.9,2.1,9.4,1.8,13.7c-0.6,11,2.5,18.9,11.7,23.1c6.9,3.2,17.3-0.4,28.4-1.6C325,172.3,324.2,166.7,324.7,162.8z"/>
				</g>
				<g>
					
						<ellipse transform="matrix(0.328 -0.9447 0.9447 0.328 92.2933 334.6889)" class="st46" cx="281.4" cy="102.5" rx="13.7" ry="13.7"/>
					<line class="st46" x1="274.4" y1="104.1" x2="280.5" y2="104.6"/>
					<line class="st46" x1="285.2" y1="96.4" x2="283" y2="102.7"/>
				</g>
				<g>
					<g>
						<path class="st13" d="M307.6,115c0,0-13.7-7.3-11.1-16.5s11.9-7,8.8-19.2s-10.2-19.6-1.5-20.9c8.6-1.2,4.6,10.1,17.2,6.5
							c12.6-3.6,14.7-2.2,17.8,7.5S307.6,115,307.6,115z"/>
						<path class="st47" d="M306.4,114.3l3.1-6c0,0,3-16.5,4.6-27.3c0.8-5.7,0.1-11.8-0.8-16.3c-3.5-2.1-3.4-7.2-9.4-6.4
							c-8.6,1.2-1.6,8.6,1.5,20.9s-6.2,10-8.8,19.2c-0.2,0.7-0.3,1.4-0.3,2.1l7.1,11.6C304.5,113.1,305.6,113.8,306.4,114.3z"/>
					</g>
					<g>
						<path class="st13" d="M308.6,114.8c0,0-11.2,1.1-13.4-5.6c-2.1-6.6,4.4-9.1-2.4-15.2c-6.8-6.1-14.1-7.8-9.3-12
							c4.7-4.2,6.9,4.3,13.1-3c6.2-7.3,8-7.3,13.8-2.6C316,81.1,308.6,114.8,308.6,114.8z"/>
						<path class="st47" d="M307.5,114.8L307,110c0,0-4.9-11.2-8.2-18.4c-1.8-3.8-4.7-7.2-7.1-9.5c-3,0.1-5-3-8.2-0.1
							c-4.7,4.2,2.5,5.9,9.3,12c6.8,6.1,0.3,8.5,2.4,15.2c0.2,0.5,0.4,1,0.6,1.4l9,4.2C305.9,114.8,306.9,114.8,307.5,114.8z"/>
					</g>
				</g>
				<g>
					
						<ellipse transform="matrix(0.328 -0.9447 0.9447 0.328 85.5344 362.1308)" class="st48" cx="297.3" cy="120.9" rx="11.4" ry="11.4"/>
					<line class="st48" x1="291.4" y1="121.7" x2="296.4" y2="122.6"/>
					<line class="st48" x1="300.9" y1="116.2" x2="298.6" y2="121.3"/>
				</g>
				<g>
					<path class="st17" d="M346.2,202c-3.3,1.2-7.7-1.9-9.1,3.9c-1.4,5.8,1.7,9.6,7.7,10c6,0.4,6.2-4.6,10-11.8
						c3.8-7.2,18.2-25,18.2-25l-7-4.7C366.1,174.3,349.5,200.7,346.2,202z"/>
					<path class="st49" d="M406.1,118c-2.4-6.7-23.6-19.9-33.9-23.4C361.9,91.1,354.1,77,341,81c-13.1,3.9-13.8,10.9-19.5,17.6
						s1.5,10.5-0.3,18.2c-1.9,7.7,0.4,19.4,16,22.1c15.6,2.7,24.7,6.9,29.3,9.1C387.2,158.1,406.1,118,406.1,118z"/>
					<path class="st50" d="M398,109.4c-7.8-6.1-19.1-12.5-25.9-14.8C361.9,91.1,354.1,77,341,81c-0.5,0.1-1,0.3-1.4,0.5
						c-10.4,6.8-21.7,16.4-14.8,22.4c11.8,10.1,7.8,26.4,17.6,23.7c9.8-2.7,28.3,4.8,33.5,8.1c5.3,3.3,0.9-12,14.9-19.7
						C394.6,113.8,396.8,111.6,398,109.4z"/>
					<path class="st49" d="M416.2,143.7c-4.8,8.3-27,27.9-41,34.9c-4.7,2.3-3.5,6.2-8.6,2c-6.7-5.7-2.3-5.7-2.5-10.7
						c-0.4-15.1,8.8-40,13.6-48.3c6.4-11.1,20.2-15.1,30.8-9C419.2,118.6,422.6,132.6,416.2,143.7z"/>
					<path class="st50" d="M412.6,115.5c-3.5-0.4-16.6-1.1-21.6,12.6c-5.9,15.8-9.8,28.1-5,37.4c1.4,2.7,3.2,3.3,5.1,2.8
						c2.5-1.9,5.1-4,7.5-6.1c2.1-2.3,4.1-4.6,5.7-5.5c0.3-0.2,0.7-0.4,1.1-0.6c5.1-4.8,9.1-9.3,10.9-12.3
						C421.7,134.1,419.9,122.5,412.6,115.5z"/>
					<g>
						<polyline class="st51" points="329.7,121.4 334.2,117.6 333.4,112.7 338.9,108.4 341,103.8 347.9,100.4 350.1,95.8 
							357.5,94.6 357.4,90.5 						"/>
						<polyline class="st51" points="336.9,125.1 341.4,121.4 340.6,116.4 346.1,112.1 348.2,107.6 355.1,104.2 357.3,99.6 
							364.7,98.4 364.6,94.3 						"/>
						<polyline class="st51" points="344.1,128.9 348.6,125.2 347.9,120.2 353.3,115.9 355.4,111.4 362.3,108 364.5,103.4 
							371.9,102.1 371.8,98.1 						"/>
					</g>
				</g>
			</g>
		</g>
		<g>
			<path class="st22" d="M303.8,172.2c0,0,5.1-2.9,9.7-0.1c4.7,2.8,5.2,7.7,5.2,7.7s-4.3,3.8-9.8,0.9
				C303.4,177.8,303.8,172.2,303.8,172.2z"/>
			<path class="st22" d="M343.7,163.7c0,0,2.6,5.2-0.3,9.7c-3,4.5-7.9,4.8-7.9,4.8s-3.5-4.5-0.5-9.8
				C338,163,343.7,163.7,343.7,163.7z"/>
			<path class="st22" d="M329.9,186.3c0,0,2.6,5.2-0.3,9.7c-3,4.5-7.9,4.8-7.9,4.8s-3.5-4.5-0.5-9.8
				C324.3,185.6,329.9,186.3,329.9,186.3z"/>
			<path class="st22" d="M370.5,190.8c0,0-2.3,5.4-7.7,6s-8.7-3-8.7-3s1.2-5.6,7.2-6.7C367.4,186,370.5,190.8,370.5,190.8z"/>
			<g>
				<line class="st52" x1="303.3" y1="156.7" x2="309.3" y2="163.6"/>
				<path class="st52" d="M318.9,165.9c0.1-0.8,9.3-5,9.3-5"/>
				<line class="st52" x1="320.1" y1="170.9" x2="326.8" y2="168.1"/>
				<line class="st52" x1="327.8" y1="177.1" x2="332.3" y2="182.3"/>
				<line class="st52" x1="342.9" y1="181.4" x2="352" y2="179.6"/>
				<line class="st52" x1="351.4" y1="188.5" x2="345" y2="186.4"/>
				<line class="st52" x1="350" y1="161.6" x2="355.2" y2="156.3"/>
			</g>
		</g>
		<g>
			<g>
				
					<ellipse transform="matrix(0.9946 -0.1039 0.1039 0.9946 -17.0968 10.1557)" class="st5" cx="88.9" cy="169.1" rx="92.3" ry="92.3"/>
				
					<ellipse transform="matrix(0.9946 -0.1039 0.1039 0.9946 -16.9015 10.0987)" class="st43" cx="88.4" cy="167.2" rx="64.5" ry="64.5"/>
			</g>
			<g>
				<path class="st53" d="M43.8,176.6c-1.2-0.4-9.4-12-1.9-22.8c7.4-10.8,17.5-37,24.9-39.2s12.4-5.7,25.5,2.4s24-3.9,31.8,5.9
					s19.1,18.3,21,40.4c2.5,30.1-14,47.2-18.6,48.8c-4.5,1.6-18.6,24-45.9,14.2s-18.7-45-26.4-46.4S43.8,176.6,43.8,176.6z"/>
				<path class="st41" d="M59.7,120.2c0,0,2.9-1.7,5-2c2.1-0.3,5-0.2,5-0.2l-2.4-6c0,0-2.5,0.3-5.8,0.8c-3.3,0.5-5,2.2-5,2.2
					L59.7,120.2z"/>
				<path class="st41" d="M72.3,118.2c1.2-0.3,4-1.1,4.9-2.6c1-1.5-1.3-4.2-2.1-5.9s-4.5,0.1-5.5,1.1S71.1,118.4,72.3,118.2z"/>
				<path class="st41" d="M62,124c0.2-1,0.7-3.2,1.9-4.1s3.4,0.9,4.9,1.5s0.1,3.6-0.7,4.4C67.3,126.7,61.8,125,62,124z"/>
				<g>
					
						<ellipse transform="matrix(0.4737 -0.8807 0.8807 0.4737 -68.8156 130.9485)" class="st54" cx="75.2" cy="123.1" rx="7.5" ry="7.5"/>
					<line class="st54" x1="73.6" y1="126.7" x2="75.8" y2="124.1"/>
					<line class="st54" x1="73.7" y1="119.4" x2="75.8" y2="122.4"/>
				</g>
				<g>
					
						<ellipse transform="matrix(0.7234 -0.6904 0.6904 0.7234 -59.5843 91.6811)" class="st54" cx="84.6" cy="120.2" rx="7.5" ry="7.5"/>
					<line class="st54" x1="80.7" y1="120.5" x2="84" y2="121.3"/>
					<line class="st54" x1="87.2" y1="117.2" x2="85.5" y2="120.5"/>
				</g>
				<g>
					
						<ellipse transform="matrix(0.4737 -0.8807 0.8807 0.4737 -113.6197 141.8929)" class="st55" cx="61.9" cy="166" rx="33.7" ry="33.7"/>
					<path class="st5" d="M37.7,142.6c-7.7,8-10.7,18.8-9,29c2.1,3.5,4.8,6.8,8.3,9.4c14.5,11.3,35.4,8.6,46.7-5.9
						c6.4-8.3,8.3-18.7,6.1-28.2c-1.3-1.9-2.8-3.6-4.4-5.2C71.9,128.8,50.6,129.2,37.7,142.6z"/>
					<g>
						<path class="st56" d="M55.5,161.5c-0.4,0.4-3.9-1.7-4.6-2.3c-0.7-0.6,0.6-2.4,1.3-2.2c1.2,0.4,1.5,1.5,2.2,2.6
							S55.9,161.1,55.5,161.5z"/>
						<path class="st56" d="M57.1,161.8c-0.4-0.4,1.7-3.4,2.3-3.9s2.1,0.7,1.9,1.3c-0.4,1-1.4,1.3-2.4,1.8S57.4,162.2,57.1,161.8z"
							/>
						<path class="st56" d="M55.8,163c-0.5-0.1-2.1,3.2-2.2,4c-0.2,0.8,1.6,1.5,2,1c0.7-0.9,0.4-1.9,0.4-3
							C55.9,163.8,56.3,163.1,55.8,163z"/>
					</g>
				</g>
				<g>
					<g>
						<line class="st57" x1="97.2" y1="144.9" x2="118.6" y2="206.8"/>
						<g>
							<path class="st58" d="M100.2,176.5c1.8,3.2,7.2,2,11-0.6c3.9-2.6,1.7-6.1,0.5-9.3c-1.1-3.2-2.6-5.3-7.9-3.4
								c-5.3,1.9-7.1,3-6.3,5.8C98.4,171.9,98.4,173.3,100.2,176.5z"/>
							<path class="st58" d="M96.5,165.2c1.8,3.2,7.2,2,11-0.6s1.7-6.1,0.5-9.3s-2.6-5.3-7.9-3.4c-5.3,1.9-7.1,3-6.3,5.8
								S94.6,162,96.5,165.2z"/>
							<path class="st58" d="M92.7,154.6c1.8,3.2,7.2,2,11-0.6c3.9-2.6,1.7-6.1,0.5-9.3s-2.6-5.3-7.9-3.4c-5.3,1.9-7.1,3-6.3,5.8
								S90.9,151.4,92.7,154.6z"/>
							<path class="st59" d="M103.9,163.3c-2.8,1-4.6,1.7-5.5,2.7c-0.2,1.8,0,4.8,2.8,5.1c4,0.4,5-3.5,7.5-3.2
								c1.1,0.1,2.2-0.4,3.2-1c0,0,0-0.1,0-0.1C110.7,163.5,109.2,161.4,103.9,163.3z"/>
							<path class="st59" d="M100.1,151.9c-2.8,1-4.6,1.7-5.5,2.7c-0.2,1.8,0,4.8,2.8,5.1c4,0.4,5-3.5,7.5-3.2
								c1.1,0.1,2.2-0.4,3.2-1c0,0,0-0.1,0-0.1C106.9,152.2,105.4,150.1,100.1,151.9z"/>
							<path class="st59" d="M96.4,141.3c-2.8,1-4.6,1.7-5.5,2.7c-0.2,1.8,0,4.8,2.8,5.1c4,0.4,5-3.5,7.5-3.2c1.1,0.1,2.2-0.4,3.2-1
								c0,0,0-0.1,0-0.1C103.1,141.6,101.7,139.5,96.4,141.3z"/>
						</g>
					</g>
					<g>
						<line class="st57" x1="107.8" y1="133.9" x2="129.2" y2="195.8"/>
						<g>
							<path class="st58" d="M110.9,165.5c1.8,3.2,7.2,2,11-0.6c3.9-2.6,1.7-6.1,0.5-9.3s-2.6-5.3-7.9-3.4c-5.3,1.9-7.1,3-6.3,5.8
								S109,162.3,110.9,165.5z"/>
							<path class="st58" d="M107.1,154.2c1.8,3.2,7.2,2,11-0.6c3.9-2.6,1.7-6.1,0.5-9.3s-2.6-5.3-7.9-3.4c-5.3,1.9-7.1,3-6.3,5.8
								C105.3,149.6,105.3,151,107.1,154.2z"/>
							<path class="st58" d="M103.4,143.6c1.8,3.2,7.2,2,11-0.6c3.9-2.6,1.7-6.1,0.5-9.3s-2.6-5.3-7.9-3.4c-5.3,1.9-7.1,3-6.3,5.8
								S101.5,140.4,103.4,143.6z"/>
							<path class="st59" d="M114.6,152.3c-2.8,1-4.6,1.7-5.5,2.7c-0.2,1.8,0,4.8,2.8,5.1c4,0.4,5-3.5,7.5-3.2
								c1.1,0.1,2.2-0.4,3.2-1c0,0,0-0.1,0-0.1C121.3,152.5,119.9,150.4,114.6,152.3z"/>
							<path class="st59" d="M110.8,140.9c-2.8,1-4.6,1.7-5.5,2.7c-0.2,1.8,0,4.8,2.8,5.1c4,0.4,5-3.5,7.5-3.2
								c1.1,0.1,2.2-0.4,3.2-1c0,0,0-0.1,0-0.1C117.6,141.2,116.1,139.1,110.8,140.9z"/>
							<path class="st59" d="M107,130.3c-2.8,1-4.6,1.7-5.5,2.7c-0.2,1.8,0,4.8,2.8,5.1c4,0.4,5-3.5,7.5-3.2c1.1,0.1,2.2-0.4,3.2-1
								c0,0,0-0.1,0-0.1C113.8,130.6,112.3,128.4,107,130.3z"/>
						</g>
					</g>
					<g>
						<line class="st57" x1="117.4" y1="122.4" x2="138.8" y2="184.3"/>
						<g>
							<path class="st58" d="M120.5,154.1c1.8,3.2,7.2,2,11-0.6c3.9-2.6,1.7-6.1,0.5-9.3s-2.6-5.3-7.9-3.4c-5.3,1.9-7.1,3-6.3,5.8
								S118.6,150.9,120.5,154.1z"/>
							<path class="st58" d="M116.7,142.7c1.8,3.2,7.2,2,11-0.6c3.9-2.6,1.7-6.1,0.5-9.3s-2.6-5.3-7.9-3.4c-5.3,1.9-7.1,3-6.3,5.8
								S114.9,139.6,116.7,142.7z"/>
							<path class="st58" d="M112.9,132.1c1.8,3.2,7.2,2,11-0.6c3.9-2.6,1.7-6.1,0.5-9.3s-2.6-5.3-7.9-3.4s-7.1,3-6.3,5.8
								S111.1,129,112.9,132.1z"/>
							<path class="st59" d="M124.1,140.8c-2.8,1-4.6,1.7-5.5,2.7c-0.2,1.8,0,4.8,2.8,5.1c4,0.4,5-3.5,7.5-3.2
								c1.1,0.1,2.2-0.4,3.2-1c0,0,0-0.1,0-0.1C130.9,141.1,129.4,138.9,124.1,140.8z"/>
							<path class="st59" d="M120.4,129.5c-2.8,1-4.6,1.7-5.5,2.7c-0.2,1.8,0,4.8,2.8,5.1c4,0.4,5-3.5,7.5-3.2
								c1.1,0.1,2.2-0.4,3.2-1c0,0,0-0.1,0-0.1C127.1,129.7,125.7,127.6,120.4,129.5z"/>
							<path class="st59" d="M116.6,118.9c-2.8,1-4.6,1.7-5.5,2.7c-0.2,1.8,0,4.8,2.8,5.1c4,0.4,5-3.5,7.5-3.2
								c1.1,0.1,2.2-0.4,3.2-1c0,0,0-0.1,0-0.1C123.4,119.1,121.9,117,116.6,118.9z"/>
						</g>
					</g>
				</g>
			</g>
		</g>
	</g>
</g>
</svg>
