<?xml version="1.0" encoding="UTF-8"?>
<svg width="50px" height="50px" viewBox="0 0 50 50" version="1.1" xmlns="http://www.w3.org/2000/svg" xmlns:xlink="http://www.w3.org/1999/xlink">
    <!-- Generator: Sketch 64 (93537) - https://sketch.com -->
    <title>Order - Active</title>
    <desc>Created with Sketch.</desc>
    <g id="Order---Active" stroke="none" stroke-width="1" fill="none" fill-rule="evenodd">
        <g id="Group" transform="translate(4.000000, 1.000000)">
            <line x1="0" y1="5.26530612" x2="41.244898" y2="5.26530612" id="Path-4" stroke="#0D6E23" stroke-width="5.26530612" stroke-linecap="round" stroke-linejoin="round"></line>
            <path d="M0,17.5510204 L26.3265306,17.5510204 C27.2958467,17.5510204 28.0816327,16.7652345 28.0816327,15.7959184 C28.0816327,14.8266023 27.2958467,14.0408163 26.3265306,14.0408163 L26.3265306,14.0408163 L0,14.0408163 L0,0 L35.1020408,0 L35.1020408,48.2653061 L0,48.2653061 L0,29.8367347 L17.5510204,29.8367347 C18.5203365,29.8367347 19.3061224,29.0509487 19.3061224,28.0816327 C19.3061224,27.1123166 18.5203365,26.3265306 17.5510204,26.3265306 L17.5510204,26.3265306 L0,26.3265306 L0,17.5510204 Z" id="Combined-Shape" fill="#15BC43"></path>
            <line x1="0.87755102" y1="15.7959184" x2="25.4489796" y2="15.7959184" id="Path-5" stroke="#FFFFFF" stroke-width="2.63265306" stroke-linecap="round" stroke-linejoin="round"></line>
            <circle id="Oval" fill="#0D6E23" cx="34.2244898" cy="39.4897959" r="8.7755102"></circle>
            <polyline id="Path-6" stroke="#15BC43" stroke-width="2.63265306" stroke-linecap="round" stroke-linejoin="round" points="30.7142857 39.4897959 34.2244898 43 36.8571429 35.9795918"></polyline>
        </g>
    </g>
</svg>