<?xml version="1.0" encoding="UTF-8"?>
<svg width="50px" height="50px" viewBox="0 0 50 50" version="1.1" xmlns="http://www.w3.org/2000/svg" xmlns:xlink="http://www.w3.org/1999/xlink">
    <!-- Generator: Sketch 64 (93537) - https://sketch.com -->
    <title>Support - Active Copy</title>
    <desc>Created with Sketch.</desc>
    <g id="Support---Active-Copy" stroke="none" stroke-width="1" fill="none" fill-rule="evenodd">
        <path d="M36.2608696,19.6956522 C37.7016124,19.6956522 38.8695652,20.863605 38.8695652,22.3043478 L38.8695652,37.9565217 C38.8695652,39.3972646 37.7016124,40.5652174 36.2608696,40.5652174 L10.303,40.5646522 L5.60869565,44.4782609 L5.60869565,40.5652174 C4.16795283,40.5652174 3,39.3972646 3,37.9565217 L3,22.3043478 C3,20.863605 4.16795283,19.6956522 5.60869565,19.6956522 L36.2608696,19.6956522 Z M25,32 L9,32 C8.44771525,32 8,32.4477153 8,33 C8,33.5522847 8.44771525,34 9,34 L9,34 L25,34 C25.5522847,34 26,33.5522847 26,33 C26,32.4477153 25.5522847,32 25,32 L25,32 Z M32,26 L9,26 C8.44771525,26 8,26.4477153 8,27 C8,27.5522847 8.44771525,28 9,28 L9,28 L32,28 C32.5522847,28 33,27.5522847 33,27 C33,26.4477153 32.5522847,26 32,26 L32,26 Z" id="Combined-Shape" fill="#CDE3D2"></path>
        <path d="M45.3913043,6 C46.8320472,6 48,7.16795283 48,8.60869565 L48,8.60869565 L48,27.5217391 C48,28.962482 46.8320472,30.1304348 45.3913043,30.1304348 L45.3913043,30.1304348 L43.435,30.13 L43.4347826,34.0434783 L40.5,30.13 L38.869,30.13 L38.8695652,22.3043478 C38.8695652,20.9190182 37.7897272,19.7858982 36.4258476,19.7007845 L36.2608696,19.6956522 L20.608,19.695 L20.6086957,8.60869565 C20.6086957,7.22336601 21.6885337,6.09024606 23.0524133,6.00513229 L23.2173913,6 Z" id="Combined-Shape" fill="#A4BBA9"></path>
    </g>
</svg>