<?xml version="1.0" encoding="UTF-8"?>
<svg width="50px" height="50px" viewBox="0 0 50 50" version="1.1" xmlns="http://www.w3.org/2000/svg" xmlns:xlink="http://www.w3.org/1999/xlink">
    <!-- Generator: Sketch 64 (93537) - https://sketch.com -->
    <title>Support - Active</title>
    <desc>Created with Sketch.</desc>
    <g id="Support---Active" stroke="none" stroke-width="1" fill="none" fill-rule="evenodd">
        <g id="Group" transform="translate(3.000000, 6.000000)">
            <path d="M33.2608696,13.6956522 C34.7016124,13.6956522 35.8695652,14.863605 35.8695652,16.3043478 L35.8695652,31.9565217 C35.8695652,33.3972646 34.7016124,34.5652174 33.2608696,34.5652174 L7.303,34.5646522 L2.60869565,38.4782609 L2.60869565,34.5652174 C1.16795283,34.5652174 1.747035e-13,33.3972646 1.7408297e-13,31.9565217 L1.7408297e-13,16.3043478 C1.7390653e-13,14.863605 1.16795283,13.6956522 2.60869565,13.6956522 L33.2608696,13.6956522 Z M22,26 L6,26 C5.44771525,26 5,26.4477153 5,27 C5,27.5522847 5.44771525,28 6,28 L6,28 L22,28 C22.5522847,28 23,27.5522847 23,27 C23,26.4477153 22.5522847,26 22,26 L22,26 Z M29,20 L6,20 C5.44771525,20 5,20.4477153 5,21 C5,21.5522847 5.44771525,22 6,22 L6,22 L29,22 C29.5522847,22 30,21.5522847 30,21 C30,20.4477153 29.5522847,20 29,20 L29,20 Z" id="Combined-Shape" fill="#15BC43"></path>
            <path d="M42.3913043,-1.77635684e-15 C43.8320472,-6.23518256e-16 45,1.16795283 45,2.60869565 L45,2.60869565 L45,21.5217391 C45,22.962482 43.8320472,24.1304348 42.3913043,24.1304348 L42.3913043,24.1304348 L40.435,24.13 L40.4347826,28.0434783 L37.5,24.13 L35.869,24.13 L35.8695652,16.3043478 C35.8695652,14.9190182 34.7897272,13.7858982 33.4258476,13.7007845 L33.2608696,13.6956522 L17.608,13.695 L17.6086957,2.60869565 C17.6086957,1.22336601 18.6885337,0.0902460606 20.0524133,0.00513229163 L20.2173913,-1.77635684e-15 Z" id="Combined-Shape" fill="#0D6E23"></path>
        </g>
    </g>
</svg>