<?xml version="1.0" encoding="UTF-8"?>
<svg width="100px" height="100px" viewBox="0 0 100 100" version="1.1" xmlns="http://www.w3.org/2000/svg" xmlns:xlink="http://www.w3.org/1999/xlink">
    <!-- Generator: Sketch 64 (93537) - https://sketch.com -->
    <title>img-food</title>
    <desc>Created with Sketch.</desc>
    <defs>
        <path d="M43.7534653,22.2007253 C43.7534653,10.1185394 33.9589185,0.323992603 21.8767327,0.323992603 C9.79454684,0.323992603 0,10.1185394 0,22.2007253 C0,34.2829111 43.7534653,34.2829111 43.7534653,22.2007253 Z" id="path-1"></path>
        <path d="M9.89316837,0.648280773 C11.4031075,-0.121071615 12.8024878,1.85228391 13.3410344,2.90924127 C13.8795811,3.96619862 14.9662428,6.09889224 13.1435851,7.02758273 C12.2233685,7.49645647 11.303152,7.96533021 10.4083458,7.90420245 C10.2755635,8.28944643 9.99492663,8.63190433 9.49826967,8.8849637 C8.57815319,9.35378646 7.65803671,9.82260922 6.76332228,9.76160334 C6.63024806,10.1468274 6.34961123,10.4892853 5.85295426,10.7423447 C4.03029656,11.6710352 2.20763886,12.5997256 0.582430512,9.41007466 C-1.04277784,6.22042368 1.09259849,5.1323951 2.60253757,4.36304271 C3.06588162,4.12695713 3.51881493,4.14913793 3.93965782,4.32385287 C4.42599447,3.43394501 5.42891331,2.92293234 6.24785297,2.50566174 C6.710754,2.26980189 7.16326419,2.29171478 7.58376599,2.46597116 C8.07056196,1.57694513 9.07392337,1.06570695 9.89316837,0.648280773 Z" id="path-3"></path>
        <path d="M9.89316837,0.648280773 C11.4031075,-0.121071615 12.8024878,1.85228391 13.3410344,2.90924127 C13.8795811,3.96619862 14.9662428,6.09889224 13.1435851,7.02758273 C12.2233685,7.49645647 11.303152,7.96533021 10.4083458,7.90420245 C10.2755635,8.28944643 9.99492663,8.63190433 9.49826967,8.8849637 C8.57815319,9.35378646 7.65803671,9.82260922 6.76332228,9.76160334 C6.63024806,10.1468274 6.34961123,10.4892853 5.85295426,10.7423447 C4.03029656,11.6710352 2.20763886,12.5997256 0.582430512,9.41007466 C-1.04277784,6.22042368 1.09259849,5.1323951 2.60253757,4.36304271 C3.06588162,4.12695713 3.51881493,4.14913793 3.93965782,4.32385287 C4.42599447,3.43394501 5.42891331,2.92293234 6.24785297,2.50566174 C6.710754,2.26980189 7.16326419,2.29171478 7.58376599,2.46597116 C8.07056196,1.57694513 9.07392337,1.06570695 9.89316837,0.648280773 Z" id="path-5"></path>
        <path d="M9.89316837,0.648280773 C11.4031075,-0.121071615 12.8024878,1.85228391 13.3410344,2.90924127 C13.8795811,3.96619862 14.9662428,6.09889224 13.1435851,7.02758273 C12.2233685,7.49645647 11.303152,7.96533021 10.4083458,7.90420245 C10.2755635,8.28944643 9.99492663,8.63190433 9.49826967,8.8849637 C8.57815319,9.35378646 7.65803671,9.82260922 6.76332228,9.76160334 C6.63024806,10.1468274 6.34961123,10.4892853 5.85295426,10.7423447 C4.03029656,11.6710352 2.20763886,12.5997256 0.582430512,9.41007466 C-1.04277784,6.22042368 1.09259849,5.1323951 2.60253757,4.36304271 C3.06588162,4.12695713 3.51881493,4.14913793 3.93965782,4.32385287 C4.42599447,3.43394501 5.42891331,2.92293234 6.24785297,2.50566174 C6.710754,2.26980189 7.16326419,2.29171478 7.58376599,2.46597116 C8.07056196,1.57694513 9.07392337,1.06570695 9.89316837,0.648280773 Z" id="path-7"></path>
    </defs>
    <g id="img-food" stroke="none" stroke-width="1" fill="none" fill-rule="evenodd">
        <g id="Group-21-Copy" transform="translate(1.000000, 13.000000)">
            <ellipse id="Oval" fill-opacity="0.2" fill="#136D29" cx="48.75" cy="68.75" rx="41.25" ry="3.75"></ellipse>
            <g id="Group-18" transform="translate(40.000000, 19.781293)">
                <path d="M18.0645161,6.77419355 L45.1612903,6.77419355 C45.3822333,12.6391734 45.424919,17.0157023 45.2893475,19.9037803 C44.6857803,32.7615631 42.8879318,39.6023101 38.0851003,39.6023101 C33.2822688,39.6023101 30.8808531,39.6023101 26.0780216,39.6023101 C21.2751902,39.6023101 18.0645161,30.1718456 18.0645161,20.3225806 C18.0645161,13.756404 18.0645161,9.240275 18.0645161,6.77419355 Z" id="Mask" fill="#26BA4A"></path>
                <path d="M31.6129032,9.03225806 C39.0954708,9.03225806 45.1612903,7.39774085 45.1612903,6.77419355 C45.1612903,6.15064625 39.0954708,4.51612903 31.6129032,4.51612903 C24.1303356,4.51612903 18.0645161,6.15064625 18.0645161,6.77419355 C18.0645161,7.39774085 24.1303356,9.03225806 31.6129032,9.03225806 Z" id="Oval" fill="#0D8D2C"></path>
                <path d="M20.3225806,15.8064516 L42.9032258,15.8064516 C42.7190912,29.9025405 40.8592072,36.9505849 37.3235736,36.9505849 C32.0201233,36.9505849 32.0201233,36.9505849 26.7166729,36.9505849 C23.1810394,36.9505849 21.0496753,29.9025405 20.3225806,15.8064516 Z" id="Path-22" fill="#A9DCB5"></path>
                <path d="M31.6129032,18.0645161 C37.8483762,18.0645161 42.9032258,16.4299989 42.9032258,15.8064516 C42.9032258,15.1829043 37.8483762,13.5483871 31.6129032,13.5483871 C25.3774302,13.5483871 20.3225806,15.1829043 20.3225806,15.8064516 C20.3225806,16.4299989 25.3774302,18.0645161 31.6129032,18.0645161 Z" id="Oval-Copy-3" fill="#85C795"></path>
                <ellipse id="Oval" fill-opacity="0.08" fill="#FFFFFF" cx="19.1935484" cy="16.9354839" rx="19.1935484" ry="16.9354839"></ellipse>
            </g>
            <path d="M49.0569157,70.724822 C76.1503021,70.724822 98.1138313,61.8597182 98.1138313,57.4661961 C98.1138313,53.072674 76.1503021,54.814471 49.0569157,54.814471 C21.9635293,54.814471 -3.55271368e-14,53.072674 -3.55271368e-14,57.4661961 C-3.55271368e-14,61.8597182 21.9635293,70.724822 49.0569157,70.724822 Z" id="Oval" fill="#136D29"></path>
            <g id="Group-7" transform="translate(4.926390, 32.063462)">
                <g id="Group-13" transform="translate(0.377060, 6.500000)">
                    <path d="M24.6859732,21.2138014 C25.9068255,12.3747175 24.7494349,7.95517551 21.2138014,7.95517551 C18.1560521,7.95517551 21.2138014,1.41312304e-14 15.910351,1.41312304e-14 C7.95517551,1.41312304e-14 11.2623771,5.30345034 8.77562214,5.30345034 C2.65172517,5.30345034 2.65172517,13.2586259 7.95517551,18.5620762 C11.4908091,22.0977098 17.0677416,22.9816181 24.6859732,21.2138014 Z" id="Path-9" fill="#26BA4A"></path>
                    <path d="M21.5908618,24.5284578 C25.1264954,22.7606411 26.0104038,20.1089159 24.242587,16.5732823 C21.5908618,11.269832 13.6356863,8.61810681 13.6356863,8.61810681 C13.6356863,8.61810681 5.6805108,5.96638163 5.6805108,11.269832 C5.6805108,16.5732823 3.02878563,13.9215571 0.377060455,16.5732823 C-2.27466472,19.2250075 9.86321021,17.3309181 11.7494483,22.2555505 C13.0069403,25.5386388 16.2874115,26.2962746 21.5908618,24.5284578 Z" id="Path-18" fill="#0D8D2C"></path>
                </g>
                <g id="Group-13-Copy" transform="translate(15.073610, 0.436538)">
                    <path d="M24.6859732,21.2138014 C25.9068255,12.3747175 24.7494349,7.95517551 21.2138014,7.95517551 C18.1560521,7.95517551 21.2138014,1.41312304e-14 15.910351,1.41312304e-14 C7.95517551,1.41312304e-14 11.2623771,5.30345034 8.77562214,5.30345034 C2.65172517,5.30345034 2.65172517,13.2586259 7.95517551,18.5620762 C11.4908091,22.0977098 17.0677416,22.9816181 24.6859732,21.2138014 Z" id="Path-9" fill="#26BA4A"></path>
                    <path d="M21.5908618,24.5284578 C25.1264954,22.7606411 26.0104038,20.1089159 24.242587,16.5732823 C21.5908618,11.269832 13.6356863,8.61810681 13.6356863,8.61810681 C13.6356863,8.61810681 5.6805108,5.96638163 5.6805108,11.269832 C5.6805108,16.5732823 3.02878563,13.9215571 0.377060455,16.5732823 C-2.27466472,19.2250075 9.86321021,17.3309181 11.7494483,22.2555505 C13.0069403,25.5386388 16.2874115,26.2962746 21.5908618,24.5284578 Z" id="Path-18" fill="#0D8D2C"></path>
                </g>
            </g>
            <g id="Group-14" transform="translate(27.500000, 0.000000)" stroke="#A9DCB5" stroke-dasharray="5.813397765159607" stroke-linecap="round" stroke-linejoin="round" stroke-width="1.93779916">
                <path d="M2.67949192,27.6913891 C-0.893163975,23.4606199 -0.893163975,19.2298507 2.67949192,14.9990814 C8.03847577,8.65292759 2.67949192,2.30677374 0.893163975,0.191389125" id="Path-19"></path>
                <path d="M12.6794919,27.6913891 C9.10683603,23.4606199 9.10683603,19.2298507 12.6794919,14.9990814 C18.0384758,8.65292759 12.6794919,2.30677374 10.893164,0.191389125" id="Path-19-Copy"></path>
                <path d="M22.6794919,27.6913891 C19.106836,23.4606199 19.106836,19.2298507 22.6794919,14.9990814 C28.0384758,8.65292759 22.6794919,2.30677374 20.893164,0.191389125" id="Path-19-Copy-2"></path>
            </g>
            <g id="Oval" transform="translate(22.500000, 37.500000)">
                <mask id="mask-2" fill="white">
                    <use xlink:href="#path-1"></use>
                </mask>
                <use id="Mask" fill="#E2E2E2" xlink:href="#path-1"></use>
                <ellipse fill-opacity="0.9" fill="#FFFFFF" mask="url(#mask-2)" transform="translate(24.341150, 6.774194) rotate(17.000000) translate(-24.341150, -6.774194) " cx="24.3411496" cy="6.77419355" rx="22.5806452" ry="15.8064516"></ellipse>
            </g>
            <g id="Group-11" transform="translate(40.000000, 37.500000)" stroke="#F4C119" stroke-linecap="round" stroke-linejoin="round" stroke-width="2.65172517">
                <line x1="0.217613962" y1="4.0413586" x2="2.43411121" y2="2.58575345" id="Path-6"></line>
                <line x1="8.83572077" y1="0.766289075" x2="11.2397084" y2="1.8854361" id="Path-6-Copy"></line>
                <line x1="6.1839956" y1="6.06973942" x2="8.83572077" y2="6.06973942" id="Path-6-Copy-2"></line>
            </g>
            <g id="Group-19" transform="translate(55.000000, 53.000000)">
                <g id="Group-4-Copy" transform="translate(0.000000, 0.250000)">
                    <line x1="9.34828512" y1="-1" x2="9.34828512" y2="18.0924212" id="Path-8" stroke="#F4C119" stroke-width="2.38655265" stroke-linecap="round" transform="translate(9.348285, 8.546211) rotate(63.000000) translate(-9.348285, -8.546211) "></line>
                    <g id="Path-20" transform="translate(7.159658, 0.000000)">
                        <mask id="mask-4" fill="white">
                            <use xlink:href="#path-3"></use>
                        </mask>
                        <use id="Mask" fill="#F48919" xlink:href="#path-3"></use>
                        <path d="M0.995350832,3.77310531 C0.995350832,6.95517551 2.58638594,7.75069306 5.76845614,6.15965796 C10.5415614,3.77310531 17.7012194,1.38655265 12.9281141,-1 C8.15500879,-3.38655265 5.76845614,1.38655265 5.76845614,1.38655265 C5.76845614,1.38655265 4.17742104,2.18207021 0.995350832,3.77310531 Z" fill-opacity="0.5" fill="#F4C119" mask="url(#mask-4)"></path>
                    </g>
                </g>
                <g id="Group-4" transform="translate(6.750000, 0.250000)">
                    <line x1="9.34828512" y1="-1" x2="9.34828512" y2="18.0924212" id="Path-8" stroke="#F4C119" stroke-width="2.38655265" stroke-linecap="round" transform="translate(9.348285, 8.546211) rotate(63.000000) translate(-9.348285, -8.546211) "></line>
                    <g id="Path-20" transform="translate(7.159658, 0.000000)">
                        <mask id="mask-6" fill="white">
                            <use xlink:href="#path-5"></use>
                        </mask>
                        <use id="Mask" fill="#F48919" xlink:href="#path-5"></use>
                        <path d="M0.995350832,3.77310531 C0.995350832,6.95517551 2.58638594,7.75069306 5.76845614,6.15965796 C10.5415614,3.77310531 17.7012194,1.38655265 12.9281141,-1 C8.15500879,-3.38655265 5.76845614,1.38655265 5.76845614,1.38655265 C5.76845614,1.38655265 4.17742104,2.18207021 0.995350832,3.77310531 Z" fill-opacity="0.5" fill="#F4C119" mask="url(#mask-6)"></path>
                    </g>
                </g>
                <g id="Group-4-Copy-2" transform="translate(15.000000, 0.500000)">
                    <line x1="9.34828512" y1="-1" x2="9.34828512" y2="18.0924212" id="Path-8" stroke="#F4C119" stroke-width="2.38655265" stroke-linecap="round" transform="translate(9.348285, 8.546211) rotate(63.000000) translate(-9.348285, -8.546211) "></line>
                    <g id="Path-20" transform="translate(7.159658, 0.000000)">
                        <mask id="mask-8" fill="white">
                            <use xlink:href="#path-7"></use>
                        </mask>
                        <use id="Mask" fill="#F48919" xlink:href="#path-7"></use>
                        <path d="M0.995350832,3.77310531 C0.995350832,6.95517551 2.58638594,7.75069306 5.76845614,6.15965796 C10.5415614,3.77310531 17.7012194,1.38655265 12.9281141,-1 C8.15500879,-3.38655265 5.76845614,1.38655265 5.76845614,1.38655265 C5.76845614,1.38655265 4.17742104,2.18207021 0.995350832,3.77310531 Z" fill-opacity="0.5" fill="#F4C119" mask="url(#mask-8)"></path>
                    </g>
                </g>
            </g>
        </g>
    </g>
</svg>