<?xml version="1.0" encoding="UTF-8"?>
<svg width="100px" height="100px" viewBox="0 0 100 100" version="1.1" xmlns="http://www.w3.org/2000/svg" xmlns:xlink="http://www.w3.org/1999/xlink">
    <!-- Generator: Sketch 64 (93537) - https://sketch.com -->
    <title>img-roomservice</title>
    <desc>Created with Sketch.</desc>
    <defs>
        <path d="M-4.45903714e-13,7.93915728 C-4.45903714e-13,5.54047446 16.7907797,-1.655574 21.5881454,0.743108819 C24.6180605,2.25806639 26.9303642,3.77302396 28.5250563,5.28798153 L28.7841938,5.54047446 C42.342319,5.54047446 53.6370787,15.9331542 54.7630197,29.4444463 L55.1697048,34.3246683 L40.7776079,43.9193996 L26.385511,24.729937 L2.39868282,15.1352057 C0.79956094,11.936962 -4.45903714e-13,9.53827915 -4.45903714e-13,7.93915728 Z" id="path-1"></path>
        <polygon id="path-3" points="0.281445451 14.4240793 0.281445451 3.86987495 24.9079224 0.351806813 49.5343993 3.86987495 49.5343993 14.4240793"></polygon>
    </defs>
    <g id="img-roomservice" stroke="none" stroke-width="1" fill="none" fill-rule="evenodd">
        <g id="Group" transform="translate(0.000000, 6.000000)">
            <ellipse id="Oval" fill-opacity="0.2" fill="#136D29" cx="63.5126122" cy="69.5467936" rx="35.9802423" ry="7.19604846"></ellipse>
            <path d="M59.1383579,27.4432264 C57.194499,26.4712969 53.108918,27.3882538 49.2022565,28.6904744 C46.488515,29.5950549 43.8274989,30.7559913 41.8714657,31.8516393 C40.9608849,32.3616899 40.2089606,32.8517443 39.2859157,33.5665513 C39.2859157,34.8863444 39.9116889,36.7828477 41.0899743,39.266527 L64.5562943,30.7333197 C63.1456301,29.6366411 61.3374506,28.5427727 59.1383579,27.4432264 Z" id="Path-11-Copy" stroke="#136D29" stroke-width="2.39868282"></path>
            <path d="M40.4852571,40.7625997 L66.8707682,31.1678685 C80.4288933,31.1678685 91.723653,41.5605482 92.849594,55.0718403 L93.2562792,59.9520623 L93.2562792,59.9520623 L78.8641822,69.5467936 L64.4720853,50.357331 L40.4852571,40.7625997 Z" id="Path-54-Copy" fill="#26BA4A"></path>
            <circle id="Oval-Copy-5" stroke="#136D29" stroke-width="2.39868282" fill="#178C34" cx="60.8740611" cy="68.3474522" r="5.99670705"></circle>
            <polyline id="Path-55-Copy" stroke="#136D29" stroke-width="4.79736564" stroke-linecap="round" points="39.4586209 69.3101235 78.5371618 69.3101235 92.2296429 59.7153923"></polyline>
            <path d="M1.25070022e-13,32.2132835 C2.31410704,32.2132835 4.04968732,29.176018 5.20674084,23.101487 C6.36379436,29.176018 8.09937464,32.2132835 10.4134817,32.2132835 C8.09937464,32.2132835 6.36379436,35.2505489 5.20674084,41.3250799 C4.04968732,35.2505489 2.31410704,32.2132835 1.25070022e-13,32.2132835" id="Path-52" fill="#A9DCB5"></path>
            <path d="M33.8113624,16.4714561 C35.5469427,16.4714561 36.8486279,14.0850332 37.716418,9.31218748 C38.5842082,14.0850332 39.8858934,16.4714561 41.6214736,16.4714561 C39.8858934,16.4714561 38.5842082,18.857879 37.716418,23.6307248 C36.8486279,18.857879 35.5469427,16.4714561 33.8113624,16.4714561" id="Path-52-Copy" fill="#A9DCB5"></path>
            <path d="M10.2040816,43.9269228 C11.7676675,43.9269228 12.9403568,41.581544 13.7221498,36.8907865 C14.5039427,41.581544 15.6766321,43.9269228 17.2402179,43.9269228 C15.6766321,43.9269228 14.5039427,46.2723015 13.7221498,50.963059 C12.9403568,46.2723015 11.7676675,43.9269228 10.2040816,43.9269228" id="Path-52-Copy-2" fill="#A9DCB5"></path>
            <g id="Group-32" transform="translate(4.313120, 80.321069)" stroke="#26BA4A" stroke-dasharray="2.60337055945883" stroke-linecap="round" stroke-width="1.37892995">
                <path d="M0,5.39284664 C5.20674084,4.09116143 7.81011126,2.35558115 7.81011126,0.186105804" id="Path-55-Copy-2"></path>
                <path d="M14.3185373,5.39284664 C19.5252781,4.09116143 22.1286486,2.35558115 22.1286486,0.186105804" id="Path-55-Copy-3"></path>
                <path d="M28.6370746,5.39284664 C33.8438155,4.09116143 36.4471859,2.35558115 36.4471859,0.186105804" id="Path-55-Copy-4"></path>
            </g>
            <g id="Group-29" transform="translate(38.156936, 24.569892)">
                <mask id="mask-2" fill="white">
                    <use xlink:href="#path-1"></use>
                </mask>
                <g id="Mask"></g>
                <path d="M27.3353894,-3.64471859 C10.8473767,-4.51250873 2.60337042,-3.21082352 2.60337042,0.260337042 C2.60337042,5.46707788 5.20674084,18.48393 16.9219077,18.48393 C28.6370746,18.48393 29.9387598,34.1041525 36.4471859,30.1990969 C40.7861366,27.5957264 47.7284577,23.6906708 57.2741492,18.48393 C53.8029887,13.2771891 49.897933,8.93823844 45.5589823,5.46707788 C39.0505563,0.260337042 32.5421302,-3.64471859 29.9387598,-3.64471859 C28.2031795,-3.64471859 27.3353894,-3.64471859 27.3353894,-3.64471859 Z" id="Path-55" fill-opacity="0.3" fill="#FFFFFF" mask="url(#mask-2)"></path>
            </g>
            <g id="Group-26" transform="translate(40.485257, 38.363917)">
                <path d="M2.31225742e-14,2.39868282 L7.25677466,1.9451344 C23.4043338,0.935911955 37.3126533,13.2079586 38.3218758,29.3555178 C38.3598994,29.9638955 38.3789251,30.5733118 38.3789251,31.1828766 L38.3789251,31.1828766 L38.3789251,31.1828766 L2.31225742e-14,31.1828766 L2.31225742e-14,2.39868282 Z" id="Rectangle-Copy" fill="#136D29"></path>
                <g id="Group-27-Copy" transform="translate(3.598024, 9.594731)" stroke="#A9DCB5" stroke-linecap="round" stroke-width="2.39868282">
                    <line x1="7.19604846" y1="0" x2="7.19604846" y2="9.59473127" id="Path-58-Copy"></line>
                    <line x1="13.1927555" y1="0" x2="13.1927555" y2="9.59473127" id="Path-58-Copy-2"></line>
                    <line x1="1.19934141" y1="0" x2="1.19934141" y2="9.59473127" id="Path-58"></line>
                </g>
            </g>
            <path d="M24.1902052,22.7278554 C24.1902052,21.9268828 24.2758516,53.331506 24.2758516,22.7418052 C24.2758516,-7.84789566 69.7491875,-7.66119419 69.7491875,23.8043258 C69.7491875,45.333734 69.7491875,59.4618379 69.7491875,66.1886376" id="Path-7-Copy" stroke="#F4C119" stroke-width="5.2771022" transform="translate(46.969696, 33.094319) scale(-1, 1) translate(-46.969696, -33.094319) "></path>
            <g id="Group-30" transform="translate(62.713051, 34.526024)">
                <ellipse id="Oval-Copy-6" fill="#136D29" cx="7.03613627" cy="2.87841938" rx="7.03613627" ry="2.87841938"></ellipse>
                <polygon id="Path-56-Copy" fill="#F48919" points="3.51806813 2.87841938 3.51806813 -3.69961188e-14 10.5542044 -3.69961188e-14 10.5542044 2.87841938 7.03613627 2.87841938"></polygon>
            </g>
            <g id="Group-31" transform="translate(0.408065, 55.810337)">
                <line x1="0.281445451" y1="13.0168521" x2="49.5343993" y2="13.0168521" id="Path-7" stroke="#F48919" stroke-width="17.5903407"></line>
                <g id="Oval">
                    <mask id="mask-4" fill="white">
                        <use xlink:href="#path-3"></use>
                    </mask>
                    <use id="Mask" fill="#F4C119" xlink:href="#path-3"></use>
                    <ellipse fill-opacity="0.2" fill="#FFFFFF" mask="url(#mask-4)" cx="25.3828616" cy="0.650842605" rx="26.6845468" ry="11.0643243"></ellipse>
                </g>
            </g>
        </g>
    </g>
</svg>